<?xml version="1.0" encoding="utf-8"?>
<!-- Generator: Adobe Illustrator 16.0.0, SVG Export Plug-In . SVG Version: 6.00 Build 0)  -->
<!DOCTYPE svg PUBLIC "-//W3C//DTD SVG 1.1//EN" "http://www.w3.org/Graphics/SVG/1.1/DTD/svg11.dtd">
<svg version="1.1" id="book" xmlns="http://www.w3.org/2000/svg" xmlns:xlink="http://www.w3.org/1999/xlink" x="0px" y="0px"
	 width="75px" height="50px" viewBox="0 0 75 50" enable-background="new 0 0 75 50" xml:space="preserve">
<g>
	<rect id="yellow" x="0.776" y="2.33" fill="#F4CD86" width="36.725" height="46.709"/>
	<g id="text">
		<rect x="5.375" y="8.043" fill="#5B4203" width="8.943" height="13.415"/>
		<rect x="16.428" y="8.043" fill="#5B4203" width="15.276" height="1.615"/>
		<rect x="16.428" y="11.272" fill="#5B4203" width="15.276" height="1.615"/>
		<rect x="16.428" y="14.503" fill="#5B4203" width="15.276" height="1.613"/>
		<rect x="16.428" y="17.731" fill="#5B4203" width="15.276" height="1.615"/>
		<rect x="16.428" y="20.96" fill="#5B4203" width="15.276" height="1.615"/>
		<rect x="5.499" y="24.19" fill="#5B4203" width="26.206" height="1.613"/>
		<rect x="5.499" y="27.42" fill="#5B4203" width="26.206" height="1.614"/>
		<rect x="5.499" y="30.648" fill="#5B4203" width="26.206" height="1.613"/>
		<rect x="5.499" y="33.878" fill="#5B4203" width="26.206" height="1.615"/>
		<rect x="5.499" y="37.105" fill="#5B4203" width="26.206" height="1.615"/>
		<rect x="5.499" y="40.337" fill="#5B4203" width="26.206" height="1.614"/>
	</g>
	<g id="brown">
		<g>
			<path fill="#5B4203" d="M74.225,49.039c-12.113-2.51-24.611-2.51-36.724,0c0-15.569,0-31.139,0-46.709
				c12.112-2.508,24.61-2.508,36.724,0C74.225,17.9,74.225,33.47,74.225,49.039z"/>
		</g>
	</g>
	<g id="red_1_">
		<path opacity="0.11" fill="#F4A281" enable-background="new    " d="M46.939,15.31l-2.629-3.406l-2.627,3.406V1.869
			c0,0,3.334-0.867,5.139-0.705L46.939,15.31z"/>
		<path id="red" fill="#F4A281" d="M46.328,15.128l-2.627-3.408l-2.627,3.408V1.687c0,0,3.332-0.866,5.139-0.706L46.328,15.128z"/>
	</g>
</g>
</svg>
