<?xml version="1.0" encoding="utf-8"?>
<!-- Generator: Adobe Illustrator 16.0.0, SVG Export Plug-In . SVG Version: 6.00 Build 0)  -->
<!DOCTYPE svg PUBLIC "-//W3C//DTD SVG 1.1//EN" "http://www.w3.org/Graphics/SVG/1.1/DTD/svg11.dtd">
<svg version="1.1" id="Layer_1" xmlns="http://www.w3.org/2000/svg" xmlns:xlink="http://www.w3.org/1999/xlink" x="0px" y="0px"
	 width="140px" height="120px" viewBox="0 0 140 120" enable-background="new 0 0 140 120" xml:space="preserve">
<g display="none">
	<path display="inline" fill="#FFAE6D" d="M135.332,52.989c-3.556-2.914-10.845-1.844-14.77,0.012
		c-1.912,0.907-2.816,2.493-1.549,3.938c0.57,0.646,1.601,1.139,2.729,1.344c0.199,0.287,0.459,0.558,0.801,0.788
		c0.097,0.234,0.221,0.461,0.394,0.657c1.023,1.162,2.963,1.592,4.874,1.322c2.609-0.367,5.766-1.02,7.485-2.482
		C137.372,56.798,137.491,54.759,135.332,52.989z"/>
	<path display="inline" fill="#FFAE6D" d="M36.752,70.972c0,0,2.618,29.674-0.41,33.105c-3.029,3.432,12.118,3.432,12.118,1.413
		c0-2.018,0-31.896,0-31.896L36.752,70.972z"/>
	<path display="inline" fill="#FFAE6D" d="M97.529,70.931c0,0,2.617,29.875-0.409,33.303c-3.029,3.432,12.117,3.231,12.117,1.213
		c0-2.018,0-31.893,0-31.893L97.529,70.931z"/>
	<path display="inline" fill="#FFD078" d="M130.908,71.576c-1.005-5.64-3.366-11.615-7.461-15.733
		c-4.928-4.957-10.764-6.16-17.54-6.355c-8.571-0.246-17.15-0.556-25.718-0.942v0.062c-7.556-1.449-12.755-3.744-13.042-7.509
		c-1.045-13.675-12.128-29.472-19.091-31.69c-6.965-2.22-9.539-3.08-13.929,1.009C22.926,24.04,5.464,23.335,5.464,23.335
		S4.65,44.452,27.825,44.62c4.624,29.606,15.503,38.742,17,42.3c1.614,3.835,4.14,18.469,1.111,22.505
		c-3.027,4.036,12.617,3.938,13.02,0.306c0.404-3.635,2.016-12.853,2.623-16.757c-0.003-0.166,12.79-1.753,13.79-1.896
		c7.246-1.04,14.46-2.678,21.415-4.964c7.818-2.568,16.957-4.434,20.377,5.317c1.578,4.502,1.668,12.064-1.746,15.935
		c-3.027,3.432,13.725,3.027,14.129,0C129.949,104.335,131.811,76.625,130.908,71.576z"/>
	<path display="inline" d="M30.452,21.094h-0.175c-2.529,0-2.529,3.922,0,3.922h0.175C32.981,25.017,32.981,21.094,30.452,21.094z"
		/>
	<path display="inline" fill="#97C9D5" d="M41.747,56.003c-2.402,0.268-9.112,0.144-13.084-0.072
		c-3.975-0.219-2.89-9.883-0.425-9.46c0.404,0.958,0.739,3.187,0.739,3.187C51.17,50.778,64.58,34.922,65.792,32.97
		c1.209-1.962,6.169,2.028,4.41,4.967C68.443,40.88,62.38,53.699,41.747,56.003z"/>
	<path display="inline" fill="#FFAE6D" d="M39.248,13.152c-2.443-5.207,11.165-5.613,13.025,1.621
		c1.862,7.233,4.188,26.401-5.521,29.757C37.269,46.59,41.689,18.361,39.248,13.152z"/>
	<path display="inline" fill="#0D0000" d="M14.133,33.203c-0.73,1.06-1.692,1.884-2.833,2.421c-0.012-0.068-0.015-0.134-0.047-0.204
		c-0.97-2.124-2.341-4.542-2.631-6.894c4.168-1.276,3.72-8.436-1.351-8.436c-5.502,0-5.562,8.426-0.188,8.621
		c0.36,2.585,1.745,5.156,2.814,7.5c0.017,0.038,0.044,0.055,0.065,0.087c-0.358,0.53,0.046,1.446,0.822,1.206
		c1.963-0.605,3.543-1.825,4.706-3.51C16.064,33.161,14.704,32.376,14.133,33.203z"/>
</g>
<g>
	<rect x="6.664" y="38.368" fill="none" width="2.558" height="8.732"/>
	<path fill="none" d="M45.716,66.937c0,15.053,12.201,27.254,27.253,27.254c15.052,0,27.256-12.201,27.256-27.254
		c0-15.051-12.204-27.253-27.256-27.253C57.917,39.684,45.716,51.886,45.716,66.937z M91.138,66.937
		c0,10.034-8.135,18.175-18.169,18.175c-10.038,0-18.173-8.141-18.173-18.175c0-10.038,8.135-18.166,18.173-18.166
		C83.003,48.771,91.138,56.898,91.138,66.937z"/>
	<path fill="#97C9D5" d="M16.482,107.25h112.97c4.01,0,7.266-3.247,7.266-7.25V30.125c0-4.009-3.256-7.259-7.266-7.259h-3.319v-3.22
		c0-0.643-0.526-1.157-1.16-1.157h-18.007c-0.638,0-1.151,0.515-1.151,1.157v3.22h-13.64l-5.801-8.783
		c0-0.737-0.695-1.333-1.557-1.333h-7.911h-7.877h-7.905c-0.859,0-1.562,0.596-1.562,1.333l-5.791,8.783H16.482
		c-4.006,0-7.26,3.25-7.26,7.259v4.859H6.345c-1.693,0-3.062,1.375-3.062,3.068v9.366c0,1.688,1.37,3.062,3.062,3.062h2.877V100
		C9.222,104.003,12.476,107.25,16.482,107.25z M96.662,31.995h15.027h15.021v10.999h-15.021H96.662V31.995z M72.969,39.684
		c15.052,0,27.256,12.202,27.256,27.253c0,15.053-12.204,27.254-27.256,27.254c-15.052,0-27.253-12.201-27.253-27.254
		C45.716,51.886,57.917,39.684,72.969,39.684z M6.664,47.101v-8.732h2.558v8.732H6.664z"/>
	<path fill="#EEAC73" d="M54.796,66.937c0,10.034,8.135,18.175,18.173,18.175c10.034,0,18.169-8.141,18.169-18.175
		c0-10.038-8.135-18.166-18.169-18.166C62.931,48.771,54.796,56.898,54.796,66.937z"/>
	<rect x="96.662" y="31.995" fill="#F3CC85" width="15.027" height="10.999"/>
	<rect x="111.689" y="31.995" fill="#F4A281" width="15.021" height="10.999"/>
</g>
</svg>
