<?xml version="1.0" encoding="utf-8"?>
<!-- Generator: Adobe Illustrator 16.0.0, SVG Export Plug-In . SVG Version: 6.00 Build 0)  -->
<!DOCTYPE svg PUBLIC "-//W3C//DTD SVG 1.1//EN" "http://www.w3.org/Graphics/SVG/1.1/DTD/svg11.dtd">
<svg version="1.1" id="computer" xmlns="http://www.w3.org/2000/svg" xmlns:xlink="http://www.w3.org/1999/xlink" x="0px" y="0px"
	 width="76px" height="48px" viewBox="0 0 76 48" enable-background="new 0 0 76 48" xml:space="preserve">
<g>
	<g id="body">
		<g>
			<path fill="#5B4203" d="M0.236,43.203c0,0.008,0,0.018,0,0.027c0,2.604,1.317,4.713,2.94,4.713h69.648
				c1.625,0,2.941-2.107,2.941-4.713c0-0.01,0-0.021,0-0.027H0.236z"/>
		</g>
		<path fill="#FFFFFF" d="M49.033,45.573c0,0.612-0.488,1.104-1.092,1.104H28.06c-0.604,0-1.093-0.492-1.093-1.104l0,0
			c0-0.61,0.489-1.106,1.093-1.106h19.881C48.545,44.467,49.033,44.963,49.033,45.573L49.033,45.573z"/>
		<path fill="#5B4203" d="M68.041,0H7.96C5.797,0,4.043,1.963,4.043,4.388v33.5c0,2.422,1.754,4.387,3.917,4.387h60.081
			c2.162,0,3.916-1.965,3.916-4.387v-33.5C71.957,1.963,70.203,0,68.041,0z M68.666,39.359H7.337V2.917h61.329V39.359z"/>
	</g>
	<polygon id="screen" fill="#F4CD86" points="68.162,2.917 7.337,2.917 7.337,39.338 7.337,39.359 68.666,39.359 68.666,2.917 	"/>
</g>
</svg>
