<?xml version="1.0" encoding="utf-8"?>
<!-- Generator: Adobe Illustrator 16.0.0, SVG Export Plug-In . SVG Version: 6.00 Build 0)  -->
<!DOCTYPE svg PUBLIC "-//W3C//DTD SVG 1.1//EN" "http://www.w3.org/Graphics/SVG/1.1/DTD/svg11.dtd">
<svg version="1.1" id="Layer_1" xmlns="http://www.w3.org/2000/svg" xmlns:xlink="http://www.w3.org/1999/xlink" x="0px" y="0px"
	 width="140px" height="120px" viewBox="0 0 140 120" enable-background="new 0 0 140 120" xml:space="preserve">
<g>
	<path fill="#FFAE6D" d="M135.332,52.989c-3.556-2.914-10.845-1.844-14.77,0.012c-1.912,0.907-2.816,2.493-1.549,3.938
		c0.57,0.646,1.601,1.139,2.729,1.344c0.199,0.287,0.459,0.558,0.801,0.788c0.097,0.234,0.221,0.461,0.394,0.657
		c1.023,1.162,2.963,1.592,4.874,1.322c2.609-0.367,5.766-1.02,7.485-2.482C137.372,56.798,137.491,54.759,135.332,52.989z"/>
	<path fill="#FFAE6D" d="M36.752,70.972c0,0,2.618,29.674-0.41,33.105c-3.029,3.432,12.118,3.432,12.118,1.413
		c0-2.018,0-31.896,0-31.896L36.752,70.972z"/>
	<path fill="#FFAE6D" d="M97.529,70.931c0,0,2.617,29.875-0.409,33.303c-3.029,3.432,12.117,3.231,12.117,1.213
		c0-2.018,0-31.893,0-31.893L97.529,70.931z"/>
	<path fill="#FFD078" d="M130.908,71.576c-1.005-5.64-3.366-11.615-7.461-15.733c-4.928-4.957-10.764-6.16-17.54-6.355
		c-8.571-0.246-17.15-0.556-25.718-0.942v0.062c-7.556-1.449-12.755-3.744-13.042-7.509c-1.045-13.675-12.128-29.472-19.091-31.69
		c-6.965-2.22-9.539-3.08-13.929,1.009C22.926,24.04,5.464,23.335,5.464,23.335S4.65,44.452,27.825,44.62
		c4.624,29.606,15.503,38.742,17,42.3c1.614,3.835,4.14,18.469,1.111,22.505c-3.027,4.036,12.617,3.938,13.02,0.306
		c0.404-3.635,2.016-12.853,2.623-16.757c-0.003-0.166,12.79-1.753,13.79-1.896c7.246-1.04,14.46-2.678,21.415-4.964
		c7.818-2.568,16.957-4.434,20.377,5.317c1.578,4.502,1.668,12.064-1.746,15.935c-3.027,3.432,13.725,3.027,14.129,0
		C129.949,104.335,131.811,76.625,130.908,71.576z"/>
	<path d="M30.452,21.094h-0.175c-2.529,0-2.529,3.922,0,3.922h0.175C32.981,25.017,32.981,21.094,30.452,21.094z"/>
	<path fill="#97C9D5" d="M41.747,56.003c-2.402,0.268-9.112,0.144-13.084-0.072c-3.975-0.219-2.89-9.883-0.425-9.46
		c0.404,0.958,0.739,3.187,0.739,3.187C51.17,50.778,64.58,34.922,65.792,32.97c1.209-1.962,6.169,2.028,4.41,4.967
		C68.443,40.88,62.38,53.699,41.747,56.003z"/>
	<path fill="#FFAE6D" d="M39.248,13.152c-2.443-5.207,11.165-5.613,13.025,1.621c1.862,7.233,4.188,26.401-5.521,29.757
		C37.269,46.59,41.689,18.361,39.248,13.152z"/>
	<path fill="#0D0000" d="M14.133,33.203c-0.73,1.06-1.692,1.884-2.833,2.421c-0.012-0.068-0.015-0.134-0.047-0.204
		c-0.97-2.124-2.341-4.542-2.631-6.894c4.168-1.276,3.72-8.436-1.351-8.436c-5.502,0-5.562,8.426-0.188,8.621
		c0.36,2.585,1.745,5.156,2.814,7.5c0.017,0.038,0.044,0.055,0.065,0.087c-0.358,0.53,0.046,1.446,0.822,1.206
		c1.963-0.605,3.543-1.825,4.706-3.51C16.064,33.161,14.704,32.376,14.133,33.203z"/>
</g>
</svg>
