<?xml version="1.0" encoding="utf-8"?>
<!-- Generator: Adobe Illustrator 16.0.0, SVG Export Plug-In . SVG Version: 6.00 Build 0)  -->
<!DOCTYPE svg PUBLIC "-//W3C//DTD SVG 1.1//EN" "http://www.w3.org/Graphics/SVG/1.1/DTD/svg11.dtd">
<svg version="1.1" id="reward" xmlns="http://www.w3.org/2000/svg" xmlns:xlink="http://www.w3.org/1999/xlink" x="0px" y="0px"
	 width="75px" height="50px" viewBox="0 0 75 50" enable-background="new 0 0 75 50" xml:space="preserve">
<path id="hat" fill="#F4CD86" d="M37.5,0.87L0.123,14.549v3.276l16.376,4.431v9.919c0,0,6.516-1.864,21.001-2.782
	c14.109,0.846,21.001,2.782,21.001,2.782v-9.919l16.376-4.431v-3.276L37.5,0.87z"/>
<path id="string" fill="#5B4203" d="M70.998,39.299c0.646-0.121,1.134-0.686,1.134-1.365c0-0.768-0.623-1.392-1.392-1.392h-0.236
	V11.167c0-1.057-0.857-1.914-1.915-1.914c-1.057,0-1.914,0.857-1.914,1.914v25.375H66.66c-0.77,0-1.393,0.624-1.393,1.392
	c0,0.608,0.395,1.121,0.938,1.311c-1.897,4.054-3.101,7.07-2.59,7.518c3.601,3.159,6.345,3.159,9.946,0
	C74.068,46.314,72.893,43.343,70.998,39.299z"/>
</svg>
