<?xml version="1.0" encoding="utf-8"?>
<!-- Generator: Adobe Illustrator 16.0.0, SVG Export Plug-In . SVG Version: 6.00 Build 0)  -->
<!DOCTYPE svg PUBLIC "-//W3C//DTD SVG 1.1//EN" "http://www.w3.org/Graphics/SVG/1.1/DTD/svg11.dtd">
<svg version="1.1" id="Layer_1" xmlns="http://www.w3.org/2000/svg" xmlns:xlink="http://www.w3.org/1999/xlink" x="0px" y="0px"
	 width="720px" height="65px" viewBox="0 0 720 65" enable-background="new 0 0 720 65" xml:space="preserve">
<g enable-background="new    ">
	<path fill="#F7CE87" d="M49.555,20.642h-8.61V8.392h32.62v12.25h-8.61v34.44h-15.4V20.642z M58.165,49.482V15.672h10.01v-1.68
		h-21.84v1.68h10.01v33.811H58.165z"/>
</g>
<g enable-background="new    ">
	<path fill="#97CBD6" d="M76.014,8.392h14.91v15.89h8.33V8.392h14.98v46.69h-14.98v-17.29h-8.33v17.29h-14.91V8.392z M84.834,49.482
		v-17.71h20.58v17.71h1.82v-35.49h-1.82v16.1h-20.58v-16.1h-1.82v35.49H84.834z"/>
</g>
<g enable-background="new    ">
	<path fill="#F6A482" d="M119.134,8.392h15.82v46.69h-15.82V8.392z M127.954,49.482v-35.49h-1.82v35.49H127.954z"/>
</g>
<g enable-background="new    ">
	<path fill="#77A9C1" d="M138.593,40.592c1.026,0.327,2.1,0.584,3.22,0.771c0.933,0.233,1.995,0.42,3.185,0.56
		c1.19,0.141,2.391,0.21,3.605,0.21c2.146,0,3.22-0.793,3.22-2.38c0-0.605-0.327-1.225-0.98-1.854
		c-0.654-0.631-1.482-1.33-2.485-2.101c-1.004-0.77-2.077-1.621-3.22-2.555c-1.144-0.934-2.217-2.006-3.22-3.22
		c-1.004-1.214-1.832-2.578-2.485-4.096c-0.654-1.516-0.98-3.255-0.98-5.215c0-2.193,0.396-4.13,1.19-5.81
		c0.793-1.68,1.89-3.08,3.29-4.2c1.4-1.12,3.045-1.971,4.935-2.555c1.89-0.583,3.908-0.875,6.055-0.875
		c1.12,0,2.24,0.059,3.36,0.175c1.12,0.117,2.123,0.222,3.01,0.315c1.026,0.14,2.03,0.28,3.01,0.42v13.09
		c-0.374-0.046-0.794-0.093-1.26-0.14c-0.374-0.046-0.794-0.093-1.26-0.14c-0.467-0.046-0.957-0.07-1.47-0.07
		c-0.28,0-0.63,0.012-1.05,0.035c-0.42,0.024-0.817,0.082-1.19,0.175c-0.374,0.094-0.7,0.257-0.98,0.49
		c-0.28,0.234-0.42,0.56-0.42,0.98c0,0.374,0.315,0.84,0.945,1.4c0.63,0.561,1.4,1.214,2.31,1.96c0.91,0.747,1.913,1.61,3.01,2.59
		c1.096,0.98,2.1,2.101,3.01,3.36s1.68,2.684,2.31,4.27c0.63,1.588,0.945,3.36,0.945,5.32c0,2.054-0.327,3.979-0.98,5.775
		c-0.654,1.797-1.669,3.359-3.045,4.689c-1.377,1.33-3.139,2.38-5.285,3.15c-2.147,0.77-4.69,1.155-7.63,1.155
		c-1.774,0-3.419-0.082-4.935-0.245c-1.517-0.164-2.859-0.362-4.025-0.596c-1.354-0.233-2.59-0.513-3.71-0.84V40.592z
		 M144.473,48.992c0.653,0.14,1.353,0.257,2.1,0.35c0.653,0.095,1.341,0.175,2.065,0.245c0.723,0.07,1.458,0.105,2.205,0.105
		c1.306,0,2.578-0.151,3.815-0.455c1.236-0.304,2.345-0.806,3.325-1.505c0.98-0.7,1.761-1.599,2.345-2.695
		c0.583-1.096,0.875-2.438,0.875-4.025c0-1.353-0.339-2.636-1.015-3.85c-0.677-1.213-1.54-2.38-2.59-3.5
		c-1.05-1.12-2.17-2.193-3.36-3.22s-2.31-2.065-3.36-3.115c-1.05-1.05-1.914-2.101-2.59-3.15c-0.677-1.05-1.015-2.135-1.015-3.255
		c0-1.68,0.536-2.975,1.61-3.885c1.073-0.91,2.8-1.365,5.18-1.365c0.373,0,0.758,0.012,1.155,0.035
		c0.396,0.024,0.781,0.059,1.155,0.105c0.373,0.047,0.746,0.07,1.12,0.07v-1.82c-0.327,0-0.677-0.023-1.05-0.07
		c-0.327-0.046-0.689-0.081-1.085-0.105c-0.397-0.023-0.805-0.035-1.225-0.035c-2.52,0-4.597,0.572-6.23,1.715
		c-1.634,1.144-2.45,2.929-2.45,5.355c0,1.307,0.338,2.532,1.015,3.675c0.676,1.145,1.54,2.265,2.59,3.36
		c1.05,1.097,2.17,2.159,3.36,3.185c1.19,1.027,2.31,2.065,3.36,3.115s1.913,2.135,2.59,3.255c0.676,1.12,1.015,2.287,1.015,3.5
		c0,2.24-0.759,3.944-2.275,5.11c-1.517,1.167-3.605,1.75-6.265,1.75c-1.587,0-3.034-0.116-4.34-0.35
		c-0.7-0.094-1.377-0.21-2.03-0.351V48.992z"/>
</g>
<text transform="matrix(1 0 0 1 168.9028 55.082)" font-family="'Phosphate-Inline'" font-size="70"> </text>
<g enable-background="new    ">
	<path fill="#F7CE87" d="M185.353,8.392h15.82v46.69h-15.82V8.392z M194.173,49.482v-35.49h-1.82v35.49H194.173z"/>
</g>
<g enable-background="new    ">
	<path fill="#97C8D6" d="M204.812,40.592c1.026,0.327,2.1,0.584,3.22,0.771c0.933,0.233,1.995,0.42,3.185,0.56
		c1.19,0.141,2.391,0.21,3.605,0.21c2.146,0,3.22-0.793,3.22-2.38c0-0.605-0.327-1.225-0.98-1.854
		c-0.654-0.631-1.482-1.33-2.485-2.101c-1.004-0.77-2.077-1.621-3.22-2.555c-1.144-0.934-2.217-2.006-3.22-3.22
		c-1.004-1.214-1.832-2.578-2.485-4.096c-0.654-1.516-0.98-3.255-0.98-5.215c0-2.193,0.396-4.13,1.19-5.81
		c0.793-1.68,1.89-3.08,3.29-4.2c1.4-1.12,3.045-1.971,4.935-2.555c1.89-0.583,3.908-0.875,6.055-0.875
		c1.12,0,2.24,0.059,3.36,0.175c1.12,0.117,2.123,0.222,3.01,0.315c1.026,0.14,2.03,0.28,3.01,0.42v13.09
		c-0.374-0.046-0.794-0.093-1.26-0.14c-0.374-0.046-0.794-0.093-1.26-0.14c-0.467-0.046-0.957-0.07-1.47-0.07
		c-0.28,0-0.63,0.012-1.05,0.035c-0.42,0.024-0.817,0.082-1.19,0.175c-0.374,0.094-0.7,0.257-0.98,0.49
		c-0.28,0.234-0.42,0.56-0.42,0.98c0,0.374,0.315,0.84,0.945,1.4c0.63,0.561,1.4,1.214,2.31,1.96c0.91,0.747,1.913,1.61,3.01,2.59
		c1.096,0.98,2.1,2.101,3.01,3.36s1.68,2.684,2.31,4.27c0.63,1.588,0.945,3.36,0.945,5.32c0,2.054-0.327,3.979-0.98,5.775
		c-0.654,1.797-1.669,3.359-3.045,4.689c-1.377,1.33-3.139,2.38-5.285,3.15c-2.147,0.77-4.69,1.155-7.63,1.155
		c-1.774,0-3.419-0.082-4.935-0.245c-1.517-0.164-2.859-0.362-4.025-0.596c-1.354-0.233-2.59-0.513-3.71-0.84V40.592z
		 M210.691,48.992c0.653,0.14,1.353,0.257,2.1,0.35c0.653,0.095,1.341,0.175,2.065,0.245c0.723,0.07,1.458,0.105,2.205,0.105
		c1.306,0,2.578-0.151,3.815-0.455c1.236-0.304,2.345-0.806,3.325-1.505c0.98-0.7,1.761-1.599,2.345-2.695
		c0.583-1.096,0.875-2.438,0.875-4.025c0-1.353-0.339-2.636-1.015-3.85c-0.677-1.213-1.54-2.38-2.59-3.5
		c-1.05-1.12-2.17-2.193-3.36-3.22s-2.31-2.065-3.36-3.115c-1.05-1.05-1.914-2.101-2.59-3.15c-0.677-1.05-1.015-2.135-1.015-3.255
		c0-1.68,0.536-2.975,1.61-3.885c1.073-0.91,2.8-1.365,5.18-1.365c0.373,0,0.758,0.012,1.155,0.035
		c0.396,0.024,0.781,0.059,1.155,0.105c0.373,0.047,0.746,0.07,1.12,0.07v-1.82c-0.327,0-0.677-0.023-1.05-0.07
		c-0.327-0.046-0.689-0.081-1.085-0.105c-0.397-0.023-0.805-0.035-1.225-0.035c-2.52,0-4.597,0.572-6.23,1.715
		c-1.634,1.144-2.45,2.929-2.45,5.355c0,1.307,0.338,2.532,1.015,3.675c0.676,1.145,1.54,2.265,2.59,3.36
		c1.05,1.097,2.17,2.159,3.36,3.185c1.19,1.027,2.31,2.065,3.36,3.115s1.913,2.135,2.59,3.255c0.676,1.12,1.015,2.287,1.015,3.5
		c0,2.24-0.759,3.944-2.275,5.11c-1.517,1.167-3.605,1.75-6.265,1.75c-1.587,0-3.034-0.116-4.34-0.35
		c-0.7-0.094-1.377-0.21-2.03-0.351V48.992z"/>
</g>
<text transform="matrix(1 0 0 1 235.1216 55.082)" font-family="'Phosphate-Inline'" font-size="70"> </text>
<g enable-background="new    ">
	<path fill="#F5A280" d="M265.432,8.392h11.2l17.71,46.69h-14.7l-1.54-4.2h-14.14l-1.54,4.2h-14.7L265.432,8.392z M258.151,49.482
		l1.33-3.5h23.1l1.33,3.5h1.96l-13.51-35.49h-2.66l-13.51,35.49H258.151z M271.032,15.672l10.92,28.63h-21.84L271.032,15.672z
		 M274.182,40.592l-3.15-8.189l-3.15,8.189H274.182z"/>
</g>
<g enable-background="new    ">
	<path fill="#77A9C1" d="M295.391,8.392h15.54v34.44h12.88v12.25h-28.42V8.392z M319.891,49.482v-1.681h-15.68v-33.81h-1.82v35.49
		H319.891z"/>
</g>
<g enable-background="new    ">
	<path fill="#F3CD86" d="M326.261,8.392h15.54v34.44h12.88v12.25h-28.42V8.392z M350.761,49.482v-1.681h-15.68v-33.81h-1.82v35.49
		H350.761z"/>
</g>
<text transform="matrix(1 0 0 1 354.6797 55.082)" font-family="'Phosphate-Inline'" font-size="70"> </text>
<g enable-background="new    ">
	<path fill="#97C8D6" d="M384.99,8.392h11.199l17.711,46.69h-14.701l-1.539-4.2H383.52l-1.54,4.2h-14.7L384.99,8.392z
		 M377.709,49.482l1.33-3.5h23.101l1.33,3.5h1.96l-13.51-35.49h-2.66l-13.51,35.49H377.709z M390.59,15.672l10.92,28.63h-21.84
		L390.59,15.672z M393.74,40.592l-3.15-8.189l-3.15,8.189H393.74z"/>
</g>
<g enable-background="new    ">
	<path fill="#F5A280" d="M414.949,8.392h18.27c2.333,0,4.469,0.269,6.405,0.805c1.937,0.537,3.593,1.33,4.97,2.38
		c1.376,1.05,2.45,2.357,3.221,3.92c0.77,1.564,1.154,3.395,1.154,5.495c0,1.494-0.187,2.765-0.56,3.814
		c-0.374,1.051-0.771,1.926-1.19,2.625c-0.514,0.841-1.097,1.54-1.75,2.101c1.026,0.654,1.961,1.494,2.801,2.52
		c0.699,0.888,1.34,2.007,1.924,3.36s0.875,3.01,0.875,4.97c0,2.24-0.396,4.271-1.189,6.09c-0.794,1.82-1.925,3.372-3.395,4.655
		c-1.471,1.284-3.268,2.264-5.391,2.94c-2.124,0.677-4.492,1.015-7.104,1.015h-19.04V8.392z M432.029,49.482
		c4.105,0,7.14-0.887,9.1-2.66s2.939-4.13,2.939-7.07c0-1.913-0.408-3.44-1.225-4.585c-0.816-1.143-1.691-2.041-2.625-2.695
		c-1.167-0.745-2.449-1.26-3.85-1.54c1.12-0.325,2.123-0.84,3.01-1.54c0.793-0.605,1.505-1.435,2.135-2.484
		c0.631-1.05,0.945-2.392,0.945-4.025c0-2.94-0.934-5.156-2.8-6.65c-1.867-1.493-4.41-2.24-7.63-2.24h-10.08v35.49H432.029z
		 M423.77,30.092v-14.42h8.26c3.033,0,5.215,0.665,6.545,1.995s1.994,3.069,1.994,5.215c0,2.147-0.664,3.885-1.994,5.215
		s-3.512,1.995-6.545,1.995H423.77z M423.77,47.802V31.772h8.189c1.445,0,2.788,0.151,4.025,0.454c1.235,0.305,2.32,0.771,3.255,1.4
		c0.933,0.63,1.668,1.459,2.204,2.485c0.537,1.026,0.806,2.239,0.806,3.64c0,2.847-0.944,4.9-2.835,6.16s-4.375,1.89-7.455,1.89
		H423.77z M434.549,22.602c0-2.146-1.167-3.22-3.5-3.22h-1.68v6.44h1.68C433.382,25.822,434.549,24.749,434.549,22.602z
		 M431.049,44.092c3.546,0,5.32-1.353,5.32-4.06c0-2.706-1.774-4.061-5.32-4.061h-1.68v8.12H431.049z"/>
</g>
<g enable-background="new    ">
	<path fill="#77A9C1" d="M453.168,31.772c0-3.36,0.642-6.533,1.926-9.521c1.283-2.986,3.033-5.588,5.25-7.805
		c2.216-2.216,4.818-3.966,7.805-5.25c2.986-1.283,6.16-1.925,9.52-1.925c3.36,0,6.533,0.642,9.521,1.925
		c2.985,1.284,5.588,3.034,7.806,5.25c2.215,2.217,3.965,4.819,5.25,7.805c1.282,2.987,1.924,6.16,1.924,9.521
		c0,3.359-0.642,6.533-1.924,9.52c-1.285,2.987-3.035,5.589-5.25,7.805c-2.218,2.218-4.82,3.968-7.806,5.25
		c-2.987,1.283-6.16,1.926-9.521,1.926c-3.359,0-6.533-0.643-9.52-1.926c-2.986-1.282-5.589-3.032-7.805-5.25
		c-2.217-2.216-3.967-4.817-5.25-7.805C453.81,38.306,453.168,35.132,453.168,31.772z M459.748,31.772
		c0,2.474,0.467,4.795,1.4,6.965s2.216,4.071,3.85,5.705c1.633,1.634,3.535,2.917,5.705,3.85c2.17,0.935,4.491,1.4,6.965,1.4
		s4.795-0.466,6.966-1.4c2.17-0.933,4.071-2.216,5.704-3.85c1.634-1.634,2.916-3.535,3.851-5.705
		c0.933-2.17,1.399-4.491,1.399-6.965s-0.467-4.796-1.399-6.966c-0.935-2.169-2.217-4.07-3.851-5.705
		c-1.633-1.633-3.534-2.916-5.704-3.85c-2.171-0.933-4.492-1.4-6.966-1.4s-4.795,0.467-6.965,1.4
		c-2.17,0.934-4.072,2.217-5.705,3.85c-1.634,1.634-2.916,3.535-3.85,5.705C460.215,26.977,459.748,29.299,459.748,31.772z
		 M477.668,47.872c-2.239,0-4.328-0.42-6.265-1.26s-3.64-1.995-5.11-3.465c-1.469-1.471-2.625-3.174-3.465-5.11
		c-0.84-1.936-1.26-4.025-1.26-6.265c0-2.24,0.42-4.328,1.26-6.266c0.84-1.936,1.996-3.64,3.465-5.11
		c1.471-1.47,3.174-2.625,5.11-3.465c1.937-0.84,4.025-1.26,6.265-1.26c2.24,0,4.328,0.42,6.266,1.26
		c1.936,0.84,3.641,1.995,5.109,3.465c1.471,1.47,2.625,3.174,3.466,5.11c0.84,1.938,1.26,4.025,1.26,6.266
		c0,2.239-0.42,4.329-1.26,6.265c-0.841,1.937-1.995,3.64-3.466,5.11c-1.469,1.47-3.174,2.625-5.109,3.465
		C481.996,47.452,479.908,47.872,477.668,47.872z M467.869,31.772c0,1.354,0.256,2.625,0.77,3.814c0.513,1.19,1.213,2.229,2.1,3.115
		c0.887,0.887,1.926,1.587,3.115,2.1c1.189,0.515,2.461,0.771,3.814,0.771s2.625-0.256,3.815-0.771
		c1.19-0.513,2.228-1.213,3.115-2.1c0.886-0.886,1.586-1.925,2.101-3.115c0.512-1.189,0.77-2.461,0.77-3.814
		s-0.258-2.625-0.77-3.815c-0.515-1.19-1.215-2.228-2.101-3.115c-0.888-0.886-1.925-1.586-3.115-2.1
		c-1.19-0.513-2.462-0.77-3.815-0.77s-2.625,0.257-3.814,0.77c-1.189,0.514-2.229,1.214-3.115,2.1
		c-0.887,0.888-1.587,1.925-2.1,3.115C468.125,29.147,467.869,30.419,467.869,31.772z"/>
</g>
<g enable-background="new    ">
	<path fill="#F7CE87" d="M525.129,56.272c-2.939,0-5.6-0.374-7.98-1.12c-2.379-0.746-4.41-1.866-6.09-3.36
		c-1.68-1.493-2.975-3.383-3.885-5.67c-0.91-2.286-1.365-4.97-1.365-8.05V8.392h14.91v29.05c0,1.634,0.338,2.882,1.016,3.745
		c0.676,0.863,1.808,1.295,3.395,1.295c1.586,0,2.718-0.432,3.395-1.295c0.676-0.863,1.016-2.111,1.016-3.745V8.392h14.98v29.68
		c0,3.08-0.455,5.764-1.365,8.05c-0.91,2.287-2.217,4.177-3.92,5.67c-1.705,1.494-3.746,2.614-6.125,3.36
		C530.729,55.898,528.068,56.272,525.129,56.272z M525.129,47.872c-7,0-10.5-3.43-10.5-10.29v-23.59h-1.82v23.59
		c0,3.92,1.061,6.919,3.186,8.995c2.123,2.077,5.168,3.115,9.135,3.115c3.966,0,7.023-1.038,9.17-3.115
		c2.146-2.076,3.221-5.075,3.221-8.995v-23.59h-1.891v23.59C535.629,44.442,532.129,47.872,525.129,47.872z"/>
</g>
<g enable-background="new    ">
	<path fill="#97C8D6" d="M555.367,20.642h-8.61V8.392h32.62v12.25h-8.61v34.44h-15.399V20.642z M563.977,49.482V15.672h10.01v-1.68
		h-21.84v1.68h10.01v33.811H563.977z"/>
</g>
<text transform="matrix(1 0 0 1 579.376 55.082)" font-family="'Phosphate-Inline'" font-size="70"> </text>
<g enable-background="new    ">
	<path fill="#77A9C1" d="M595.826,8.392h12.32l12.18,17.92l12.109-17.92h12.32v46.69h-14.91v-16.8l-9.52,14l-9.59-14v16.8h-14.91
		V8.392z M604.646,49.482v-32.13l15.68,22.82l15.609-22.82v32.13h1.82v-35.49h-1.82l-15.609,23.03l-15.68-23.03h-1.82v35.49H604.646
		z"/>
</g>
<g>
	<path fill="#F7CE87" d="M649.656,8.392h27.51v12.25h-12.6v5.18h12.39v11.62h-12.39v5.39h13.09v12.25h-28V8.392z M672.477,49.482
		v-1.681h-14v-15.33h13.299v-1.68h-13.299v-15.12h14v-1.68h-15.82v35.49H672.477z"/>
</g>
</svg>
