<?xml version="1.0" encoding="utf-8"?>
<!-- Generator: Adobe Illustrator 16.0.0, SVG Export Plug-In . SVG Version: 6.00 Build 0)  -->
<!DOCTYPE svg PUBLIC "-//W3C//DTD SVG 1.1//EN" "http://www.w3.org/Graphics/SVG/1.1/DTD/svg11.dtd">
<svg version="1.1" id="Layer_1" xmlns="http://www.w3.org/2000/svg" xmlns:xlink="http://www.w3.org/1999/xlink" x="0px" y="0px"
	 width="720px" height="65px" viewBox="0 0 720 65" enable-background="new 0 0 720 65" xml:space="preserve">
<g>
	<path fill="#F7CE87" d="M159.769,27.09c0,3.22-0.56,5.963-1.68,8.225c-1.12,2.265-2.649,4.096-4.585,5.496
		c-1.937,1.399-4.2,2.426-6.79,3.08c-2.59,0.653-5.379,0.979-8.365,0.979V56h-14.91V9.31h14.91c2.986,0,5.775,0.327,8.365,0.98
		c2.59,0.654,4.853,1.68,6.79,3.08c1.936,1.4,3.465,3.232,4.585,5.495C159.209,21.129,159.769,23.87,159.769,27.09z M152.979,27.09
		c0-2.1-0.362-3.92-1.085-5.46c-0.724-1.54-1.739-2.8-3.045-3.78c-1.307-0.98-2.859-1.715-4.655-2.205
		c-1.797-0.49-3.745-0.735-5.845-0.735h-7.91V50.4h1.82V39.27h6.09c2.1,0,4.048-0.244,5.845-0.734
		c1.796-0.49,3.348-1.225,4.655-2.205c1.306-0.98,2.321-2.24,3.045-3.78C152.617,31.01,152.979,29.19,152.979,27.09z M151.019,27.09
		c0,2.007-0.35,3.687-1.05,5.04c-0.7,1.354-1.634,2.427-2.8,3.22c-1.167,0.795-2.509,1.365-4.025,1.715
		c-1.517,0.351-3.115,0.525-4.795,0.525h-6.09v-21h6.09c1.68,0,3.278,0.175,4.795,0.525c1.516,0.35,2.858,0.922,4.025,1.715
		c1.166,0.794,2.1,1.867,2.8,3.22C150.669,23.404,151.019,25.084,151.019,27.09z M138.349,32.27h0.63
		c1.96,0,3.371-0.455,4.235-1.365c0.863-0.91,1.295-2.181,1.295-3.815c0-1.633-0.432-2.905-1.295-3.815
		c-0.864-0.91-2.275-1.365-4.235-1.365h-0.63V32.27z"/>
	<path fill="#97CBD6" d="M163.268,9.31h14.91V25.2h8.33V9.31h14.98V56h-14.98V38.71h-8.33V56h-14.91V9.31z M172.088,50.4V32.69
		h20.58V50.4h1.82V14.91h-1.82v16.1h-20.58v-16.1h-1.82V50.4H172.088z"/>
	<path fill="#F6A482" d="M205.337,32.69c0-3.36,0.641-6.533,1.925-9.52c1.283-2.986,3.033-5.588,5.25-7.805
		c2.216-2.216,4.818-3.966,7.805-5.25c2.986-1.283,6.16-1.925,9.521-1.925c3.359,0,6.531,0.642,9.52,1.925
		c2.986,1.284,5.588,3.034,7.805,5.25c2.217,2.217,3.967,4.819,5.25,7.805c1.283,2.987,1.926,6.16,1.926,9.52
		s-0.643,6.535-1.926,9.52c-1.283,2.987-3.033,5.589-5.25,7.806s-4.818,3.967-7.805,5.25c-2.988,1.282-6.16,1.924-9.52,1.924
		c-3.361,0-6.535-0.642-9.521-1.924c-2.987-1.283-5.589-3.033-7.805-5.25c-2.217-2.217-3.967-4.818-5.25-7.806
		C205.979,39.225,205.337,36.05,205.337,32.69z M211.917,32.69c0,2.474,0.466,4.794,1.4,6.964c0.933,2.171,2.216,4.072,3.85,5.705
		c1.633,1.635,3.535,2.918,5.705,3.851c2.171,0.935,4.491,1.399,6.966,1.399c2.473,0,4.795-0.465,6.965-1.399
		c2.17-0.933,4.07-2.216,5.705-3.851c1.633-1.633,2.916-3.534,3.85-5.705c0.932-2.17,1.4-4.49,1.4-6.964
		c0-2.473-0.469-4.795-1.4-6.965c-0.934-2.17-2.217-4.071-3.85-5.705c-1.635-1.633-3.535-2.916-5.705-3.85
		c-2.17-0.933-4.492-1.4-6.965-1.4c-2.475,0-4.795,0.467-6.966,1.4c-2.17,0.934-4.072,2.217-5.705,3.85
		c-1.634,1.634-2.917,3.535-3.85,5.705C212.383,27.895,211.917,30.217,211.917,32.69z M229.838,48.79c-2.24,0-4.33-0.42-6.266-1.261
		c-1.937-0.84-3.64-1.994-5.11-3.465c-1.47-1.469-2.625-3.172-3.465-5.109c-0.84-1.936-1.26-4.025-1.26-6.265s0.42-4.328,1.26-6.265
		c0.84-1.936,1.995-3.64,3.465-5.11c1.47-1.47,3.173-2.625,5.11-3.465c1.936-0.84,4.026-1.26,6.266-1.26
		c2.238,0,4.326,0.42,6.264,1.26c1.936,0.84,3.641,1.995,5.111,3.465c1.469,1.47,2.625,3.174,3.465,5.11
		c0.84,1.937,1.26,4.025,1.26,6.265s-0.42,4.33-1.26,6.265c-0.84,1.938-1.996,3.641-3.465,5.109
		c-1.471,1.471-3.176,2.625-5.111,3.465C234.165,48.37,232.077,48.79,229.838,48.79z M220.038,32.69c0,1.354,0.256,2.625,0.77,3.815
		c0.513,1.19,1.213,2.229,2.1,3.115c0.886,0.887,1.925,1.587,3.114,2.101c1.191,0.514,2.461,0.77,3.816,0.77
		c1.352,0,2.625-0.256,3.814-0.77s2.229-1.214,3.115-2.101c0.885-0.886,1.586-1.925,2.1-3.115s0.77-2.461,0.77-3.815
		c0-1.353-0.256-2.625-0.77-3.815s-1.215-2.228-2.1-3.115c-0.887-0.886-1.926-1.586-3.115-2.1c-1.189-0.513-2.463-0.77-3.814-0.77
		c-1.355,0-2.625,0.257-3.816,0.77c-1.189,0.514-2.229,1.214-3.114,2.1c-0.887,0.887-1.587,1.925-2.1,3.115
		C220.293,30.065,220.038,31.337,220.038,32.69z"/>
	<path fill="#77A9C1" d="M264.347,21.56h-8.61V9.31h32.62v12.25h-8.61V56h-15.399V21.56z M272.957,50.4V16.59h10.011v-1.68h-21.841
		v1.68h10.011V50.4H272.957z"/>
	<path fill="#F7CE87" d="M289.756,32.69c0-3.36,0.641-6.533,1.925-9.52c1.283-2.986,3.033-5.588,5.25-7.805
		c2.216-2.216,4.817-3.966,7.805-5.25c2.986-1.283,6.16-1.925,9.521-1.925c3.359,0,6.532,0.642,9.52,1.925
		c2.986,1.284,5.588,3.034,7.805,5.25c2.217,2.217,3.967,4.819,5.25,7.805c1.283,2.987,1.926,6.16,1.926,9.52
		s-0.643,6.535-1.926,9.52c-1.283,2.987-3.033,5.589-5.25,7.806s-4.818,3.967-7.805,5.25c-2.987,1.282-6.16,1.924-9.52,1.924
		c-3.36,0-6.534-0.642-9.521-1.924c-2.987-1.283-5.589-3.033-7.805-5.25c-2.217-2.217-3.967-4.818-5.25-7.806
		C290.397,39.225,289.756,36.05,289.756,32.69z M296.336,32.69c0,2.474,0.466,4.794,1.399,6.964
		c0.933,2.171,2.216,4.072,3.851,5.705c1.633,1.635,3.534,2.918,5.704,3.851c2.171,0.935,4.491,1.399,6.966,1.399
		c2.473,0,4.795-0.465,6.965-1.399c2.17-0.933,4.07-2.216,5.705-3.851c1.633-1.633,2.916-3.534,3.85-5.705
		c0.933-2.17,1.4-4.49,1.4-6.964c0-2.473-0.468-4.795-1.4-6.965c-0.934-2.17-2.217-4.071-3.85-5.705
		c-1.635-1.633-3.535-2.916-5.705-3.85c-2.17-0.933-4.492-1.4-6.965-1.4c-2.475,0-4.795,0.467-6.966,1.4
		c-2.17,0.934-4.071,2.217-5.704,3.85c-1.635,1.634-2.918,3.535-3.851,5.705C296.802,27.895,296.336,30.217,296.336,32.69z
		 M314.256,48.79c-2.24,0-4.329-0.42-6.266-1.261c-1.937-0.84-3.64-1.994-5.109-3.465c-1.471-1.469-2.625-3.172-3.466-5.109
		c-0.84-1.936-1.26-4.025-1.26-6.265s0.42-4.328,1.26-6.265c0.841-1.936,1.995-3.64,3.466-5.11c1.47-1.47,3.173-2.625,5.109-3.465
		c1.937-0.84,4.025-1.26,6.266-1.26c2.239,0,4.327,0.42,6.265,1.26c1.936,0.84,3.64,1.995,5.11,3.465
		c1.47,1.47,2.625,3.174,3.465,5.11c0.84,1.937,1.26,4.025,1.26,6.265s-0.42,4.33-1.26,6.265c-0.84,1.938-1.995,3.641-3.465,5.109
		c-1.471,1.471-3.175,2.625-5.11,3.465C318.583,48.37,316.496,48.79,314.256,48.79z M304.456,32.69c0,1.354,0.256,2.625,0.771,3.815
		c0.513,1.19,1.213,2.229,2.1,3.115c0.886,0.887,1.925,1.587,3.115,2.101s2.461,0.77,3.815,0.77c1.353,0,2.625-0.256,3.814-0.77
		c1.19-0.514,2.229-1.214,3.115-2.101c0.886-0.886,1.586-1.925,2.1-3.115s0.771-2.461,0.771-3.815c0-1.353-0.257-2.625-0.771-3.815
		s-1.214-2.228-2.1-3.115c-0.887-0.886-1.925-1.586-3.115-2.1c-1.189-0.513-2.462-0.77-3.814-0.77c-1.354,0-2.625,0.257-3.815,0.77
		c-1.19,0.514-2.229,1.214-3.115,2.1c-0.887,0.887-1.587,1.925-2.1,3.115C304.711,30.065,304.456,31.337,304.456,32.69z"/>
	<path fill="#97CBD6" d="M372.355,25.2c-0.84-0.746-1.891-1.318-3.15-1.715c-1.26-0.396-2.496-0.595-3.709-0.595
		c-1.354,0-2.59,0.245-3.711,0.735c-1.119,0.49-2.088,1.167-2.905,2.03c-0.816,0.864-1.459,1.902-1.925,3.115
		c-0.467,1.214-0.7,2.52-0.7,3.92s0.256,2.707,0.771,3.919c0.513,1.215,1.213,2.252,2.1,3.115c0.886,0.864,1.925,1.541,3.115,2.03
		c1.191,0.49,2.461,0.735,3.816,0.735c1.586,0,3.031-0.338,4.34-1.016c1.305-0.676,2.426-1.598,3.359-2.765h-4.199v-9.8h17.988
		v15.54c-1.072,1.914-2.355,3.651-3.85,5.215s-3.162,2.905-5.004,4.024c-1.844,1.121-3.84,1.984-5.986,2.59
		c-2.146,0.606-4.363,0.91-6.648,0.91c-3.361,0-6.535-0.629-9.521-1.89c-2.987-1.26-5.589-2.985-7.805-5.18
		c-2.217-2.192-3.967-4.783-5.25-7.771c-1.284-2.985-1.925-6.205-1.925-9.66c0-3.36,0.605-6.533,1.819-9.52
		c1.213-2.986,2.881-5.588,5.005-7.805c2.123-2.216,4.644-3.966,7.561-5.25c2.916-1.283,6.055-1.925,9.415-1.925
		c2.613,0,4.877,0.257,6.791,0.77c1.912,0.514,3.521,1.097,4.83,1.75c1.539,0.747,2.822,1.564,3.85,2.45L372.355,25.2z
		 M373.057,16.17c-0.607-0.28-1.285-0.513-2.031-0.7c-0.654-0.186-1.424-0.35-2.311-0.49s-1.865-0.21-2.939-0.21
		c-2.475,0-4.783,0.444-6.929,1.33c-2.147,0.887-4.015,2.112-5.601,3.675c-1.587,1.564-2.835,3.442-3.745,5.635
		c-0.91,2.194-1.364,4.62-1.364,7.28c0,2.66,0.466,5.087,1.399,7.281c0.933,2.193,2.216,4.071,3.851,5.635
		c1.633,1.563,3.534,2.789,5.704,3.674c2.171,0.888,4.492,1.33,6.966,1.33c3.219,0,6.135-0.758,8.75-2.274
		c2.611-1.517,4.734-3.535,6.369-6.056v-9.17h-7.42v1.681h5.6v7c-1.447,2.147-3.324,3.851-5.635,5.11s-4.865,1.89-7.664,1.89
		c-2.24,0-4.33-0.386-6.266-1.155c-1.937-0.77-3.64-1.865-5.109-3.289c-1.471-1.424-2.625-3.127-3.466-5.111
		c-0.84-1.982-1.26-4.164-1.26-6.544c0-2.38,0.408-4.561,1.226-6.545c0.815-1.983,1.936-3.686,3.359-5.11
		c1.423-1.423,3.091-2.52,5.005-3.29c1.914-0.77,3.99-1.155,6.23-1.155c0.84,0,1.633,0.07,2.381,0.21
		c0.746,0.14,1.4,0.28,1.959,0.42c0.654,0.187,1.26,0.374,1.82,0.56L373.057,16.17z"/>
	<path fill="#F6A482" d="M391.395,9.31h16.1c2.986,0,5.752,0.397,8.295,1.19c2.543,0.794,4.748,1.96,6.615,3.5
		s3.326,3.442,4.375,5.705c1.051,2.264,1.576,4.865,1.576,7.805c0,2.334-0.328,4.317-0.98,5.95c-0.654,1.634-1.377,2.987-2.17,4.06
		c-0.934,1.215-1.984,2.24-3.15,3.08l8.75,15.4h-17.5l-7-11.83V56h-14.91V9.31z M405.955,39.76c1.82,0,3.592-0.186,5.32-0.56
		l6.65,11.2h2.17l-7-11.76c2.52-0.887,4.525-2.252,6.02-4.096c1.492-1.843,2.24-4.235,2.24-7.175c0-2.053-0.398-3.85-1.191-5.39
		s-1.879-2.835-3.254-3.885c-1.377-1.05-3-1.843-4.865-2.38c-1.867-0.536-3.896-0.805-6.09-0.805h-7.561V50.4h1.82V39.76H405.955z
		 M400.215,38.08V16.59h5.74c4.246,0,7.57,0.934,9.975,2.8c2.402,1.867,3.605,4.527,3.605,7.98c0,3.454-1.203,6.103-3.605,7.944
		c-2.404,1.845-5.729,2.766-9.975,2.766H400.215z M406.305,32.27h0.77c1.773,0,3.279-0.396,4.516-1.19
		c1.236-0.793,1.855-2.123,1.855-3.99c0-1.866-0.619-3.196-1.855-3.99c-1.236-0.793-2.742-1.19-4.516-1.19h-0.77V32.27z"/>
	<path fill="#77A9C1" d="M446.064,9.31h11.199L474.975,56h-14.701l-1.539-4.2h-14.141l-1.539,4.2h-14.701L446.064,9.31z
		 M438.785,50.4l1.33-3.5h23.1l1.33,3.5h1.959l-13.51-35.49h-2.66l-13.51,35.49H438.785z M451.664,16.59l10.92,28.631h-21.84
		L451.664,16.59z M454.814,41.51l-3.15-8.189l-3.15,8.189H454.814z"/>
	<path fill="#F7CE87" d="M512.354,27.09c0,3.22-0.561,5.963-1.68,8.225c-1.119,2.265-2.648,4.096-4.586,5.496
		c-1.936,1.399-4.199,2.426-6.789,3.08c-2.59,0.653-5.379,0.979-8.365,0.979V56h-14.91V9.31h14.91c2.986,0,5.775,0.327,8.365,0.98
		c2.59,0.654,4.854,1.68,6.789,3.08c1.938,1.4,3.467,3.232,4.586,5.495C511.793,21.129,512.354,23.87,512.354,27.09z M505.564,27.09
		c0-2.1-0.363-3.92-1.086-5.46c-0.725-1.54-1.738-2.8-3.045-3.78s-2.859-1.715-4.654-2.205c-1.797-0.49-3.746-0.735-5.846-0.735
		h-7.91V50.4h1.82V39.27h6.09c2.1,0,4.049-0.244,5.846-0.734c1.795-0.49,3.348-1.225,4.654-2.205s2.32-2.24,3.045-3.78
		C505.201,31.01,505.564,29.19,505.564,27.09z M503.604,27.09c0,2.007-0.35,3.687-1.049,5.04c-0.701,1.354-1.635,2.427-2.801,3.22
		c-1.168,0.795-2.51,1.365-4.025,1.715c-1.518,0.351-3.115,0.525-4.795,0.525h-6.09v-21h6.09c1.68,0,3.277,0.175,4.795,0.525
		c1.516,0.35,2.857,0.922,4.025,1.715c1.166,0.794,2.1,1.867,2.801,3.22C503.254,23.404,503.604,25.084,503.604,27.09z
		 M490.934,32.27h0.631c1.959,0,3.371-0.455,4.234-1.365c0.863-0.91,1.295-2.181,1.295-3.815c0-1.633-0.432-2.905-1.295-3.815
		c-0.863-0.91-2.275-1.365-4.234-1.365h-0.631V32.27z"/>
	<path fill="#97CBD6" d="M515.854,9.31h14.91V25.2h8.33V9.31h14.979V56h-14.979V38.71h-8.33V56h-14.91V9.31z M524.672,50.4V32.69
		h20.58V50.4h1.82V14.91h-1.82v16.1h-20.58v-16.1h-1.818V50.4H524.672z"/>
	<path fill="#F6A482" d="M569.611,35.91l-14.49-26.6h16.592l5.389,9.87l5.32-9.87h16.59l-14.49,26.6V56h-14.91V35.91z M578.012,50.4
		V33.67l10.221-18.76h-2.17l-8.961,16.59l-9.029-16.59h-2.1l10.148,18.76V50.4H578.012z"/>
</g>
</svg>
