<?xml version="1.0" encoding="utf-8"?>
<!-- Generator: Adobe Illustrator 16.0.0, SVG Export Plug-In . SVG Version: 6.00 Build 0)  -->
<!DOCTYPE svg PUBLIC "-//W3C//DTD SVG 1.1//EN" "http://www.w3.org/Graphics/SVG/1.1/DTD/svg11.dtd">
<svg version="1.1" id="Layer_1" xmlns="http://www.w3.org/2000/svg" xmlns:xlink="http://www.w3.org/1999/xlink" x="0px" y="0px"
	 width="720px" height="65px" viewBox="0 0 720 65" enable-background="new 0 0 720 65" xml:space="preserve">
<g>
	<path fill="#F5A280" d="M609.338,124.545h-8.611v-12.25h32.621v12.25h-8.608v34.439h-15.4L609.338,124.545L609.338,124.545z
		 M617.947,153.385v-33.811h10.01v-1.68h-21.84v1.68h10.01v33.811H617.947z"/>
	<path fill="#77A9C1" d="M634.537,144.495c1.025,0.327,2.1,0.585,3.219,0.771c0.935,0.234,1.996,0.422,3.187,0.562
		c1.188,0.141,2.393,0.21,3.604,0.21c2.146,0,3.219-0.793,3.219-2.38c0-0.605-0.326-1.228-0.979-1.854
		c-0.654-0.631-1.482-1.33-2.484-2.102c-1.004-0.771-2.078-1.62-3.221-2.555c-1.146-0.935-2.217-2.006-3.221-3.222
		c-1.005-1.213-1.832-2.577-2.484-4.095c-0.654-1.516-0.979-3.255-0.979-5.215c0-2.192,0.396-4.131,1.189-5.811
		c0.793-1.68,1.889-3.08,3.289-4.199c1.4-1.121,3.045-1.973,4.936-2.557c1.892-0.582,3.908-0.875,6.056-0.875
		c1.121,0,2.239,0.061,3.358,0.176c1.121,0.117,2.123,0.223,3.013,0.314c1.024,0.141,2.028,0.279,3.01,0.42v13.09
		c-0.373-0.045-0.795-0.092-1.26-0.14c-0.375-0.046-0.795-0.093-1.263-0.14c-0.467-0.047-0.957-0.07-1.469-0.07
		c-0.281,0-0.631,0.012-1.051,0.035c-0.42,0.022-0.816,0.082-1.189,0.175c-0.375,0.095-0.698,0.257-0.979,0.489
		c-0.281,0.233-0.422,0.561-0.422,0.979c0,0.375,0.313,0.84,0.944,1.399c0.631,0.561,1.4,1.215,2.312,1.961
		c0.91,0.746,1.912,1.609,3.01,2.59c1.096,0.98,2.102,2.102,3.01,3.359c0.91,1.261,1.683,2.687,2.312,4.271
		c0.629,1.586,0.942,3.357,0.942,5.318c0,2.055-0.325,3.979-0.979,5.772c-0.654,1.8-1.67,3.361-3.045,4.69
		c-1.377,1.33-3.142,2.38-5.285,3.15c-2.146,0.771-4.689,1.154-7.631,1.154c-1.773,0-3.418-0.082-4.937-0.246
		c-1.518-0.164-2.856-0.361-4.022-0.594c-1.355-0.234-2.592-0.516-3.711-0.842v-13.999l0,0V144.495z M640.416,152.896
		c0.652,0.14,1.354,0.256,2.1,0.35c0.654,0.095,1.343,0.175,2.066,0.245c0.723,0.069,1.457,0.104,2.205,0.104
		c1.305,0,2.576-0.15,3.812-0.455c1.236-0.303,2.347-0.805,3.326-1.506c0.979-0.699,1.763-1.599,2.347-2.693
		c0.581-1.098,0.875-2.438,0.875-4.024c0-1.354-0.341-2.638-1.017-3.851c-0.678-1.213-1.541-2.381-2.59-3.5
		c-1.051-1.121-2.17-2.193-3.361-3.221c-1.188-1.025-2.309-2.064-3.358-3.115s-1.914-2.1-2.591-3.149
		c-0.678-1.05-1.016-2.136-1.016-3.255c0-1.68,0.537-2.977,1.611-3.885c1.071-0.91,2.799-1.365,5.18-1.365
		c0.373,0,0.758,0.013,1.154,0.035c0.396,0.023,0.78,0.06,1.153,0.104c0.373,0.047,0.746,0.07,1.119,0.07v-1.82
		c-0.326,0-0.676-0.021-1.049-0.068c-0.328-0.047-0.688-0.082-1.086-0.105c-0.396-0.021-0.805-0.034-1.225-0.034
		c-2.521,0-4.599,0.571-6.23,1.716c-1.632,1.144-2.449,2.928-2.449,5.354c0,1.308,0.339,2.531,1.017,3.675
		c0.676,1.146,1.541,2.265,2.59,3.36c1.051,1.097,2.17,2.158,3.359,3.185c1.188,1.027,2.311,2.065,3.358,3.115
		c1.051,1.051,1.914,2.135,2.59,3.256c0.679,1.119,1.019,2.286,1.019,3.5c0,2.239-0.76,3.942-2.275,5.108
		c-1.518,1.168-3.604,1.75-6.266,1.75c-1.588,0-3.033-0.115-4.34-0.35c-0.699-0.095-1.377-0.211-2.029-0.352L640.416,152.896
		L640.416,152.896z"/>
</g>
<g enable-background="new    ">
	<path fill="#F7CE87" d="M198.863,9.392h18.27c2.333,0,4.468,0.27,6.405,0.806c1.936,0.537,3.593,1.33,4.97,2.38
		c1.375,1.05,2.45,2.356,3.22,3.92c0.77,1.564,1.155,3.395,1.155,5.495c0,1.494-0.187,2.765-0.56,3.814
		c-0.374,1.051-0.77,1.926-1.19,2.625c-0.514,0.841-1.097,1.54-1.75,2.101c1.026,0.654,1.96,1.494,2.8,2.52
		c0.7,0.888,1.341,2.007,1.925,3.36c0.583,1.354,0.875,3.01,0.875,4.97c0,2.24-0.397,4.271-1.19,6.09
		c-0.794,1.82-1.925,3.372-3.395,4.655c-1.47,1.284-3.267,2.264-5.39,2.94c-2.125,0.677-4.492,1.015-7.105,1.015h-19.04V9.392z
		 M215.942,50.482c4.106,0,7.14-0.887,9.1-2.66s2.94-4.13,2.94-7.07c0-1.913-0.409-3.44-1.225-4.585
		c-0.817-1.143-1.692-2.041-2.625-2.695c-1.167-0.745-2.45-1.26-3.85-1.54c1.12-0.325,2.123-0.84,3.01-1.54
		c0.793-0.605,1.505-1.435,2.135-2.484c0.63-1.05,0.945-2.392,0.945-4.025c0-2.939-0.934-5.155-2.8-6.649
		c-1.867-1.493-4.41-2.24-7.63-2.24h-10.08v35.49H215.942z M207.683,31.092v-14.42h8.26c3.033,0,5.215,0.665,6.545,1.995
		c1.33,1.33,1.995,3.069,1.995,5.215c0,2.147-0.665,3.885-1.995,5.215c-1.33,1.33-3.512,1.995-6.545,1.995H207.683z M207.683,48.802
		V32.772h8.19c1.446,0,2.788,0.151,4.025,0.454c1.236,0.305,2.321,0.771,3.255,1.4c0.933,0.63,1.668,1.459,2.205,2.485
		c0.536,1.026,0.805,2.239,0.805,3.64c0,2.847-0.945,4.9-2.835,6.16s-4.375,1.89-7.455,1.89H207.683z M218.462,23.602
		c0-2.146-1.167-3.22-3.5-3.22h-1.68v6.44h1.68C217.295,26.822,218.462,25.749,218.462,23.602z M214.962,45.092
		c3.546,0,5.32-1.353,5.32-4.06c0-2.706-1.774-4.061-5.32-4.061h-1.68v8.12H214.962z"/>
</g>
<g enable-background="new    ">
	<path fill="#97CBD6" d="M238.132,9.392h16.1c2.986,0,5.751,0.397,8.295,1.19c2.543,0.794,4.748,1.96,6.615,3.5
		c1.866,1.54,3.325,3.442,4.375,5.705c1.05,2.264,1.575,4.865,1.575,7.805c0,2.334-0.327,4.317-0.98,5.95
		c-0.654,1.634-1.377,2.987-2.17,4.06c-0.934,1.215-1.984,2.24-3.15,3.08l8.75,15.4h-17.5l-7-11.83v11.83h-14.91V9.392z
		 M252.691,39.842c1.82,0,3.593-0.186,5.32-0.56l6.65,11.2h2.17l-7-11.761c2.52-0.886,4.526-2.251,6.02-4.095
		c1.493-1.843,2.24-4.235,2.24-7.175c0-2.053-0.397-3.851-1.19-5.39c-0.794-1.54-1.879-2.836-3.255-3.886
		c-1.377-1.05-2.999-1.843-4.865-2.38c-1.867-0.536-3.897-0.805-6.09-0.805h-7.56v35.49h1.82V39.842H252.691z M246.952,38.162
		v-21.49h5.74c4.246,0,7.571,0.935,9.975,2.8c2.403,1.867,3.605,4.527,3.605,7.98c0,3.454-1.202,6.102-3.605,7.945
		c-2.404,1.844-5.729,2.765-9.975,2.765H246.952z M253.042,32.352h0.77c1.773,0,3.278-0.396,4.515-1.189
		c1.236-0.793,1.855-2.123,1.855-3.99c0-1.866-0.619-3.195-1.855-3.99c-1.237-0.793-2.742-1.189-4.515-1.189h-0.77V32.352z"/>
</g>
<path fill="#F6A482" d="M292.802,9.392h11.2l17.71,46.69h-14.7l-1.54-4.2h-14.14l-1.54,4.2h-14.7L292.802,9.392z M285.521,50.482
	l1.33-3.5h23.1l1.33,3.5h1.96l-13.51-35.49h-2.66l-13.51,35.49H285.521z M298.402,16.672l10.92,28.63h-21.84L298.402,16.672z
	 M301.552,41.592l-3.15-8.189l-3.15,8.189H301.552z"/>
<g enable-background="new    ">
	<path fill="#77A9C1" d="M322.761,9.392h12.25l12.88,17.99V9.392h14.63v46.69h-12.32l-12.81-17.92v17.92h-14.63V9.392z
		 M331.09,50.482V18.142l23.1,32.341h1.82v-35.49h-1.82v32.34l-23.1-32.34h-1.82v35.49H331.09z"/>
</g>
<g enable-background="new    ">
	<path fill="#F7CE87" d="M367.42,56.082V9.392h12.949c4.387,0,8.295,0.49,11.726,1.471c3.431,0.979,6.323,2.45,8.681,4.41
		c2.355,1.96,4.152,4.398,5.389,7.314c1.236,2.917,1.855,6.289,1.855,10.115c0,3.827-0.619,7.199-1.855,10.115
		c-1.236,2.917-3.033,5.354-5.389,7.314c-2.357,1.96-5.25,3.442-8.681,4.445c-3.431,1.004-7.339,1.505-11.726,1.505H367.42z
		 M374.42,50.482h5.949c6.813,0,11.959-1.552,15.436-4.655s5.215-7.479,5.215-13.125s-1.738-10.01-5.215-13.09
		s-8.622-4.62-15.436-4.62h-5.949V50.482z M376.24,48.802v-32.13h4.129c5.927,0,10.535,1.342,13.826,4.025
		c3.289,2.684,4.935,6.685,4.935,12.005s-1.646,9.334-4.935,12.04c-3.291,2.707-7.899,4.06-13.826,4.06H376.24z M382.33,42.782
		c3.5,0,6.205-0.828,8.119-2.485c1.914-1.656,2.871-4.188,2.871-7.595c0-3.406-0.957-5.926-2.871-7.561
		c-1.914-1.633-4.619-2.449-8.119-2.449V42.782z"/>
</g>
<g enable-background="new    ">
	<path fill="#97C8D6" d="M411.869,9.392h15.82v46.69h-15.82V9.392z M420.689,50.482v-35.49h-1.82v35.49H420.689z"/>
</g>
<g enable-background="new    ">
	<path fill="#F6A482" d="M432.589,9.392h12.25l12.88,17.99V9.392h14.63v46.69h-12.319l-12.811-17.92v17.92h-14.63V9.392z
		 M440.918,50.482V18.142l23.101,32.341h1.82v-35.49h-1.82v32.34l-23.101-32.34h-1.819v35.49H440.918z"/>
</g>
<g enable-background="new    ">
	<path fill="#77A9C1" d="M506.996,25.282c-0.84-0.746-1.89-1.318-3.15-1.715c-1.26-0.396-2.496-0.596-3.709-0.596
		c-1.354,0-2.59,0.245-3.711,0.735c-1.119,0.49-2.088,1.167-2.904,2.03c-0.816,0.864-1.459,1.901-1.926,3.114
		c-0.467,1.215-0.699,2.521-0.699,3.921c0,1.399,0.256,2.707,0.77,3.92c0.514,1.214,1.213,2.252,2.101,3.114
		c0.886,0.864,1.925,1.54,3.114,2.03c1.19,0.49,2.461,0.735,3.815,0.735c1.586,0,3.033-0.338,4.341-1.016
		c1.305-0.676,2.426-1.598,3.359-2.765h-4.2v-9.8h17.99v15.54c-1.074,1.914-2.356,3.651-3.851,5.215
		c-1.494,1.564-3.162,2.905-5.004,4.025c-1.845,1.119-3.84,1.983-5.986,2.59c-2.146,0.605-4.363,0.91-6.649,0.91
		c-3.36,0-6.534-0.631-9.521-1.891s-5.588-2.985-7.805-5.18c-2.217-2.193-3.967-4.783-5.25-7.771
		c-1.283-2.985-1.925-6.205-1.925-9.659c0-3.36,0.606-6.533,1.82-9.521c1.213-2.986,2.881-5.588,5.005-7.805
		c2.123-2.216,4.643-3.966,7.561-5.25c2.916-1.283,6.055-1.925,9.414-1.925c2.613,0,4.877,0.257,6.791,0.77
		c1.912,0.514,3.522,1.097,4.829,1.75c1.54,0.747,2.823,1.564,3.851,2.45L506.996,25.282z M507.696,16.252
		c-0.606-0.28-1.284-0.513-2.03-0.7c-0.654-0.186-1.424-0.35-2.31-0.489c-0.888-0.141-1.867-0.211-2.94-0.211
		c-2.474,0-4.783,0.444-6.93,1.33c-2.146,0.888-4.014,2.112-5.6,3.676c-1.588,1.563-2.836,3.441-3.745,5.635
		c-0.91,2.194-1.365,4.62-1.365,7.28c0,2.659,0.466,5.087,1.399,7.279c0.934,2.194,2.217,4.072,3.851,5.636
		c1.633,1.563,3.535,2.789,5.705,3.675c2.17,0.887,4.491,1.33,6.965,1.33c3.22,0,6.136-0.759,8.75-2.275
		c2.613-1.516,4.735-3.535,6.37-6.055v-9.17h-7.42v1.68h5.6v7c-1.447,2.147-3.324,3.85-5.635,5.11
		c-2.311,1.26-4.865,1.89-7.665,1.89c-2.239,0-4.329-0.385-6.265-1.155c-1.938-0.77-3.641-1.865-5.11-3.29
		c-1.47-1.423-2.625-3.126-3.465-5.109s-1.261-4.165-1.261-6.545c0-2.381,0.408-4.562,1.226-6.546
		c0.815-1.982,1.937-3.686,3.36-5.109c1.423-1.423,3.091-2.521,5.005-3.29c1.913-0.771,3.989-1.155,6.229-1.155
		c0.84,0,1.633,0.07,2.381,0.21c0.746,0.141,1.399,0.28,1.959,0.42c0.653,0.188,1.261,0.374,1.82,0.561L507.696,16.252z"/>
</g>
</svg>
