<?xml version="1.0" encoding="utf-8"?>
<!-- Generator: Adobe Illustrator 16.0.0, SVG Export Plug-In . SVG Version: 6.00 Build 0)  -->
<!DOCTYPE svg PUBLIC "-//W3C//DTD SVG 1.1//EN" "http://www.w3.org/Graphics/SVG/1.1/DTD/svg11.dtd">
<svg version="1.1" id="Layer_1" xmlns="http://www.w3.org/2000/svg" xmlns:xlink="http://www.w3.org/1999/xlink" x="0px" y="0px"
	 width="300px" height="135px" viewBox="0 0 300 135" enable-background="new 0 0 300 135" xml:space="preserve">
<g display="none">
	<path display="inline" d="M62.663,21.079h6v57.2h-6V52.68H28.662v25.599h-6v-57.2h6V46.68h34.001V21.079z"/>
	<path display="inline" d="M104.742,21.079l25.121,57.2h-6.48l-7.76-17.679H89.302l-7.76,17.679h-6.48l25.121-57.2H104.742z
		 M112.982,54.68l-10.48-23.92l-10.56,23.92H112.982z"/>
	<path display="inline" d="M208.502,21.079h6.32l-23.041,57.2h-4.48l-23.359-57.2h6.32l19.279,47.041L208.502,21.079z"/>
	<path display="inline" d="M277.941,49.56c0,15.68-12.721,28.401-28.32,28.401c-15.68,0-28.4-12.721-28.4-28.401
		s12.721-28.4,28.4-28.4C265.221,21.159,277.941,33.879,277.941,49.56z M272.102,49.56c0-12.4-10.08-22.48-22.479-22.48
		s-22.479,10.08-22.479,22.48s10.08,22.561,22.479,22.561S272.102,61.96,272.102,49.56z"/>
</g>
<g display="none">
	<path display="inline" d="M56.864,97.41h12.222v1.874H58.738v6.124h7.673v1.874h-7.673v7.997h-1.875L56.864,97.41L56.864,97.41z"/>
	<path display="inline" d="M82.336,113.432v1.85H70.514V97.41h1.875v16.021H82.336z"/>
	<path display="inline" d="M99.584,106.309c0,4.897-3.974,8.871-8.848,8.871c-4.899,0-8.873-3.974-8.873-8.871
		c0-4.899,3.974-8.873,8.873-8.873C95.61,97.436,99.584,101.408,99.584,106.309z M97.759,106.309c0-3.875-3.149-7.023-7.023-7.023
		c-3.875,0-7.023,3.148-7.023,7.023c0,3.873,3.149,7.047,7.023,7.047S97.759,110.182,97.759,106.309z"/>
	<path display="inline" d="M121.408,97.41l-4.849,17.869h-1.5l-4.149-13.846l-3.999,13.846h-1.5l-5.049-17.869h1.924l3.874,13.771
		l3.974-13.771h1.5l4.124,13.771l3.75-13.771H121.408z"/>
	<path display="inline" d="M123.413,97.41h11.772v1.874h-9.897v6.124h7.223v1.874h-7.223v6.124h9.897v1.873h-11.772V97.41z"/>
	<path display="inline" d="M141.312,107.282l9.023,7.997h-2.774l-8.498-7.572v7.572h-1.875V97.41h7.073
		c2.699,0,4.899,2.225,4.899,4.924c0,2.725-2.2,4.948-4.899,4.948H141.312z M139.062,105.408h5.199c1.675,0,3.049-1.375,3.049-3.074
		c0-1.676-1.375-3.05-3.049-3.05h-5.199V105.408z"/>
	<path display="inline" d="M175.609,106.332c0,4.949-4,8.947-8.924,8.947h-5.697V97.41h5.697
		C171.609,97.41,175.609,101.408,175.609,106.332z M173.76,106.332c0-3.898-3.174-7.072-7.072-7.072h-3.824v14.172h3.824
		C170.586,113.432,173.76,110.256,173.76,106.332z"/>
	<path display="inline" d="M177.613,97.41h11.771v1.874h-9.897v6.124h7.225v1.874h-7.225v6.124h9.897v1.873h-11.771V97.41z"/>
	<path display="inline" d="M204.459,110.355c0,2.726-2.6,4.924-5.773,4.924h-1.523c-3.176,0-5.773-2.198-5.773-4.924
		c0-0.023,0-0.049,0-0.101l0.024-0.698h1.95l-0.024,0.799c-0.051,1.676,1.726,3.051,3.823,3.051h1.523
		c2.101,0,3.824-1.375,3.824-3.051c0-1.699-1.725-3.073-3.824-3.073h-0.049c-0.051,0-0.15,0-0.25,0h-0.4
		c-1.024-0.05-2.399-0.175-3.148-0.625c-1.975-1.149-2.925-2.55-2.925-4.323c0-2.699,2.601-4.924,5.772-4.924h0.451
		c3.074,0,5.623,2.049,5.773,4.674l0.049,0.75h-1.949l-0.05-0.676c-0.125-1.625-1.8-2.874-3.823-2.874h-0.451
		c-2.1,0-3.799,1.374-3.799,3.05c0,1.648,1.6,3.023,3.6,3.074h0.125h0.051h0.75v0.023c0.85,0.024,1.273,0.051,1.3,0.075h0.074
		C202.51,105.832,204.459,107.982,204.459,110.355z"/>
	<path display="inline" d="M210.661,99.284v14.146h3.05v1.85h-7.975v-1.85h3.051V99.284h-3.051V97.41h7.975v1.874H210.661z"/>
	<path display="inline" d="M222.436,107.133h9.123l-0.101,0.975c-0.476,4.248-4.499,7.174-8.772,7.174
		c-4.949,0-8.947-3.975-8.947-8.924c0-4.924,3.998-8.946,8.947-8.946c4.123,0,7.697,2.849,8.672,6.821h-1.924
		c-0.925-2.924-3.648-4.973-6.748-4.973c-3.924,0-7.099,3.199-7.099,7.098c0,3.925,3.175,7.099,7.099,7.099
		c2.924,0,5.498-1.772,6.572-4.448h-6.822V107.133z"/>
	<path display="inline" d="M246.26,97.41h1.874v17.869h-1.499l-11.197-14.32v14.32h-1.875V97.41h1.5l11.197,14.32V97.41z"/>
</g>
<g>
	<path d="M15.476,63.74V39.746h21.621c1.24,0,2.302,0.442,3.186,1.326s1.326,1.941,1.326,3.171v3.047
		c0,1.641-0.693,2.905-2.08,3.794c0.566,0.01,1.055,0.22,1.465,0.63s0.615,0.903,0.615,1.479v6.021c0,1.25-0.444,2.317-1.333,3.201
		s-1.953,1.326-3.193,1.326H15.476z M30.3,46.894c0-0.479-0.173-0.891-0.52-1.238s-0.759-0.52-1.238-0.52h-1.758v3.735h1.758
		c0.479,0,0.891-0.168,1.238-0.505s0.52-0.754,0.52-1.252V46.894z M28.542,58.349c0.479,0,0.891-0.171,1.238-0.513
		s0.52-0.757,0.52-1.245V56.02c0-0.479-0.173-0.891-0.52-1.238s-0.759-0.52-1.238-0.52h-1.758v4.087H28.542z"/>
	<path d="M54.529,39.746v16.846c0,0.488,0.171,0.903,0.513,1.245s0.757,0.513,1.245,0.513c0.479,0,0.891-0.171,1.238-0.513
		s0.52-0.757,0.52-1.245V39.746h11.294v19.468c0,1.25-0.444,2.317-1.333,3.201s-1.953,1.326-3.193,1.326H47.747
		c-1.25,0-2.317-0.442-3.201-1.326s-1.326-1.951-1.326-3.201V39.746H54.529z"/>
	<path d="M92.556,39.746c1.24,0,2.305,0.444,3.193,1.333s1.333,1.953,1.333,3.193v5.801c0,1.641-0.688,2.91-2.065,3.809
		c1.055,0.703,1.685,1.709,1.89,3.018c0.117,0.781,0.222,1.572,0.315,2.373s0.198,1.592,0.315,2.373
		c0,0.928,0.425,1.572,1.274,1.934l-0.044,0.161H88.323c-0.586,0-1.082-0.205-1.487-0.615s-0.608-0.908-0.608-1.494l-0.439-5.273
		c0-0.469-0.176-0.876-0.527-1.223s-0.767-0.525-1.245-0.535h-1.758v9.141H70.95V39.746H92.556z M84.016,45.136h-1.758v4.087h1.758
		c0.479,0,0.894-0.171,1.245-0.513s0.527-0.757,0.527-1.245v-0.571c0-0.479-0.176-0.891-0.527-1.238S84.495,45.136,84.016,45.136z"
		/>
	<path d="M111.731,39.746v18.604h11.865v5.391h-23.174V39.746H111.731z"/>
	<path d="M125.208,39.746h11.309V63.74h-11.309V39.746z"/>
	<path d="M155.428,39.746h11.293V63.74h-11.293l-5.992-11.997V63.74h-11.309V39.746h11.309l5.992,11.997V39.746z"/>
	<path d="M172.859,39.746h17.08c1.24,0,2.305,0.444,3.193,1.333s1.332,1.953,1.332,3.193v3.677h-11.309v-1.055
		c0-0.479-0.173-0.891-0.52-1.238s-0.76-0.52-1.238-0.52c-0.488,0-0.902,0.173-1.244,0.52s-0.514,0.759-0.514,1.238v9.697
		c0,0.488,0.172,0.903,0.514,1.245s0.756,0.513,1.244,0.513c0.479,0,0.892-0.171,1.238-0.513s0.52-0.757,0.52-1.245v-1.055h-1.758
		v-3.794h13.066v7.471c0,1.25-0.443,2.317-1.332,3.201s-1.953,1.326-3.193,1.326h-17.08c-1.25,0-2.317-0.442-3.201-1.326
		s-1.326-1.951-1.326-3.201V44.272c0-1.24,0.442-2.305,1.326-3.193S171.609,39.746,172.859,39.746z"/>
	<path d="M213.318,45.136V63.74h-11.295V45.136h-5.947v-5.391h23.174v5.391H213.318z"/>
	<path d="M225.389,39.746h17.08c1.24,0,2.305,0.444,3.193,1.333s1.332,1.953,1.332,3.193v14.941c0,1.25-0.443,2.317-1.332,3.201
		s-1.953,1.326-3.193,1.326h-17.08c-1.25,0-2.317-0.442-3.201-1.326s-1.326-1.951-1.326-3.201V44.272
		c0-1.24,0.442-2.305,1.326-3.193S224.139,39.746,225.389,39.746z M233.928,45.136c-0.488,0-0.902,0.173-1.244,0.52
		s-0.514,0.759-0.514,1.238v9.697c0,0.488,0.172,0.903,0.514,1.245s0.756,0.513,1.244,0.513c0.479,0,0.892-0.171,1.238-0.513
		s0.52-0.757,0.52-1.245v-9.697c0-0.479-0.173-0.891-0.52-1.238S234.406,45.136,233.928,45.136z"/>
	<path d="M265.906,39.746H277.2V63.74h-11.294l-5.991-11.997V63.74h-11.309V39.746h11.309l5.991,11.997V39.746z"/>
	<path d="M56.975,99.74V75.746h21.621c1.24,0,2.302,0.441,3.186,1.326c0.884,0.883,1.326,1.94,1.326,3.171v3.047
		c0,1.641-0.693,2.905-2.08,3.794c0.566,0.01,1.055,0.22,1.465,0.63s0.615,0.903,0.615,1.479v6.021c0,1.25-0.444,2.317-1.333,3.2
		c-0.889,0.885-1.953,1.326-3.193,1.326H56.975z M71.799,82.895c0-0.479-0.173-0.891-0.52-1.238c-0.347-0.346-0.759-0.52-1.238-0.52
		h-1.758v3.735h1.758c0.479,0,0.891-0.169,1.238-0.505c0.347-0.338,0.52-0.755,0.52-1.253V82.895z M70.042,94.35
		c0.479,0,0.891-0.171,1.238-0.513s0.52-0.757,0.52-1.245v-0.571c0-0.479-0.173-0.892-0.52-1.237
		c-0.347-0.348-0.759-0.521-1.238-0.521h-1.758v4.087H70.042z"/>
	<path d="M89.246,75.746h17.08c1.24,0,2.305,0.444,3.193,1.333s1.333,1.953,1.333,3.193v14.941c0,1.25-0.444,2.317-1.333,3.2
		c-0.889,0.885-1.953,1.326-3.193,1.326h-17.08c-1.25,0-2.317-0.441-3.201-1.326c-0.884-0.883-1.326-1.95-1.326-3.2V80.272
		c0-1.24,0.442-2.305,1.326-3.193S87.996,75.746,89.246,75.746z M97.786,81.137c-0.488,0-0.903,0.174-1.245,0.52
		c-0.342,0.348-0.513,0.76-0.513,1.238v9.697c0,0.488,0.171,0.903,0.513,1.245s0.757,0.513,1.245,0.513
		c0.479,0,0.891-0.171,1.238-0.513s0.52-0.757,0.52-1.245v-9.697c0-0.479-0.173-0.891-0.52-1.238
		C98.677,81.311,98.264,81.137,97.786,81.137z"/>
	<path d="M112.463,99.74V75.746h21.621c1.24,0,2.302,0.441,3.186,1.326c0.884,0.883,1.326,1.94,1.326,3.171v3.047
		c0,1.641-0.693,2.905-2.08,3.794c0.566,0.01,1.055,0.22,1.465,0.63s0.615,0.903,0.615,1.479v6.021c0,1.25-0.444,2.317-1.333,3.2
		c-0.889,0.885-1.953,1.326-3.193,1.326H112.463z M127.288,82.895c0-0.479-0.173-0.891-0.52-1.238
		c-0.347-0.346-0.759-0.52-1.238-0.52h-1.758v3.735h1.758c0.479,0,0.891-0.169,1.238-0.505c0.347-0.338,0.52-0.755,0.52-1.253
		V82.895z M125.53,94.35c0.479,0,0.891-0.171,1.238-0.513s0.52-0.757,0.52-1.245v-0.571c0-0.479-0.173-0.892-0.52-1.237
		c-0.347-0.348-0.759-0.521-1.238-0.521h-1.758v4.087H125.53z"/>
	<path d="M144.734,75.746h17.081c1.24,0,2.305,0.444,3.193,1.333s1.332,1.953,1.332,3.193v3.677h-11.309v-1.055
		c0-0.479-0.173-0.891-0.52-1.238c-0.347-0.346-0.76-0.52-1.238-0.52c-0.488,0-0.902,0.174-1.244,0.52
		c-0.342,0.348-0.514,0.76-0.514,1.238v9.697c0,0.488,0.172,0.903,0.514,1.245s0.756,0.513,1.244,0.513
		c0.479,0,0.892-0.171,1.238-0.513s0.52-0.757,0.52-1.245v-1.055h11.309v3.677c0,1.25-0.443,2.317-1.332,3.2
		c-0.889,0.885-1.953,1.326-3.193,1.326h-17.081c-1.25,0-2.317-0.441-3.201-1.326c-0.884-0.883-1.326-1.95-1.326-3.2V80.272
		c0-1.24,0.442-2.305,1.326-3.193S143.484,75.746,144.734,75.746z"/>
	<path d="M176.623,75.746h10.049l8.658,23.994h-11.295l-0.98-2.695h-7.295l-0.895,2.695h-6.914L176.623,75.746z M181.121,91.654
		l-1.861-5.112l-1.699,5.112H181.121z"/>
	<path d="M209.348,81.137V99.74h-11.293V81.137h-5.947v-5.391h23.174v5.391H209.348z"/>
	<path d="M221.418,75.746h17.08c1.24,0,2.305,0.444,3.193,1.333s1.334,1.953,1.334,3.193v3.677H231.73v-1.055
		c0-0.479-0.173-0.891-0.52-1.238c-0.347-0.346-0.76-0.52-1.238-0.52c-0.498,0-0.918,0.174-1.26,0.52
		c-0.342,0.348-0.512,0.76-0.512,1.238v0.776c0,0.469,0.234,0.762,0.703,0.879l11.791,2.666c1.553,0.352,2.33,1.328,2.33,2.93v5.068
		c0,1.25-0.445,2.317-1.334,3.2c-0.889,0.885-1.953,1.326-3.193,1.326h-17.08c-1.25,0-2.316-0.441-3.2-1.326
		c-0.884-0.883-1.325-1.95-1.325-3.2v-3.677h11.309v1.055c0,0.488,0.17,0.903,0.512,1.245s0.762,0.513,1.26,0.513
		c0.479,0,0.892-0.171,1.238-0.513s0.52-0.757,0.52-1.245V91.83c0-0.479-0.234-0.771-0.703-0.879l-11.791-2.681
		c-1.562-0.342-2.344-1.318-2.344-2.93v-5.068c0-1.24,0.441-2.305,1.325-3.193S220.168,75.746,221.418,75.746z"/>
</g>
</svg>
