<?xml version="1.0" encoding="utf-8"?>
<!-- Generator: Adobe Illustrator 16.0.0, SVG Export Plug-In . SVG Version: 6.00 Build 0)  -->
<!DOCTYPE svg PUBLIC "-//W3C//DTD SVG 1.1//EN" "http://www.w3.org/Graphics/SVG/1.1/DTD/svg11.dtd">
<svg version="1.1" id="Layer_1" xmlns="http://www.w3.org/2000/svg" xmlns:xlink="http://www.w3.org/1999/xlink" x="0px" y="0px"
	 width="300px" height="135px" viewBox="0 0 300 135" enable-background="new 0 0 300 135" xml:space="preserve">
<g display="none">
	<path display="inline" d="M62.663,21.079h6v57.2h-6V52.68H28.662v25.599h-6v-57.2h6V46.68h34.001V21.079z"/>
	<path display="inline" d="M104.742,21.079l25.121,57.2h-6.48l-7.76-17.679H89.302l-7.76,17.679h-6.48l25.121-57.2H104.742z
		 M112.982,54.68l-10.48-23.92l-10.56,23.92H112.982z"/>
	<path display="inline" d="M208.502,21.079h6.32l-23.041,57.2h-4.48l-23.359-57.2h6.32l19.279,47.041L208.502,21.079z"/>
	<path display="inline" d="M277.941,49.56c0,15.68-12.721,28.401-28.32,28.401c-15.68,0-28.4-12.721-28.4-28.401
		s12.721-28.4,28.4-28.4C265.221,21.159,277.941,33.879,277.941,49.56z M272.102,49.56c0-12.4-10.08-22.48-22.479-22.48
		s-22.479,10.08-22.479,22.48s10.08,22.561,22.479,22.561S272.102,61.96,272.102,49.56z"/>
</g>
<g display="none">
	<path display="inline" d="M56.864,97.41h12.222v1.874H58.738v6.124h7.673v1.874h-7.673v7.997h-1.875L56.864,97.41L56.864,97.41z"/>
	<path display="inline" d="M82.336,113.432v1.85H70.514V97.41h1.875v16.021H82.336z"/>
	<path display="inline" d="M99.584,106.309c0,4.897-3.974,8.871-8.848,8.871c-4.899,0-8.873-3.974-8.873-8.871
		c0-4.899,3.974-8.873,8.873-8.873C95.61,97.436,99.584,101.408,99.584,106.309z M97.759,106.309c0-3.875-3.149-7.023-7.023-7.023
		c-3.875,0-7.023,3.148-7.023,7.023c0,3.873,3.149,7.047,7.023,7.047S97.759,110.182,97.759,106.309z"/>
	<path display="inline" d="M121.408,97.41l-4.849,17.869h-1.5l-4.149-13.846l-3.999,13.846h-1.5l-5.049-17.869h1.924l3.874,13.771
		l3.974-13.771h1.5l4.124,13.771l3.75-13.771H121.408z"/>
	<path display="inline" d="M123.413,97.41h11.772v1.874h-9.897v6.124h7.223v1.874h-7.223v6.124h9.897v1.873h-11.772V97.41z"/>
	<path display="inline" d="M141.312,107.282l9.023,7.997h-2.774l-8.498-7.572v7.572h-1.875V97.41h7.073
		c2.699,0,4.899,2.225,4.899,4.924c0,2.725-2.2,4.948-4.899,4.948H141.312z M139.062,105.408h5.199c1.675,0,3.049-1.375,3.049-3.074
		c0-1.676-1.375-3.05-3.049-3.05h-5.199V105.408z"/>
	<path display="inline" d="M175.609,106.332c0,4.949-4,8.947-8.924,8.947h-5.697V97.41h5.697
		C171.609,97.41,175.609,101.408,175.609,106.332z M173.76,106.332c0-3.898-3.174-7.072-7.072-7.072h-3.824v14.172h3.824
		C170.586,113.432,173.76,110.256,173.76,106.332z"/>
	<path display="inline" d="M177.613,97.41h11.771v1.874h-9.897v6.124h7.225v1.874h-7.225v6.124h9.897v1.873h-11.771V97.41z"/>
	<path display="inline" d="M204.459,110.355c0,2.726-2.6,4.924-5.773,4.924h-1.523c-3.176,0-5.773-2.198-5.773-4.924
		c0-0.023,0-0.049,0-0.101l0.024-0.698h1.95l-0.024,0.799c-0.051,1.676,1.726,3.051,3.823,3.051h1.523
		c2.101,0,3.824-1.375,3.824-3.051c0-1.699-1.725-3.073-3.824-3.073h-0.049c-0.051,0-0.15,0-0.25,0h-0.4
		c-1.024-0.05-2.399-0.175-3.148-0.625c-1.975-1.149-2.925-2.55-2.925-4.323c0-2.699,2.601-4.924,5.772-4.924h0.451
		c3.074,0,5.623,2.049,5.773,4.674l0.049,0.75h-1.949l-0.05-0.676c-0.125-1.625-1.8-2.874-3.823-2.874h-0.451
		c-2.1,0-3.799,1.374-3.799,3.05c0,1.648,1.6,3.023,3.6,3.074h0.125h0.051h0.75v0.023c0.85,0.024,1.273,0.051,1.3,0.075h0.074
		C202.51,105.832,204.459,107.982,204.459,110.355z"/>
	<path display="inline" d="M210.661,99.284v14.146h3.05v1.85h-7.975v-1.85h3.051V99.284h-3.051V97.41h7.975v1.874H210.661z"/>
	<path display="inline" d="M222.436,107.133h9.123l-0.101,0.975c-0.476,4.248-4.499,7.174-8.772,7.174
		c-4.949,0-8.947-3.975-8.947-8.924c0-4.924,3.998-8.946,8.947-8.946c4.123,0,7.697,2.849,8.672,6.821h-1.924
		c-0.925-2.924-3.648-4.973-6.748-4.973c-3.924,0-7.099,3.199-7.099,7.098c0,3.925,3.175,7.099,7.099,7.099
		c2.924,0,5.498-1.772,6.572-4.448h-6.822V107.133z"/>
	<path display="inline" d="M246.26,97.41h1.874v17.869h-1.499l-11.197-14.32v14.32h-1.875V97.41h1.5l11.197,14.32V97.41z"/>
</g>
<g>
	<path d="M59.602,52.399L88.482,78h-8.88L52.401,53.759V78h-6V20.799h22.641c8.64,0,15.68,7.12,15.68,15.76
		c0,8.72-7.04,15.84-15.68,15.84H59.602z M52.401,46.399h16.641c5.36,0,9.76-4.4,9.76-9.84c0-5.36-4.4-9.76-9.76-9.76H52.401V46.399
		z"/>
	<path d="M145.282,49.279c0,15.68-12.72,28.4-28.32,28.4c-15.681,0-28.401-12.72-28.401-28.4s12.72-28.4,28.401-28.4
		C132.562,20.879,145.282,33.599,145.282,49.279z M139.442,49.279c0-12.4-10.081-22.48-22.48-22.48
		c-12.4,0-22.481,10.08-22.481,22.48s10.081,22.561,22.481,22.561C129.361,71.84,139.442,61.68,139.442,49.279z"/>
	<path d="M195.761,78h-8.4l-27.04-27.041l-2.641,2.72V78h-6V20.799h6v24.4l24.4-24.4h8.4l-25.92,26L195.761,78z"/>
	<path d="M241.28,20.799h5.92V55.52c0,12.4-10.08,22.48-22.48,22.48c-11.681,0-21.28-8.881-22.48-20.24h-0.08v-2.24V20.799h6v34.96
		c0,9.041,7.521,16.321,16.561,16.321c8.96,0,16.561-7.28,16.561-16.241v-0.32V20.799z"/>
</g>
<g>
	<path d="M36.898,110.357c0,2.725-2.6,4.924-5.774,4.924H29.6c-3.174,0-5.773-2.199-5.773-4.924c0-0.025,0-0.05,0-0.1l0.025-0.7
		h1.949l-0.025,0.8c-0.05,1.675,1.725,3.049,3.824,3.049h1.524c2.1,0,3.824-1.374,3.824-3.049c0-1.699-1.725-3.074-3.824-3.074
		h-0.05c-0.05,0-0.149,0-0.25,0h-0.399c-1.025-0.05-2.399-0.175-3.149-0.625c-1.975-1.149-2.925-2.549-2.925-4.324
		c0-2.699,2.6-4.924,5.774-4.924h0.449c3.074,0,5.624,2.05,5.773,4.674l0.051,0.75h-1.95l-0.05-0.674
		c-0.125-1.625-1.8-2.875-3.824-2.875h-0.449c-2.1,0-3.8,1.375-3.8,3.049c0,1.65,1.6,3.025,3.6,3.074h0.125h0.05h0.75v0.025
		c0.85,0.025,1.274,0.05,1.3,0.075h0.075C34.948,105.834,36.898,107.982,36.898,110.357z"/>
	<path d="M37.676,97.41h13.347v1.875h-5.749v15.996h-1.849V99.285h-5.749V97.41z"/>
	<path d="M57.15,107.283l9.022,7.998h-2.774l-8.497-7.573v7.573h-1.875V97.41H60.1c2.699,0,4.898,2.225,4.898,4.924
		c0,2.725-2.199,4.949-4.898,4.949H57.15z M54.901,105.408H60.1c1.675,0,3.049-1.374,3.049-3.074c0-1.674-1.374-3.049-3.049-3.049
		h-5.198V105.408z"/>
	<path d="M68.176,97.41h11.772v1.875h-9.897v6.123h7.223v1.875h-7.223v6.123h9.897v1.875H68.176V97.41z"/>
	<path d="M91.224,97.41l7.849,17.871h-2.024l-2.425-5.523H86.4l-2.425,5.523h-2.024l7.848-17.871H91.224z M93.798,107.908
		l-3.273-7.473l-3.3,7.473H93.798z"/>
	<path d="M118.271,97.41v17.871h-1.874v-12.896l-6.073,12.896h-1.375l-5.998-12.872v12.872h-1.875V97.41h1.6l6.974,14.922
		l6.998-14.922H118.271z"/>
	<path d="M125.199,99.285v14.146h3.049v1.85h-7.973v-1.85h3.049V99.285h-3.049V97.41h7.973v1.875H125.199z"/>
	<path d="M142.947,97.41h1.874v17.871h-1.499l-11.197-14.321v14.321h-1.875V97.41h1.5l11.197,14.322V97.41z"/>
	<path d="M155.523,107.133h9.122l-0.1,0.975c-0.475,4.25-4.499,7.174-8.772,7.174c-4.949,0-8.948-3.975-8.948-8.923
		c0-4.924,3.999-8.948,8.948-8.948c4.124,0,7.697,2.85,8.673,6.824h-1.925c-0.925-2.925-3.649-4.975-6.748-4.975
		c-3.925,0-7.099,3.199-7.099,7.099c0,3.924,3.174,7.099,7.099,7.099c2.924,0,5.498-1.775,6.573-4.449h-6.823V107.133z"/>
	<path d="M188.372,110.357c0,2.725-2.6,4.924-5.774,4.924h-1.524c-3.174,0-5.773-2.199-5.773-4.924c0-0.025,0-0.05,0-0.1l0.025-0.7
		h1.949l-0.025,0.8c-0.05,1.675,1.725,3.049,3.824,3.049h1.524c2.1,0,3.824-1.374,3.824-3.049c0-1.699-1.725-3.074-3.824-3.074
		h-0.05c-0.05,0-0.149,0-0.25,0h-0.399c-1.025-0.05-2.399-0.175-3.149-0.625c-1.975-1.149-2.925-2.549-2.925-4.324
		c0-2.699,2.6-4.924,5.774-4.924h0.449c3.074,0,5.624,2.05,5.773,4.674l0.051,0.75h-1.95l-0.05-0.674
		c-0.125-1.625-1.8-2.875-3.824-2.875h-0.449c-2.1,0-3.8,1.375-3.8,3.049c0,1.65,1.6,3.025,3.6,3.074h0.125h0.05h0.75v0.025
		c0.85,0.025,1.274,0.05,1.3,0.075h0.074C186.422,105.834,188.372,107.982,188.372,110.357z"/>
	<path d="M190.375,97.41h11.772v1.875h-9.897v6.123h7.223v1.875h-7.223v6.123h9.897v1.875h-11.772V97.41z"/>
	<path d="M208.273,107.283l9.022,7.998h-2.774l-8.497-7.573v7.573h-1.875V97.41h7.073c2.699,0,4.898,2.225,4.898,4.924
		c0,2.725-2.199,4.949-4.898,4.949H208.273z M206.024,105.408h5.198c1.675,0,3.049-1.374,3.049-3.074
		c0-1.674-1.374-3.049-3.049-3.049h-5.198V105.408z"/>
	<path d="M230.746,97.41h1.975l-7.198,17.871h-1.4l-7.298-17.871h1.975l6.023,14.697L230.746,97.41z"/>
	<path d="M239.647,99.285v14.146h3.049v1.85h-7.973v-1.85h3.049V99.285h-3.049V97.41h7.973v1.875H239.647z"/>
	<path d="M260.319,108.607c-1,3.924-4.549,6.699-8.647,6.699c-4.924,0-8.948-4-8.948-8.948c0-4.924,4.024-8.948,8.948-8.948
		c4.174,0,7.772,2.9,8.723,6.924h-1.925c-0.899-2.975-3.649-5.074-6.798-5.074c-3.925,0-7.099,3.199-7.099,7.099
		c0,3.924,3.199,7.123,7.099,7.123c3.074,0,5.773-1.999,6.723-4.874H260.319z"/>
	<path d="M262.398,97.41h11.772v1.875h-9.897v6.123h7.223v1.875h-7.223v6.123h9.897v1.875h-11.772V97.41z"/>
</g>
</svg>
