<?xml version="1.0" encoding="utf-8"?>
<!-- Generator: Adobe Illustrator 16.0.0, SVG Export Plug-In . SVG Version: 6.00 Build 0)  -->
<!DOCTYPE svg PUBLIC "-//W3C//DTD SVG 1.1//EN" "http://www.w3.org/Graphics/SVG/1.1/DTD/svg11.dtd">
<svg version="1.1" id="Layer_1" xmlns="http://www.w3.org/2000/svg" xmlns:xlink="http://www.w3.org/1999/xlink" x="0px" y="0px"
	 width="720px" height="65px" viewBox="0 0 720 65" enable-background="new 0 0 720 65" xml:space="preserve">
<g>
	<path fill="#F7CE87" d="M278.171,9.392l7.91,20.301l7.98-20.301h16.31l-18.2,46.69h-12.11l-18.2-46.69H278.171z M286.851,50.482
		l13.86-35.49h-1.96l-12.67,32.27l-12.6-32.27h-1.96l13.86,35.49H286.851z"/>
	<path fill="#97CBD6" d="M311.421,9.392h15.82v46.69h-15.82V9.392z M320.241,50.482v-35.49h-1.82v35.49H320.241z"/>
	<path fill="#F6A482" d="M332.141,56.082V9.392h12.95c4.386,0,8.295,0.49,11.725,1.471c3.43,0.979,6.323,2.45,8.681,4.41
		c2.355,1.96,4.152,4.398,5.389,7.314c1.236,2.917,1.855,6.289,1.855,10.115c0,3.827-0.619,7.199-1.855,10.115
		c-1.236,2.917-3.033,5.354-5.389,7.314c-2.357,1.96-5.25,3.442-8.681,4.445c-3.43,1.004-7.339,1.505-11.725,1.505H332.141z
		 M339.141,50.482h5.95c6.813,0,11.958-1.552,15.435-4.655c3.477-3.104,5.215-7.479,5.215-13.125s-1.738-10.01-5.215-13.09
		c-3.477-3.08-8.622-4.62-15.435-4.62h-5.95V50.482z M340.96,48.802v-32.13h4.13c5.926,0,10.535,1.342,13.825,4.025
		c3.29,2.684,4.935,6.685,4.935,12.005s-1.646,9.334-4.935,12.04c-3.29,2.707-7.899,4.06-13.825,4.06H340.96z M347.05,42.782
		c3.5,0,6.206-0.828,8.12-2.485c1.913-1.656,2.87-4.188,2.87-7.595c0-3.406-0.957-5.926-2.87-7.561
		c-1.914-1.633-4.62-2.449-8.12-2.449V42.782z"/>
	<path fill="#77A9C1" d="M376.59,9.392h27.51v12.25h-12.6v5.181h12.391v11.62H391.5v5.39h13.09v12.25h-28V9.392z M399.41,50.482
		v-1.681h-14v-15.33h13.3v-1.68h-13.3v-15.12h14v-1.68h-15.82v35.49H399.41z"/>
	<path fill="#F7CE87" d="M407.739,32.772c0-3.36,0.642-6.533,1.925-9.521c1.283-2.986,3.033-5.588,5.25-7.805
		c2.217-2.216,4.818-3.966,7.805-5.25c2.986-1.283,6.16-1.925,9.521-1.925s6.533,0.642,9.521,1.925
		c2.985,1.284,5.588,3.034,7.805,5.25c2.216,2.217,3.966,4.818,5.25,7.805c1.283,2.987,1.925,6.16,1.925,9.521
		c0,3.359-0.642,6.533-1.925,9.52c-1.284,2.987-3.034,5.589-5.25,7.805c-2.217,2.218-4.819,3.968-7.805,5.25
		c-2.987,1.283-6.16,1.926-9.521,1.926s-6.534-0.643-9.521-1.926c-2.986-1.282-5.588-3.032-7.805-5.25
		c-2.217-2.216-3.967-4.817-5.25-7.805C408.381,39.306,407.739,36.132,407.739,32.772z M414.319,32.772
		c0,2.474,0.466,4.795,1.399,6.965s2.217,4.071,3.851,5.705c1.633,1.634,3.535,2.917,5.705,3.85c2.17,0.935,4.491,1.4,6.965,1.4
		s4.795-0.466,6.966-1.4c2.17-0.933,4.07-2.216,5.704-3.85s2.916-3.535,3.851-5.705c0.933-2.17,1.399-4.491,1.399-6.965
		s-0.467-4.796-1.399-6.966c-0.935-2.17-2.217-4.07-3.851-5.705c-1.634-1.633-3.534-2.915-5.704-3.85
		c-2.171-0.933-4.492-1.4-6.966-1.4s-4.795,0.468-6.965,1.4c-2.17,0.935-4.072,2.217-5.705,3.85
		c-1.634,1.635-2.917,3.535-3.851,5.705S414.319,30.299,414.319,32.772z M432.239,48.872c-2.239,0-4.329-0.42-6.265-1.26
		c-1.938-0.84-3.641-1.995-5.11-3.465c-1.47-1.471-2.625-3.174-3.465-5.11c-0.84-1.936-1.261-4.025-1.261-6.265
		c0-2.24,0.421-4.328,1.261-6.266c0.84-1.936,1.995-3.64,3.465-5.109c1.47-1.471,3.173-2.625,5.11-3.466
		c1.936-0.84,4.025-1.26,6.265-1.26c2.24,0,4.328,0.42,6.265,1.26c1.937,0.841,3.641,1.995,5.11,3.466
		c1.47,1.47,2.625,3.174,3.466,5.109c0.84,1.938,1.26,4.025,1.26,6.266c0,2.239-0.42,4.329-1.26,6.265
		c-0.841,1.937-1.996,3.64-3.466,5.11c-1.47,1.47-3.174,2.625-5.11,3.465S434.479,48.872,432.239,48.872z M422.439,32.772
		c0,1.354,0.256,2.625,0.77,3.814c0.514,1.19,1.213,2.229,2.101,3.115c0.886,0.887,1.925,1.587,3.114,2.1
		c1.19,0.515,2.461,0.771,3.815,0.771c1.353,0,2.625-0.256,3.815-0.771c1.189-0.513,2.228-1.213,3.115-2.1
		c0.885-0.886,1.586-1.925,2.1-3.115c0.513-1.189,0.77-2.461,0.77-3.814s-0.257-2.625-0.77-3.815c-0.514-1.19-1.215-2.228-2.1-3.115
		c-0.888-0.886-1.926-1.586-3.115-2.1c-1.19-0.513-2.463-0.771-3.815-0.771c-1.354,0-2.625,0.258-3.815,0.771
		c-1.189,0.514-2.229,1.214-3.114,2.1c-0.888,0.888-1.587,1.925-2.101,3.115S422.439,31.419,422.439,32.772z"/>
</g>
</svg>
