<?xml version="1.0" encoding="utf-8"?>
<!-- Generator: Adobe Illustrator 16.0.0, SVG Export Plug-In . SVG Version: 6.00 Build 0)  -->
<!DOCTYPE svg PUBLIC "-//W3C//DTD SVG 1.1//EN" "http://www.w3.org/Graphics/SVG/1.1/DTD/svg11.dtd">
<svg version="1.1" id="Layer_1" xmlns="http://www.w3.org/2000/svg" xmlns:xlink="http://www.w3.org/1999/xlink" x="0px" y="0px"
	 width="720px" height="65px" viewBox="0 0 720 65" enable-background="new 0 0 720 65" xml:space="preserve">
<g display="none">
	<path display="inline" fill="#F7CE87" d="M159.769,27.09c0,3.22-0.56,5.963-1.68,8.225c-1.12,2.266-2.649,4.097-4.585,5.496
		c-1.937,1.399-4.2,2.426-6.79,3.08c-2.59,0.653-5.379,0.979-8.365,0.979V56h-14.91V9.31h14.91c2.986,0,5.775,0.327,8.365,0.98
		c2.59,0.654,4.853,1.68,6.79,3.08c1.936,1.4,3.465,3.232,4.585,5.495C159.209,21.129,159.769,23.87,159.769,27.09z M152.979,27.09
		c0-2.1-0.362-3.92-1.085-5.46c-0.724-1.54-1.739-2.8-3.045-3.78c-1.307-0.98-2.859-1.715-4.655-2.205
		c-1.797-0.49-3.745-0.735-5.845-0.735h-7.91V50.4h1.82V39.27h6.09c2.1,0,4.048-0.244,5.845-0.733
		c1.796-0.49,3.348-1.226,4.655-2.205c1.306-0.979,2.321-2.24,3.045-3.78C152.617,31.01,152.979,29.19,152.979,27.09z
		 M151.019,27.09c0,2.007-0.35,3.687-1.05,5.04c-0.7,1.354-1.634,2.427-2.8,3.22c-1.167,0.795-2.509,1.365-4.025,1.715
		c-1.517,0.352-3.115,0.525-4.795,0.525h-6.09v-21h6.09c1.68,0,3.278,0.175,4.795,0.525c1.516,0.35,2.858,0.922,4.025,1.715
		c1.166,0.794,2.1,1.867,2.8,3.22C150.669,23.404,151.019,25.084,151.019,27.09z M138.349,32.27h0.63
		c1.96,0,3.371-0.455,4.235-1.365c0.863-0.91,1.295-2.181,1.295-3.815c0-1.633-0.432-2.905-1.295-3.815
		c-0.864-0.91-2.275-1.365-4.235-1.365h-0.63V32.27z"/>
	<path display="inline" fill="#97CBD6" d="M163.268,9.31h14.91V25.2h8.33V9.31h14.98V56h-14.98V38.71h-8.33V56h-14.91V9.31z
		 M172.088,50.4V32.69h20.58V50.4h1.82V14.91h-1.82v16.1h-20.58v-16.1h-1.82V50.4H172.088z"/>
	<path display="inline" fill="#F6A482" d="M205.337,32.69c0-3.36,0.641-6.533,1.925-9.52c1.283-2.986,3.033-5.588,5.25-7.805
		c2.216-2.216,4.818-3.966,7.805-5.25c2.986-1.283,6.16-1.925,9.521-1.925c3.359,0,6.531,0.642,9.52,1.925
		c2.986,1.284,5.588,3.034,7.805,5.25c2.217,2.217,3.967,4.819,5.25,7.805c1.283,2.987,1.926,6.16,1.926,9.52
		s-0.643,6.535-1.926,9.52c-1.283,2.987-3.033,5.589-5.25,7.806c-2.217,2.217-4.818,3.967-7.805,5.25
		c-2.988,1.282-6.16,1.924-9.52,1.924c-3.361,0-6.535-0.642-9.521-1.924c-2.987-1.283-5.589-3.033-7.805-5.25
		c-2.217-2.217-3.967-4.817-5.25-7.806C205.979,39.225,205.337,36.05,205.337,32.69z M211.917,32.69c0,2.474,0.466,4.794,1.4,6.964
		c0.933,2.171,2.216,4.072,3.85,5.705c1.633,1.635,3.535,2.918,5.705,3.851c2.171,0.935,4.491,1.399,6.966,1.399
		c2.473,0,4.795-0.465,6.965-1.399c2.17-0.933,4.07-2.216,5.705-3.851c1.633-1.633,2.916-3.534,3.85-5.705
		c0.932-2.17,1.4-4.49,1.4-6.964c0-2.473-0.469-4.795-1.4-6.965c-0.934-2.17-2.217-4.071-3.85-5.705
		c-1.635-1.633-3.535-2.916-5.705-3.85c-2.17-0.933-4.492-1.4-6.965-1.4c-2.475,0-4.795,0.467-6.966,1.4
		c-2.17,0.934-4.072,2.217-5.705,3.85c-1.634,1.634-2.917,3.535-3.85,5.705C212.383,27.895,211.917,30.217,211.917,32.69z
		 M229.838,48.79c-2.24,0-4.33-0.42-6.266-1.261c-1.937-0.84-3.64-1.994-5.11-3.465c-1.47-1.47-2.625-3.172-3.465-5.109
		c-0.84-1.936-1.26-4.025-1.26-6.265s0.42-4.328,1.26-6.265c0.84-1.936,1.995-3.64,3.465-5.11c1.47-1.47,3.173-2.625,5.11-3.465
		c1.936-0.84,4.026-1.26,6.266-1.26c2.238,0,4.326,0.42,6.264,1.26c1.936,0.84,3.641,1.995,5.111,3.465
		c1.469,1.47,2.625,3.174,3.465,5.11c0.84,1.937,1.26,4.025,1.26,6.265s-0.42,4.33-1.26,6.265c-0.84,1.938-1.996,3.641-3.465,5.109
		c-1.471,1.471-3.176,2.625-5.111,3.465C234.165,48.37,232.077,48.79,229.838,48.79z M220.038,32.69c0,1.354,0.256,2.625,0.77,3.815
		c0.513,1.19,1.213,2.229,2.1,3.115c0.886,0.887,1.925,1.587,3.114,2.101c1.191,0.514,2.461,0.771,3.816,0.771
		c1.352,0,2.625-0.257,3.814-0.771s2.229-1.214,3.115-2.101c0.885-0.886,1.586-1.925,2.1-3.115c0.514-1.19,0.77-2.461,0.77-3.815
		c0-1.353-0.256-2.625-0.77-3.815c-0.514-1.19-1.215-2.228-2.1-3.115c-0.887-0.886-1.926-1.586-3.115-2.1
		c-1.189-0.513-2.463-0.77-3.814-0.77c-1.355,0-2.625,0.257-3.816,0.77c-1.189,0.514-2.229,1.214-3.114,2.1
		c-0.887,0.887-1.587,1.925-2.1,3.115C220.293,30.065,220.038,31.337,220.038,32.69z"/>
	<path display="inline" fill="#77A9C1" d="M264.347,21.56h-8.61V9.31h32.62v12.25h-8.61V56h-15.399L264.347,21.56L264.347,21.56z
		 M272.957,50.4V16.59h10.011v-1.68h-21.841v1.68h10.011V50.4H272.957z"/>
	<path display="inline" fill="#F7CE87" d="M289.756,32.69c0-3.36,0.641-6.533,1.925-9.52c1.283-2.986,3.033-5.588,5.25-7.805
		c2.216-2.216,4.817-3.966,7.805-5.25c2.986-1.283,6.161-1.925,9.521-1.925c3.359,0,6.532,0.642,9.521,1.925
		c2.985,1.284,5.588,3.034,7.805,5.25c2.217,2.217,3.967,4.819,5.25,7.805c1.283,2.987,1.926,6.16,1.926,9.52
		s-0.643,6.535-1.926,9.52c-1.283,2.987-3.033,5.589-5.25,7.806s-4.818,3.967-7.805,5.25c-2.987,1.282-6.16,1.924-9.521,1.924
		c-3.359,0-6.534-0.642-9.521-1.924c-2.987-1.283-5.589-3.033-7.805-5.25c-2.217-2.217-3.967-4.817-5.25-7.806
		C290.397,39.225,289.756,36.05,289.756,32.69z M296.336,32.69c0,2.474,0.466,4.794,1.399,6.964
		c0.933,2.171,2.216,4.072,3.851,5.705c1.633,1.635,3.534,2.918,5.704,3.851c2.171,0.935,4.491,1.399,6.966,1.399
		c2.473,0,4.795-0.465,6.965-1.399c2.17-0.933,4.07-2.216,5.705-3.851c1.633-1.633,2.916-3.534,3.851-5.705
		c0.933-2.17,1.399-4.49,1.399-6.964c0-2.473-0.468-4.795-1.399-6.965c-0.935-2.17-2.218-4.071-3.851-5.705
		c-1.635-1.633-3.535-2.916-5.705-3.85c-2.17-0.933-4.492-1.4-6.965-1.4c-2.475,0-4.795,0.467-6.966,1.4
		c-2.17,0.934-4.071,2.217-5.704,3.85c-1.635,1.634-2.918,3.535-3.851,5.705S296.336,30.217,296.336,32.69z M314.256,48.79
		c-2.24,0-4.329-0.42-6.266-1.261c-1.938-0.84-3.64-1.994-5.109-3.465c-1.471-1.47-2.625-3.172-3.466-5.109
		c-0.84-1.936-1.26-4.025-1.26-6.265s0.42-4.328,1.26-6.265c0.841-1.936,1.995-3.64,3.466-5.11c1.47-1.47,3.173-2.625,5.109-3.465
		c1.937-0.84,4.024-1.26,6.266-1.26c2.239,0,4.327,0.42,6.266,1.26c1.936,0.84,3.64,1.995,5.109,3.465s2.625,3.174,3.465,5.11
		c0.84,1.937,1.261,4.025,1.261,6.265s-0.421,4.33-1.261,6.265c-0.84,1.938-1.995,3.641-3.465,5.109
		c-1.471,1.471-3.175,2.625-5.109,3.465C318.583,48.37,316.496,48.79,314.256,48.79z M304.456,32.69
		c0,1.354,0.256,2.625,0.771,3.815c0.513,1.19,1.213,2.229,2.1,3.115c0.886,0.887,1.925,1.587,3.115,2.101
		c1.189,0.514,2.461,0.771,3.814,0.771s2.625-0.257,3.814-0.771s2.229-1.214,3.114-2.101c0.887-0.886,1.586-1.925,2.101-3.115
		c0.514-1.19,0.771-2.461,0.771-3.815c0-1.353-0.257-2.625-0.771-3.815c-0.515-1.19-1.214-2.228-2.101-3.115
		c-0.887-0.886-1.925-1.586-3.114-2.1c-1.189-0.513-2.462-0.77-3.814-0.77c-1.354,0-2.625,0.257-3.814,0.77
		c-1.19,0.514-2.229,1.214-3.115,2.1c-0.887,0.887-1.587,1.925-2.1,3.115C304.711,30.065,304.456,31.337,304.456,32.69z"/>
	<path display="inline" fill="#97CBD6" d="M372.355,25.2c-0.841-0.746-1.892-1.318-3.15-1.715c-1.26-0.396-2.496-0.595-3.709-0.595
		c-1.354,0-2.59,0.245-3.711,0.735c-1.119,0.49-2.088,1.167-2.905,2.03c-0.815,0.864-1.459,1.902-1.925,3.115
		c-0.467,1.214-0.7,2.52-0.7,3.92s0.256,2.707,0.771,3.919c0.513,1.215,1.213,2.252,2.1,3.115c0.886,0.863,1.925,1.541,3.115,2.029
		c1.19,0.49,2.461,0.735,3.815,0.735c1.586,0,3.031-0.339,4.341-1.017c1.305-0.676,2.426-1.598,3.358-2.765h-4.199v-9.8h17.988
		v15.54c-1.072,1.913-2.354,3.651-3.85,5.215s-3.162,2.905-5.004,4.024c-1.845,1.121-3.841,1.983-5.986,2.59
		c-2.146,0.605-4.363,0.91-6.648,0.91c-3.36,0-6.534-0.629-9.521-1.891c-2.987-1.26-5.589-2.984-7.805-5.18
		c-2.218-2.192-3.968-4.783-5.25-7.771c-1.284-2.984-1.926-6.205-1.926-9.66c0-3.36,0.605-6.533,1.819-9.52
		c1.213-2.986,2.881-5.588,5.005-7.805c2.123-2.216,4.645-3.966,7.562-5.25c2.916-1.283,6.055-1.925,9.415-1.925
		c2.612,0,4.877,0.257,6.791,0.77c1.911,0.514,3.521,1.097,4.829,1.75c1.539,0.747,2.822,1.564,3.851,2.45L372.355,25.2z
		 M373.057,16.17c-0.606-0.28-1.284-0.513-2.03-0.7c-0.654-0.186-1.425-0.35-2.312-0.49s-1.865-0.21-2.938-0.21
		c-2.476,0-4.783,0.444-6.93,1.33c-2.146,0.887-4.015,2.112-5.601,3.675c-1.587,1.564-2.835,3.442-3.745,5.635
		c-0.91,2.194-1.364,4.62-1.364,7.28s0.466,5.087,1.399,7.281c0.933,2.193,2.216,4.071,3.851,5.635
		c1.633,1.563,3.534,2.789,5.704,3.675c2.171,0.888,4.492,1.329,6.966,1.329c3.22,0,6.136-0.758,8.75-2.273
		c2.611-1.518,4.734-3.535,6.369-6.056v-9.171h-7.42v1.682h5.601v7c-1.447,2.146-3.324,3.852-5.636,5.109
		c-2.311,1.26-4.864,1.891-7.664,1.891c-2.239,0-4.33-0.386-6.266-1.155c-1.938-0.77-3.64-1.864-5.109-3.288
		c-1.471-1.425-2.625-3.127-3.466-5.111c-0.84-1.982-1.26-4.164-1.26-6.544c0-2.38,0.408-4.561,1.226-6.545
		c0.815-1.983,1.937-3.686,3.359-5.11c1.423-1.423,3.091-2.52,5.005-3.29s3.99-1.155,6.23-1.155c0.84,0,1.633,0.07,2.381,0.21
		c0.746,0.14,1.399,0.28,1.959,0.42c0.653,0.187,1.26,0.374,1.819,0.56L373.057,16.17z"/>
	<path display="inline" fill="#F6A482" d="M391.395,9.31h16.101c2.986,0,5.752,0.397,8.295,1.19c2.543,0.794,4.748,1.96,6.615,3.5
		s3.326,3.442,4.375,5.705c1.051,2.264,1.576,4.865,1.576,7.805c0,2.334-0.328,4.317-0.98,5.95c-0.654,1.634-1.377,2.987-2.17,4.06
		c-0.935,1.215-1.984,2.24-3.15,3.08l8.75,15.4h-17.5l-7-11.83V56h-14.91L391.395,9.31L391.395,9.31z M405.955,39.76
		c1.82,0,3.592-0.186,5.32-0.56l6.649,11.2h2.17l-7-11.76c2.521-0.888,4.525-2.252,6.021-4.097c1.492-1.843,2.24-4.235,2.24-7.175
		c0-2.053-0.398-3.85-1.191-5.39s-1.879-2.835-3.254-3.885c-1.377-1.05-3-1.843-4.865-2.38c-1.867-0.536-3.896-0.805-6.09-0.805
		h-7.562V50.4h1.82V39.76H405.955z M400.215,38.08V16.59h5.74c4.246,0,7.57,0.934,9.975,2.8c2.402,1.867,3.605,4.527,3.605,7.98
		c0,3.454-1.203,6.103-3.605,7.944c-2.403,1.845-5.729,2.766-9.975,2.766H400.215z M406.305,32.27h0.771
		c1.772,0,3.278-0.396,4.516-1.19c1.236-0.793,1.855-2.123,1.855-3.99c0-1.866-0.619-3.196-1.855-3.99
		c-1.235-0.793-2.742-1.19-4.516-1.19h-0.771V32.27z"/>
	<path display="inline" fill="#77A9C1" d="M446.064,9.31h11.198L474.975,56h-14.7l-1.539-4.2h-14.142l-1.539,4.2h-14.7L446.064,9.31
		z M438.785,50.4l1.33-3.5h23.1l1.33,3.5h1.959l-13.51-35.49h-2.66l-13.51,35.49H438.785z M451.664,16.59l10.92,28.631h-21.84
		L451.664,16.59z M454.814,41.51l-3.15-8.189l-3.15,8.189H454.814z"/>
	<path display="inline" fill="#F7CE87" d="M512.354,27.09c0,3.22-0.561,5.963-1.68,8.225c-1.119,2.266-2.647,4.097-4.586,5.496
		c-1.936,1.399-4.199,2.426-6.789,3.08c-2.59,0.653-5.379,0.979-8.365,0.979V56h-14.909V9.31h14.909c2.986,0,5.775,0.327,8.365,0.98
		c2.59,0.654,4.854,1.68,6.789,3.08c1.938,1.4,3.467,3.232,4.586,5.495C511.793,21.129,512.354,23.87,512.354,27.09z M505.564,27.09
		c0-2.1-0.363-3.92-1.087-5.46c-0.725-1.54-1.737-2.8-3.045-3.78c-1.307-0.98-2.858-1.715-4.653-2.205
		c-1.797-0.49-3.746-0.735-5.847-0.735h-7.909V50.4h1.819V39.27h6.09c2.101,0,4.05-0.244,5.847-0.733
		c1.795-0.49,3.348-1.226,4.653-2.205c1.307-0.979,2.32-2.24,3.045-3.78C505.201,31.01,505.564,29.19,505.564,27.09z M503.604,27.09
		c0,2.007-0.35,3.687-1.049,5.04c-0.701,1.354-1.635,2.427-2.801,3.22c-1.168,0.795-2.51,1.365-4.025,1.715
		c-1.518,0.352-3.114,0.525-4.795,0.525h-6.09v-21h6.09c1.681,0,3.277,0.175,4.795,0.525c1.517,0.35,2.857,0.922,4.025,1.715
		c1.166,0.794,2.1,1.867,2.801,3.22C503.254,23.404,503.604,25.084,503.604,27.09z M490.934,32.27h0.632
		c1.959,0,3.37-0.455,4.233-1.365c0.863-0.91,1.295-2.181,1.295-3.815c0-1.633-0.432-2.905-1.295-3.815
		c-0.863-0.91-2.274-1.365-4.233-1.365h-0.632V32.27z"/>
	<path display="inline" fill="#97CBD6" d="M515.854,9.31h14.91V25.2h8.33V9.31h14.979V56h-14.979V38.71h-8.33V56h-14.91V9.31z
		 M524.672,50.4V32.69h20.58V50.4h1.82V14.91h-1.82v16.1h-20.58v-16.1h-1.818V50.4H524.672z"/>
	<path display="inline" fill="#F6A482" d="M569.611,35.91l-14.49-26.6h16.592l5.389,9.87l5.32-9.87h16.59l-14.489,26.6V56h-14.91
		L569.611,35.91L569.611,35.91z M578.012,50.4V33.67l10.222-18.76h-2.17l-8.962,16.59l-9.028-16.59h-2.101l10.148,18.76V50.4
		H578.012z"/>
</g>
<g display="none">
	<path display="inline" fill="#F7CE87" d="M184.233,8.825h27.51v12.25h-12.6v5.181h12.39v11.62h-12.39v5.39h13.09v12.25h-28V8.825z
		 M207.053,49.916v-1.681h-14v-15.33h13.3v-1.68h-13.3v-15.12h14v-1.68h-15.82v35.49H207.053z"/>
	<path display="inline" fill="#97CBD6" d="M216.432,55.516V8.825h12.95c4.386,0,8.295,0.49,11.725,1.471
		c3.43,0.979,6.323,2.45,8.68,4.41s4.153,4.398,5.391,7.314c1.235,2.917,1.854,6.289,1.854,10.115c0,3.827-0.619,7.199-1.854,10.115
		c-1.237,2.917-3.034,5.354-5.391,7.314s-5.25,3.442-8.68,4.445c-3.43,1.004-7.339,1.505-11.725,1.505H216.432z M223.432,49.916
		h5.95c6.813,0,11.958-1.552,15.435-4.655c3.476-3.104,5.215-7.479,5.215-13.125s-1.739-10.01-5.215-13.09
		c-3.477-3.08-8.622-4.62-15.435-4.62h-5.95V49.916z M225.252,48.235v-32.13h4.13c5.926,0,10.535,1.342,13.825,4.025
		c3.29,2.684,4.935,6.685,4.935,12.005s-1.646,9.334-4.935,12.04c-3.29,2.707-7.899,4.06-13.825,4.06H225.252z M231.342,42.216
		c3.5,0,6.206-0.828,8.12-2.485c1.913-1.656,2.87-4.188,2.87-7.595c0-3.406-0.957-5.926-2.87-7.561
		c-1.914-1.633-4.62-2.449-8.12-2.449V42.216z"/>
	<path display="inline" fill="#F6A482" d="M279.992,56.706c-2.939,0-5.6-0.374-7.979-1.12s-4.41-1.866-6.09-3.36
		c-1.681-1.493-2.976-3.383-3.885-5.67c-0.91-2.286-1.365-4.97-1.365-8.05V8.825h14.91v29.051c0,1.634,0.338,2.882,1.015,3.745
		c0.676,0.863,1.808,1.295,3.395,1.295c1.586,0,2.719-0.432,3.396-1.295c0.676-0.863,1.015-2.111,1.015-3.745V8.825h14.98v29.681
		c0,3.08-0.455,5.764-1.365,8.05c-0.91,2.287-2.217,4.177-3.92,5.67c-1.704,1.494-3.745,2.614-6.125,3.36
		S282.932,56.706,279.992,56.706z M279.992,48.306c-7,0-10.5-3.43-10.5-10.29v-23.59h-1.819v23.59c0,3.92,1.061,6.919,3.185,8.995
		c2.123,2.077,5.168,3.115,9.135,3.115s7.023-1.038,9.171-3.115c2.146-2.076,3.22-5.075,3.22-8.995v-23.59h-1.891v23.59
		C290.492,44.876,286.992,48.306,279.992,48.306z"/>
	<path display="inline" fill="#77A9C1" d="M303.021,32.206c0-3.733,0.652-7.105,1.96-10.115c1.306-3.01,3.08-5.588,5.319-7.735
		c2.24-2.146,4.854-3.791,7.84-4.935s6.16-1.715,9.521-1.715c2.66,0,5.028,0.257,7.104,0.77c2.076,0.514,3.861,1.097,5.355,1.75
		c1.726,0.747,3.22,1.564,4.48,2.45l-7.351,12.95c-0.747-0.561-1.563-1.097-2.45-1.61c-0.794-0.373-1.738-0.735-2.835-1.085
		s-2.345-0.525-3.745-0.525c-1.446,0-2.776,0.258-3.989,0.771c-1.215,0.514-2.275,1.214-3.186,2.1
		c-0.91,0.888-1.622,1.925-2.135,3.115c-0.514,1.19-0.771,2.462-0.771,3.815s0.269,2.625,0.806,3.814
		c0.536,1.19,1.271,2.229,2.205,3.115c0.933,0.887,2.029,1.587,3.29,2.1c1.26,0.515,2.636,0.771,4.13,0.771
		c1.493,0,2.823-0.187,3.99-0.561c1.165-0.373,2.146-0.793,2.939-1.26c0.933-0.513,1.75-1.12,2.45-1.82l7.35,12.95
		c-1.26,1.027-2.754,1.938-4.479,2.73c-1.494,0.653-3.29,1.26-5.391,1.819c-2.1,0.561-4.504,0.841-7.21,0.841
		c-3.64,0-7-0.596-10.08-1.785c-3.079-1.19-5.739-2.858-7.979-5.005s-3.99-4.726-5.25-7.735S303.021,35.846,303.021,32.206z
		 M311.84,32.206c0-2.24,0.386-4.341,1.155-6.301s1.855-3.663,3.255-5.109c1.4-1.446,3.104-2.59,5.11-3.431
		c2.006-0.84,4.246-1.26,6.72-1.26c1.213,0,2.298,0.082,3.255,0.245c0.956,0.164,1.761,0.362,2.415,0.595
		c0.793,0.234,1.47,0.515,2.03,0.84l0.979-1.68c-0.747-0.326-1.54-0.63-2.38-0.91c-0.794-0.232-1.704-0.442-2.729-0.63
		c-1.027-0.186-2.218-0.28-3.57-0.28c-2.38,0-4.655,0.421-6.825,1.261s-4.084,2.042-5.74,3.604c-1.656,1.564-2.986,3.454-3.989,5.67
		c-1.004,2.218-1.505,4.68-1.505,7.386c0,2.754,0.478,5.227,1.435,7.42c0.956,2.193,2.275,4.071,3.955,5.635s3.64,2.765,5.88,3.604
		c2.24,0.841,4.62,1.261,7.14,1.261c1.4,0,2.66-0.116,3.78-0.351c1.12-0.232,2.076-0.49,2.87-0.77c0.886-0.326,1.68-0.7,2.38-1.12
		l-0.979-1.68c-0.607,0.42-1.308,0.77-2.101,1.05c-0.7,0.279-1.54,0.524-2.52,0.734c-0.98,0.21-2.124,0.315-3.431,0.315
		c-2.566,0-4.877-0.42-6.93-1.26c-2.054-0.84-3.792-1.983-5.215-3.431c-1.424-1.445-2.521-3.149-3.29-5.109
		S311.84,34.445,311.84,32.206z"/>
	<path display="inline" fill="#F7CE87" d="M360.91,8.825h11.201l17.709,46.69h-14.699l-1.539-4.2h-14.141l-1.54,4.2h-14.7
		L360.91,8.825z M353.631,49.916l1.33-3.5h23.099l1.33,3.5h1.961l-13.51-35.49h-2.66l-13.51,35.49H353.631z M366.512,16.105
		l10.92,28.63h-21.84L366.512,16.105z M369.66,41.025l-3.148-8.189l-3.15,8.189H369.66z"/>
	<path display="inline" fill="#97CBD6" d="M397.031,21.075h-8.611V8.825h32.621v12.25h-8.611v34.44h-15.398V21.075z M405.641,49.916
		V16.105h10.01v-1.68h-21.84v1.68h10.01v33.811H405.641z"/>
	<path display="inline" fill="#F6A482" d="M423.49,8.825h15.818v46.69H423.49V8.825z M432.309,49.916v-35.49h-1.818v35.49H432.309z"
		/>
	<path display="inline" fill="#77A9C1" d="M443.158,32.206c0-3.36,0.641-6.533,1.926-9.521c1.283-2.986,3.033-5.588,5.25-7.805
		c2.215-2.216,4.816-3.966,7.805-5.25c2.986-1.283,6.16-1.925,9.52-1.925s6.533,0.642,9.52,1.925
		c2.986,1.284,5.588,3.034,7.805,5.25c2.217,2.217,3.967,4.818,5.25,7.805c1.283,2.987,1.926,6.16,1.926,9.521
		c0,3.359-0.643,6.533-1.926,9.52c-1.283,2.987-3.033,5.589-5.25,7.805c-2.217,2.218-4.818,3.968-7.805,5.25
		c-2.986,1.283-6.16,1.926-9.52,1.926s-6.533-0.643-9.52-1.926c-2.988-1.282-5.59-3.032-7.805-5.25
		c-2.217-2.216-3.967-4.817-5.25-7.805C443.799,38.739,443.158,35.565,443.158,32.206z M449.738,32.206
		c0,2.474,0.467,4.795,1.4,6.965c0.932,2.17,2.215,4.071,3.85,5.705c1.633,1.634,3.535,2.917,5.705,3.85
		c2.17,0.935,4.49,1.4,6.965,1.4c2.473,0,4.795-0.466,6.965-1.4c2.17-0.933,4.07-2.216,5.705-3.85
		c1.633-1.634,2.916-3.535,3.85-5.705s1.4-4.491,1.4-6.965s-0.467-4.796-1.4-6.966s-2.217-4.07-3.85-5.705
		c-1.635-1.633-3.535-2.915-5.705-3.85c-2.17-0.933-4.492-1.4-6.965-1.4c-2.475,0-4.795,0.468-6.965,1.4
		c-2.17,0.935-4.072,2.217-5.705,3.85c-1.635,1.635-2.918,3.535-3.85,5.705C450.205,27.41,449.738,29.732,449.738,32.206z
		 M467.658,48.306c-2.24,0-4.328-0.42-6.266-1.26c-1.936-0.84-3.639-1.995-5.109-3.465c-1.471-1.471-2.625-3.174-3.465-5.11
		c-0.84-1.936-1.26-4.025-1.26-6.265c0-2.24,0.42-4.328,1.26-6.266c0.84-1.936,1.994-3.64,3.465-5.109
		c1.471-1.471,3.174-2.625,5.109-3.466c1.938-0.84,4.025-1.26,6.266-1.26s4.328,0.42,6.266,1.26
		c1.936,0.841,3.639,1.995,5.109,3.466c1.471,1.47,2.625,3.174,3.465,5.109c0.84,1.938,1.26,4.025,1.26,6.266
		c0,2.239-0.42,4.329-1.26,6.265c-0.84,1.937-1.994,3.64-3.465,5.11c-1.471,1.47-3.174,2.625-5.109,3.465
		C471.986,47.886,469.898,48.306,467.658,48.306z M457.857,32.206c0,1.354,0.256,2.625,0.771,3.814
		c0.512,1.19,1.213,2.229,2.1,3.115c0.885,0.887,1.924,1.587,3.115,2.1c1.189,0.515,2.461,0.771,3.814,0.771
		s2.625-0.256,3.814-0.771c1.191-0.513,2.229-1.213,3.115-2.1c0.887-0.886,1.586-1.925,2.1-3.115
		c0.514-1.189,0.771-2.461,0.771-3.814s-0.258-2.625-0.771-3.815s-1.213-2.228-2.1-3.115c-0.887-0.886-1.924-1.586-3.115-2.1
		c-1.189-0.513-2.461-0.771-3.814-0.771s-2.625,0.258-3.814,0.771c-1.191,0.514-2.23,1.214-3.115,2.1
		c-0.887,0.888-1.588,1.925-2.1,3.115C458.113,29.581,457.857,30.853,457.857,32.206z"/>
	<path display="inline" fill="#F7CE87" d="M496.008,8.825h12.25l12.881,17.99V8.825h14.629v46.69h-12.32l-12.809-17.92v17.92
		h-14.631V8.825z M504.338,49.916V17.575l23.1,32.341h1.82v-35.49h-1.82v32.34l-23.1-32.34h-1.82v35.49H504.338z"/>
</g>
<g>
	<path fill="#F7CE87" d="M213.038,9.31h15.82V56h-15.82V9.31z M221.857,50.4V14.91h-1.82V50.4H221.857z"/>
	<path fill="#97CBD6" d="M233.757,9.31h12.25l12.88,17.99V9.31h14.63V56h-12.32l-12.81-17.92V56h-14.63V9.31z M242.086,50.4V18.06
		l23.1,32.341h1.82V14.91h-1.82v32.34l-23.1-32.34h-1.82V50.4H242.086z"/>
	<path fill="#F6A482" d="M284.576,21.56h-8.61V9.31h32.62v12.25h-8.61V56h-15.399V21.56z M293.185,50.4V16.59h10.011v-1.68h-21.841
		v1.68h10.011V50.4H293.185z"/>
	<path fill="#77A9C1" d="M311.035,9.31h27.51v12.25h-12.6v5.181h12.39v11.62h-12.39v5.39h13.09V56h-28V9.31z M333.854,50.4V48.72
		h-14V33.39h13.301v-1.68h-13.301V16.59h14v-1.68h-15.819V50.4H333.854z"/>
	<path fill="#F7CE87" d="M343.235,9.31h16.1c2.986,0,5.751,0.397,8.294,1.19c2.543,0.794,4.748,1.96,6.615,3.5
		s3.326,3.442,4.375,5.705c1.051,2.264,1.576,4.865,1.576,7.805c0,2.334-0.328,4.317-0.98,5.95c-0.654,1.634-1.377,2.987-2.17,4.06
		c-0.934,1.215-1.984,2.24-3.15,3.08l8.75,15.4h-17.5l-7-11.83V56h-14.91V9.31z M357.794,39.76c1.82,0,3.592-0.186,5.321-0.56
		l6.65,11.2h2.17l-7-11.761c2.52-0.886,4.525-2.251,6.02-4.095c1.492-1.843,2.24-4.235,2.24-7.175c0-2.053-0.398-3.851-1.191-5.39
		c-0.793-1.54-1.879-2.836-3.254-3.886c-1.377-1.05-3-1.843-4.865-2.38c-1.867-0.536-3.897-0.805-6.09-0.805h-7.56V50.4h1.819V39.76
		H357.794z M352.054,38.08V16.59h5.74c4.247,0,7.571,0.935,9.975,2.8c2.402,1.867,3.605,4.527,3.605,7.98
		c0,3.454-1.203,6.102-3.605,7.945c-2.404,1.844-5.729,2.765-9.975,2.765H352.054z M358.145,32.27h0.77
		c1.773,0,3.279-0.396,4.515-1.189c1.236-0.793,1.855-2.123,1.855-3.99c0-1.866-0.619-3.195-1.855-3.99
		c-1.236-0.793-2.742-1.189-4.515-1.189h-0.77V32.27z"/>
	<path fill="#97CBD6" d="M384.043,9.31h27.51v12.25h-12.6v5.181h12.391v11.62h-12.391v5.39h13.09V56h-28V9.31z M406.863,50.4V48.72
		h-14V33.39h13.301v-1.68h-13.301V16.59h14v-1.68h-15.82V50.4H406.863z"/>
	<path fill="#F6A482" d="M414.984,41.51c1.025,0.327,2.1,0.584,3.219,0.771c0.934,0.233,1.996,0.42,3.186,0.56
		c1.189,0.141,2.391,0.21,3.605,0.21c2.145,0,3.219-0.793,3.219-2.38c0-0.605-0.326-1.225-0.979-1.854
		c-0.654-0.631-1.482-1.33-2.486-2.101c-1.004-0.77-2.076-1.621-3.219-2.555c-1.145-0.934-2.219-2.006-3.221-3.22
		c-1.004-1.214-1.832-2.578-2.484-4.096c-0.654-1.516-0.98-3.255-0.98-5.215c0-2.192,0.396-4.13,1.189-5.81
		c0.793-1.681,1.891-3.08,3.291-4.2c1.398-1.12,3.045-1.971,4.934-2.555c1.891-0.583,3.908-0.875,6.055-0.875
		c1.121,0,2.24,0.059,3.361,0.175c1.119,0.117,2.123,0.222,3.01,0.314c1.025,0.141,2.029,0.28,3.01,0.42V22.19
		c-0.373-0.046-0.795-0.094-1.26-0.141c-0.375-0.046-0.795-0.093-1.26-0.14c-0.467-0.046-0.957-0.07-1.471-0.07
		c-0.279,0-0.629,0.012-1.049,0.035c-0.42,0.024-0.818,0.082-1.191,0.175c-0.373,0.095-0.699,0.257-0.979,0.49
		c-0.281,0.234-0.422,0.56-0.422,0.979c0,0.375,0.316,0.841,0.945,1.4c0.631,0.561,1.4,1.214,2.311,1.96
		c0.91,0.747,1.912,1.61,3.01,2.59c1.096,0.98,2.1,2.101,3.01,3.36s1.68,2.684,2.311,4.27c0.631,1.588,0.945,3.36,0.945,5.32
		c0,2.054-0.328,3.979-0.98,5.775c-0.654,1.797-1.668,3.359-3.045,4.689s-3.139,2.38-5.285,3.15
		c-2.146,0.77-4.689,1.155-7.629,1.155c-1.775,0-3.42-0.082-4.936-0.245c-1.518-0.164-2.859-0.362-4.025-0.596
		c-1.354-0.233-2.59-0.513-3.709-0.84V41.51z M420.863,49.91c0.652,0.14,1.354,0.257,2.1,0.35c0.654,0.095,1.342,0.175,2.066,0.245
		c0.723,0.07,1.457,0.105,2.205,0.105c1.305,0,2.576-0.151,3.814-0.455c1.236-0.304,2.344-0.806,3.324-1.505
		c0.98-0.7,1.762-1.599,2.346-2.695c0.582-1.096,0.875-2.438,0.875-4.025c0-1.353-0.34-2.636-1.016-3.85
		c-0.676-1.213-1.539-2.38-2.59-3.5s-2.17-2.193-3.359-3.22c-1.191-1.026-2.311-2.065-3.361-3.115
		c-1.049-1.05-1.914-2.101-2.59-3.15s-1.014-2.135-1.014-3.255c0-1.68,0.535-2.975,1.609-3.885c1.072-0.91,2.801-1.365,5.18-1.365
		c0.373,0,0.758,0.012,1.156,0.035c0.395,0.024,0.779,0.059,1.154,0.105c0.373,0.047,0.746,0.069,1.119,0.069V14.98
		c-0.326,0-0.676-0.023-1.049-0.07c-0.328-0.046-0.689-0.081-1.086-0.105c-0.396-0.022-0.805-0.035-1.225-0.035
		c-2.52,0-4.598,0.572-6.23,1.716s-2.449,2.929-2.449,5.354c0,1.308,0.338,2.532,1.016,3.675c0.676,1.145,1.539,2.265,2.59,3.36
		c1.049,1.097,2.17,2.159,3.359,3.185c1.189,1.027,2.311,2.065,3.359,3.115c1.051,1.05,1.914,2.135,2.59,3.255
		s1.016,2.287,1.016,3.5c0,2.24-0.76,3.944-2.275,5.11c-1.518,1.167-3.605,1.75-6.264,1.75c-1.588,0-3.035-0.116-4.342-0.35
		c-0.699-0.094-1.377-0.21-2.029-0.351V49.91z"/>
	<path fill="#77A9C1" d="M453.902,21.56h-8.609V9.31h32.619v12.25h-8.609V56h-15.4V21.56z M462.512,50.4V16.59h10.012v-1.68h-21.842
		v1.68h10.012V50.4H462.512z"/>
	<path fill="#F7CE87" d="M479.102,41.51c1.025,0.327,2.1,0.584,3.221,0.771c0.932,0.233,1.994,0.42,3.184,0.56
		c1.191,0.141,2.393,0.21,3.605,0.21c2.146,0,3.221-0.793,3.221-2.38c0-0.605-0.328-1.225-0.98-1.854
		c-0.654-0.631-1.482-1.33-2.484-2.101c-1.004-0.77-2.078-1.621-3.221-2.555c-1.145-0.934-2.217-2.006-3.221-3.22
		s-1.832-2.578-2.484-4.096c-0.654-1.516-0.98-3.255-0.98-5.215c0-2.192,0.396-4.13,1.191-5.81c0.793-1.681,1.889-3.08,3.289-4.2
		s3.045-1.971,4.936-2.555c1.891-0.583,3.908-0.875,6.055-0.875c1.119,0,2.24,0.059,3.359,0.175c1.121,0.117,2.123,0.222,3.01,0.314
		c1.027,0.141,2.031,0.28,3.012,0.42V22.19c-0.375-0.046-0.795-0.094-1.262-0.141c-0.373-0.046-0.793-0.093-1.26-0.14
		c-0.467-0.046-0.957-0.07-1.469-0.07c-0.281,0-0.631,0.012-1.051,0.035c-0.42,0.024-0.816,0.082-1.189,0.175
		c-0.375,0.095-0.701,0.257-0.98,0.49c-0.279,0.234-0.42,0.56-0.42,0.979c0,0.375,0.314,0.841,0.945,1.4
		c0.629,0.561,1.4,1.214,2.311,1.96c0.908,0.747,1.912,1.61,3.01,2.59c1.096,0.98,2.1,2.101,3.01,3.36s1.68,2.684,2.311,4.27
		c0.629,1.588,0.943,3.36,0.943,5.32c0,2.054-0.326,3.979-0.979,5.775c-0.654,1.797-1.67,3.359-3.045,4.689
		c-1.377,1.33-3.141,2.38-5.285,3.15c-2.148,0.77-4.691,1.155-7.631,1.155c-1.773,0-3.418-0.082-4.936-0.245
		c-1.516-0.164-2.857-0.362-4.023-0.596c-1.355-0.233-2.592-0.513-3.711-0.84V41.51z M484.982,49.91
		c0.652,0.14,1.352,0.257,2.1,0.35c0.652,0.095,1.34,0.175,2.064,0.245c0.723,0.07,1.459,0.105,2.205,0.105
		c1.307,0,2.578-0.151,3.814-0.455s2.346-0.806,3.326-1.505c0.979-0.7,1.76-1.599,2.344-2.695c0.584-1.096,0.875-2.438,0.875-4.025
		c0-1.353-0.338-2.636-1.014-3.85c-0.678-1.213-1.541-2.38-2.59-3.5c-1.051-1.12-2.17-2.193-3.361-3.22
		c-1.189-1.026-2.309-2.065-3.359-3.115s-1.914-2.101-2.59-3.15c-0.678-1.05-1.016-2.135-1.016-3.255
		c0-1.68,0.537-2.975,1.611-3.885c1.072-0.91,2.799-1.365,5.18-1.365c0.373,0,0.758,0.012,1.154,0.035
		c0.396,0.024,0.781,0.059,1.154,0.105s0.746,0.069,1.121,0.069V14.98c-0.328,0-0.678-0.023-1.051-0.07
		c-0.326-0.046-0.689-0.081-1.084-0.105c-0.398-0.022-0.805-0.035-1.225-0.035c-2.521,0-4.598,0.572-6.23,1.716
		c-1.635,1.144-2.451,2.929-2.451,5.354c0,1.308,0.338,2.532,1.016,3.675c0.676,1.145,1.541,2.265,2.59,3.36
		c1.051,1.097,2.17,2.159,3.359,3.185c1.191,1.027,2.311,2.065,3.361,3.115c1.049,1.05,1.912,2.135,2.59,3.255
		c0.676,1.12,1.016,2.287,1.016,3.5c0,2.24-0.76,3.944-2.275,5.11c-1.518,1.167-3.605,1.75-6.266,1.75
		c-1.588,0-3.033-0.116-4.34-0.35c-0.699-0.094-1.377-0.21-2.029-0.351V49.91z"/>
</g>
<g display="none">
	<path display="inline" fill="#F7CE87" d="M266.236,41.025c1.026,0.327,2.1,0.584,3.22,0.771c0.933,0.233,1.995,0.42,3.185,0.56
		c1.19,0.141,2.391,0.21,3.605,0.21c2.146,0,3.22-0.793,3.22-2.38c0-0.605-0.327-1.225-0.98-1.854
		c-0.654-0.631-1.482-1.33-2.485-2.101c-1.004-0.77-2.077-1.621-3.22-2.555c-1.144-0.934-2.217-2.006-3.22-3.22
		c-1.004-1.214-1.832-2.578-2.485-4.096c-0.654-1.516-0.98-3.255-0.98-5.215c0-2.192,0.396-4.13,1.19-5.81
		c0.793-1.681,1.89-3.08,3.29-4.2c1.4-1.12,3.045-1.971,4.935-2.555c1.89-0.583,3.908-0.875,6.055-0.875
		c1.12,0,2.24,0.059,3.36,0.175c1.12,0.117,2.123,0.222,3.01,0.314c1.026,0.141,2.03,0.28,3.01,0.42v13.091
		c-0.374-0.046-0.794-0.094-1.26-0.141c-0.374-0.046-0.794-0.093-1.26-0.14c-0.467-0.046-0.957-0.07-1.47-0.07
		c-0.28,0-0.63,0.012-1.05,0.035c-0.42,0.024-0.817,0.082-1.19,0.175c-0.374,0.095-0.7,0.257-0.98,0.49
		c-0.28,0.234-0.42,0.56-0.42,0.979c0,0.375,0.315,0.841,0.945,1.4c0.63,0.561,1.4,1.214,2.31,1.96c0.91,0.747,1.913,1.61,3.01,2.59
		c1.096,0.98,2.1,2.101,3.01,3.36s1.68,2.684,2.31,4.27c0.63,1.588,0.945,3.36,0.945,5.32c0,2.054-0.327,3.979-0.98,5.775
		c-0.654,1.797-1.669,3.359-3.045,4.689c-1.377,1.33-3.139,2.38-5.285,3.15c-2.147,0.77-4.69,1.155-7.63,1.155
		c-1.774,0-3.419-0.082-4.935-0.245c-1.517-0.164-2.859-0.362-4.025-0.596c-1.354-0.233-2.59-0.513-3.71-0.84V41.025z
		 M272.116,49.426c0.653,0.14,1.353,0.257,2.1,0.35c0.653,0.095,1.341,0.175,2.065,0.245c0.723,0.07,1.458,0.105,2.205,0.105
		c1.306,0,2.578-0.151,3.815-0.455c1.236-0.304,2.345-0.806,3.325-1.505c0.98-0.7,1.761-1.599,2.345-2.695
		c0.583-1.096,0.875-2.438,0.875-4.025c0-1.353-0.339-2.636-1.015-3.85c-0.677-1.213-1.54-2.38-2.59-3.5
		c-1.05-1.12-2.17-2.193-3.36-3.22s-2.31-2.065-3.36-3.115c-1.05-1.05-1.914-2.101-2.59-3.15c-0.677-1.05-1.015-2.135-1.015-3.255
		c0-1.68,0.536-2.975,1.61-3.885c1.073-0.91,2.8-1.365,5.18-1.365c0.373,0,0.758,0.012,1.155,0.035
		c0.396,0.024,0.781,0.059,1.155,0.105c0.373,0.047,0.746,0.069,1.12,0.069v-1.819c-0.327,0-0.677-0.023-1.05-0.07
		c-0.327-0.046-0.689-0.081-1.085-0.105c-0.397-0.022-0.805-0.035-1.225-0.035c-2.52,0-4.597,0.572-6.23,1.716
		c-1.634,1.144-2.45,2.929-2.45,5.354c0,1.308,0.338,2.532,1.015,3.675c0.676,1.145,1.54,2.265,2.59,3.36
		c1.05,1.097,2.17,2.159,3.36,3.185c1.19,1.027,2.31,2.065,3.36,3.115s1.913,2.135,2.59,3.255c0.676,1.12,1.015,2.287,1.015,3.5
		c0,2.24-0.759,3.944-2.275,5.11c-1.517,1.167-3.605,1.75-6.265,1.75c-1.587,0-3.034-0.116-4.34-0.35
		c-0.7-0.094-1.377-0.21-2.03-0.351V49.426z"/>
	<path display="inline" fill="#97CBD6" d="M298.997,8.825h15.12v10.78l8.82-10.78h18.27l-16.45,21.351l17.29,25.34h-17.99
		l-9.94-14.42v14.42h-15.12V8.825z M307.816,49.916v-9.45l7.28-9.03l12.74,18.48h2.17l-13.65-19.95l12.53-15.54h-2.24l-18.83,23.24
		v-23.24h-1.82v35.49H307.816z"/>
	<path display="inline" fill="#F6A482" d="M343.446,8.825h15.819v46.69h-15.819V8.825z M352.265,49.916v-35.49h-1.819v35.49H352.265
		z"/>
	<path display="inline" fill="#77A9C1" d="M364.166,8.825h15.539v34.44h12.881v12.25h-28.42V8.825z M388.666,49.916v-1.681h-15.682
		v-33.81h-1.818v35.49H388.666z"/>
	<path display="inline" fill="#F7CE87" d="M395.035,8.825h15.539v34.44h12.881v12.25h-28.42V8.825z M419.535,49.916v-1.681h-15.682
		v-33.81h-1.818v35.49H419.535z"/>
	<path display="inline" fill="#97CBD6" d="M424.645,41.025c1.025,0.327,2.1,0.584,3.221,0.771c0.932,0.233,1.994,0.42,3.184,0.56
		c1.191,0.141,2.393,0.21,3.605,0.21c2.146,0,3.221-0.793,3.221-2.38c0-0.605-0.328-1.225-0.98-1.854
		c-0.654-0.631-1.482-1.33-2.484-2.101c-1.004-0.77-2.078-1.621-3.221-2.555c-1.145-0.934-2.217-2.006-3.221-3.22
		s-1.832-2.578-2.484-4.096c-0.654-1.516-0.98-3.255-0.98-5.215c0-2.192,0.396-4.13,1.191-5.81c0.793-1.681,1.889-3.08,3.289-4.2
		s3.045-1.971,4.936-2.555c1.891-0.583,3.908-0.875,6.055-0.875c1.119,0,2.24,0.059,3.359,0.175c1.121,0.117,2.123,0.222,3.01,0.314
		c1.027,0.141,2.031,0.28,3.012,0.42v13.091c-0.375-0.046-0.795-0.094-1.262-0.141c-0.373-0.046-0.793-0.093-1.26-0.14
		c-0.467-0.046-0.957-0.07-1.469-0.07c-0.281,0-0.631,0.012-1.051,0.035c-0.42,0.024-0.816,0.082-1.189,0.175
		c-0.375,0.095-0.701,0.257-0.98,0.49c-0.279,0.234-0.42,0.56-0.42,0.979c0,0.375,0.314,0.841,0.945,1.4
		c0.629,0.561,1.4,1.214,2.311,1.96c0.908,0.747,1.912,1.61,3.01,2.59c1.096,0.98,2.1,2.101,3.01,3.36s1.68,2.684,2.311,4.27
		c0.629,1.588,0.943,3.36,0.943,5.32c0,2.054-0.326,3.979-0.979,5.775c-0.654,1.797-1.67,3.359-3.045,4.689
		c-1.377,1.33-3.141,2.38-5.285,3.15c-2.148,0.77-4.691,1.155-7.631,1.155c-1.773,0-3.418-0.082-4.936-0.245
		c-1.516-0.164-2.857-0.362-4.023-0.596c-1.355-0.233-2.592-0.513-3.711-0.84V41.025z M430.525,49.426
		c0.652,0.14,1.352,0.257,2.1,0.35c0.652,0.095,1.34,0.175,2.064,0.245c0.723,0.07,1.459,0.105,2.205,0.105
		c1.307,0,2.578-0.151,3.814-0.455s2.346-0.806,3.326-1.505c0.979-0.7,1.76-1.599,2.344-2.695c0.584-1.096,0.875-2.438,0.875-4.025
		c0-1.353-0.338-2.636-1.014-3.85c-0.678-1.213-1.541-2.38-2.59-3.5c-1.051-1.12-2.17-2.193-3.361-3.22
		c-1.189-1.026-2.309-2.065-3.359-3.115s-1.914-2.101-2.59-3.15c-0.678-1.05-1.016-2.135-1.016-3.255
		c0-1.68,0.537-2.975,1.611-3.885c1.072-0.91,2.799-1.365,5.18-1.365c0.373,0,0.758,0.012,1.154,0.035
		c0.396,0.024,0.781,0.059,1.154,0.105s0.746,0.069,1.121,0.069v-1.819c-0.328,0-0.678-0.023-1.051-0.07
		c-0.326-0.046-0.689-0.081-1.084-0.105c-0.398-0.022-0.805-0.035-1.225-0.035c-2.521,0-4.598,0.572-6.23,1.716
		c-1.635,1.144-2.451,2.929-2.451,5.354c0,1.308,0.338,2.532,1.016,3.675c0.676,1.145,1.541,2.265,2.59,3.36
		c1.051,1.097,2.17,2.159,3.359,3.185c1.191,1.027,2.311,2.065,3.361,3.115c1.049,1.05,1.912,2.135,2.59,3.255
		c0.676,1.12,1.016,2.287,1.016,3.5c0,2.24-0.76,3.944-2.275,5.11c-1.518,1.167-3.605,1.75-6.266,1.75
		c-1.588,0-3.033-0.116-4.34-0.35c-0.699-0.094-1.377-0.21-2.029-0.351V49.426z"/>
</g>
<text transform="matrix(1 0 0 1 274.7827 86)" display="none"><tspan x="0" y="0" display="inline" fill="#F7CE87" font-family="'Phosphate-Inline'" font-size="70">i</tspan><tspan x="20.719" y="0" display="inline" fill="#97CBD6" font-family="'Phosphate-Inline'" font-size="70">n</tspan><tspan x="65.378" y="0" display="inline" fill="#F6A482" font-family="'Phosphate-Inline'" font-size="70">t</tspan><tspan x="97.997" y="0" display="inline" fill="#77A9C1" font-family="'Phosphate-Inline'" font-size="70">e</tspan><tspan x="130.198" y="0" display="inline" fill="#F7CE87" font-family="'Phosphate-Inline'" font-size="70">r</tspan><tspan x="171.006" y="0" display="inline" fill="#97CBD6" font-family="'Phosphate-Inline'" font-size="70">e</tspan><tspan x="203.206" y="0" display="inline" fill="#F6A482" font-family="'Phosphate-Inline'" font-size="70">s</tspan><tspan x="234.706" y="0" display="inline" fill="#77A9C1" font-family="'Phosphate-Inline'" font-size="70">t</tspan><tspan x="267.325" y="0" display="inline" fill="#F7CE87" font-family="'Phosphate-Inline'" font-size="70">s</tspan></text>
</svg>
