<?xml version="1.0" encoding="utf-8"?>
<!-- Generator: Adobe Illustrator 16.0.0, SVG Export Plug-In . SVG Version: 6.00 Build 0)  -->
<!DOCTYPE svg PUBLIC "-//W3C//DTD SVG 1.1//EN" "http://www.w3.org/Graphics/SVG/1.1/DTD/svg11.dtd">
<svg version="1.1" id="Layer_1" xmlns="http://www.w3.org/2000/svg" xmlns:xlink="http://www.w3.org/1999/xlink" x="0px" y="0px"
	 width="300px" height="135px" viewBox="0 0 300 135" enable-background="new 0 0 300 135" xml:space="preserve">
<g>
	<path d="M62.663,21.079h6V78.28h-6V52.68H28.662V78.28h-6V21.079h6V46.68h34.001V21.079z"/>
	<path d="M104.742,21.079l25.121,57.201h-6.48l-7.76-17.68H89.302l-7.76,17.68h-6.48l25.121-57.201H104.742z M112.982,54.68
		l-10.48-23.92l-10.56,23.92H112.982z"/>
	<path d="M208.502,21.079h6.32L191.781,78.28h-4.48l-23.359-57.201h6.32l19.279,47.041L208.502,21.079z"/>
	<path d="M277.941,49.56c0,15.68-12.721,28.401-28.32,28.401c-15.68,0-28.4-12.721-28.4-28.401s12.721-28.4,28.4-28.4
		C265.221,21.159,277.941,33.879,277.941,49.56z M272.102,49.56c0-12.4-10.08-22.48-22.48-22.48s-22.48,10.08-22.48,22.48
		s10.08,22.561,22.48,22.561S272.102,61.96,272.102,49.56z"/>
</g>
<g>
	<path d="M56.864,97.41h12.222v1.874H58.738v6.124h7.673v1.874h-7.673v7.998h-1.875V97.41z"/>
	<path d="M82.336,113.431v1.85H70.514V97.41h1.875v16.021H82.336z"/>
	<path d="M99.584,106.308c0,4.898-3.974,8.872-8.848,8.872c-4.899,0-8.873-3.974-8.873-8.872c0-4.899,3.974-8.873,8.873-8.873
		C95.61,97.435,99.584,101.408,99.584,106.308z M97.759,106.308c0-3.874-3.149-7.023-7.023-7.023c-3.875,0-7.023,3.149-7.023,7.023
		s3.149,7.048,7.023,7.048C94.61,113.355,97.759,110.182,97.759,106.308z"/>
	<path d="M121.408,97.41l-4.849,17.87h-1.5l-4.149-13.847l-3.999,13.847h-1.5l-5.049-17.87h1.924l3.874,13.771l3.974-13.771h1.5
		l4.124,13.771l3.75-13.771H121.408z"/>
	<path d="M123.413,97.41h11.772v1.874h-9.897v6.124h7.223v1.874h-7.223v6.124h9.897v1.874h-11.772V97.41z"/>
	<path d="M141.312,107.282l9.023,7.998h-2.774l-8.498-7.573v7.573h-1.875V97.41h7.073c2.699,0,4.899,2.225,4.899,4.924
		c0,2.724-2.2,4.948-4.899,4.948H141.312z M139.062,105.408h5.199c1.675,0,3.049-1.375,3.049-3.074c0-1.676-1.375-3.05-3.049-3.05
		h-5.199V105.408z"/>
	<path d="M175.609,106.332c0,4.949-3.999,8.948-8.923,8.948h-5.698V97.41h5.698C171.61,97.41,175.609,101.408,175.609,106.332z
		 M173.76,106.332c0-3.898-3.174-7.072-7.073-7.072h-3.824v14.171h3.824C170.586,113.431,173.76,110.256,173.76,106.332z"/>
	<path d="M177.613,97.41h11.771v1.874h-9.897v6.124h7.224v1.874h-7.224v6.124h9.897v1.874h-11.771V97.41z"/>
	<path d="M204.459,110.356c0,2.725-2.599,4.924-5.773,4.924h-1.524c-3.175,0-5.773-2.199-5.773-4.924c0-0.024,0-0.05,0-0.101
		l0.024-0.699h1.95l-0.024,0.8c-0.051,1.675,1.725,3.05,3.823,3.05h1.524c2.1,0,3.824-1.375,3.824-3.05
		c0-1.7-1.725-3.074-3.824-3.074h-0.05c-0.05,0-0.149,0-0.249,0h-0.4c-1.025-0.05-2.4-0.175-3.149-0.625
		c-1.975-1.149-2.925-2.55-2.925-4.323c0-2.699,2.6-4.924,5.773-4.924h0.451c3.074,0,5.623,2.049,5.773,4.674l0.049,0.75h-1.949
		l-0.05-0.676c-0.125-1.625-1.8-2.874-3.823-2.874h-0.451c-2.1,0-3.799,1.374-3.799,3.05c0,1.648,1.6,3.023,3.6,3.074h0.125h0.05
		h0.75v0.024c0.85,0.024,1.274,0.05,1.3,0.075h0.074C202.51,105.832,204.459,107.982,204.459,110.356z"/>
	<path d="M210.661,99.284v14.146h3.05v1.85h-7.974v-1.85h3.05V99.284h-3.05V97.41h7.974v1.874H210.661z"/>
	<path d="M222.436,107.133h9.123l-0.101,0.975c-0.476,4.248-4.499,7.173-8.772,7.173c-4.949,0-8.948-3.974-8.948-8.923
		c0-4.924,3.999-8.947,8.948-8.947c4.123,0,7.697,2.849,8.672,6.822h-1.924c-0.925-2.924-3.649-4.973-6.748-4.973
		c-3.924,0-7.099,3.199-7.099,7.098c0,3.924,3.175,7.098,7.099,7.098c2.924,0,5.498-1.773,6.572-4.448h-6.822V107.133z"/>
	<path d="M246.26,97.41h1.874v17.87h-1.499l-11.197-14.321v14.321h-1.875V97.41h1.5l11.197,14.32V97.41z"/>
</g>
</svg>
