<?xml version="1.0" encoding="utf-8"?>
<!-- Generator: Adobe Illustrator 16.0.0, SVG Export Plug-In . SVG Version: 6.00 Build 0)  -->
<!DOCTYPE svg PUBLIC "-//W3C//DTD SVG 1.1//EN" "http://www.w3.org/Graphics/SVG/1.1/DTD/svg11.dtd">
<svg version="1.1" id="Layer_1" xmlns="http://www.w3.org/2000/svg" xmlns:xlink="http://www.w3.org/1999/xlink" x="0px" y="0px"
	 width="720px" height="65px" viewBox="0 0 720 65" enable-background="new 0 0 720 65" xml:space="preserve">
<g>
	<path fill="#F7CE87" d="M60.929,21.643h-8.61V9.393h32.62v12.25h-8.61v34.439h-15.4V21.643z M69.539,50.482v-33.81h10.01v-1.68
		h-21.84v1.68h10.01v33.81H69.539z"/>
	<path fill="#97CBD6" d="M87.388,9.393h14.91v15.89h8.33V9.393h14.98v46.689h-14.98V38.793h-8.33v17.289h-14.91V9.393z
		 M96.208,50.482v-17.71h20.58v17.71h1.82v-35.49h-1.82v16.1h-20.58v-16.1h-1.82v35.49H96.208z"/>
	<path fill="#F6A482" d="M130.508,9.393h15.82v46.689h-15.82V9.393z M139.328,50.482v-35.49h-1.82v35.49H139.328z"/>
	<path fill="#77A9C1" d="M149.967,41.592c1.026,0.328,2.1,0.585,3.22,0.771c0.933,0.234,1.995,0.421,3.185,0.56
		c1.19,0.141,2.391,0.211,3.605,0.211c2.146,0,3.22-0.793,3.22-2.381c0-0.605-0.327-1.225-0.98-1.854
		c-0.654-0.63-1.482-1.33-2.485-2.101c-1.004-0.77-2.077-1.62-3.22-2.555c-1.144-0.933-2.217-2.005-3.22-3.22
		c-1.004-1.213-1.832-2.578-2.485-4.095c-0.654-1.516-0.98-3.255-0.98-5.215c0-2.193,0.396-4.13,1.19-5.81
		c0.793-1.68,1.89-3.08,3.29-4.2c1.4-1.12,3.045-1.971,4.935-2.555c1.89-0.583,3.908-0.875,6.055-0.875
		c1.12,0,2.24,0.059,3.36,0.175c1.12,0.117,2.123,0.222,3.01,0.315c1.026,0.14,2.03,0.28,3.01,0.42v13.09
		c-0.374-0.046-0.794-0.093-1.26-0.14c-0.374-0.046-0.794-0.093-1.26-0.14c-0.467-0.046-0.957-0.07-1.47-0.07
		c-0.28,0-0.63,0.012-1.05,0.035c-0.42,0.024-0.817,0.082-1.19,0.175c-0.374,0.094-0.7,0.257-0.98,0.49
		c-0.28,0.234-0.42,0.56-0.42,0.98c0,0.374,0.315,0.84,0.945,1.4c0.63,0.56,1.4,1.214,2.31,1.96c0.91,0.747,1.913,1.61,3.01,2.59
		c1.096,0.98,2.1,2.1,3.01,3.36c0.91,1.259,1.68,2.684,2.31,4.27c0.63,1.587,0.945,3.36,0.945,5.319c0,2.055-0.327,3.979-0.98,5.775
		c-0.654,1.797-1.669,3.36-3.045,4.689c-1.377,1.33-3.139,2.381-5.285,3.15c-2.147,0.771-4.69,1.155-7.63,1.155
		c-1.774,0-3.419-0.082-4.935-0.245c-1.517-0.164-2.859-0.361-4.025-0.595c-1.354-0.234-2.59-0.513-3.71-0.841V41.592z
		 M155.847,49.992c0.653,0.141,1.353,0.258,2.1,0.35c0.653,0.095,1.341,0.176,2.065,0.246c0.723,0.07,1.458,0.104,2.205,0.104
		c1.306,0,2.578-0.151,3.815-0.455c1.236-0.303,2.345-0.805,3.325-1.505c0.98-0.699,1.761-1.598,2.345-2.695
		c0.583-1.096,0.875-2.438,0.875-4.024c0-1.353-0.339-2.636-1.015-3.851c-0.677-1.213-1.54-2.379-2.59-3.5
		c-1.05-1.119-2.17-2.192-3.36-3.22c-1.19-1.026-2.31-2.065-3.36-3.115c-1.05-1.05-1.914-2.1-2.59-3.15
		c-0.677-1.05-1.015-2.135-1.015-3.255c0-1.68,0.536-2.975,1.61-3.885c1.073-0.91,2.8-1.365,5.18-1.365
		c0.373,0,0.758,0.012,1.155,0.035c0.396,0.024,0.781,0.059,1.155,0.105c0.373,0.047,0.746,0.07,1.12,0.07v-1.82
		c-0.327,0-0.677-0.023-1.05-0.07c-0.327-0.046-0.689-0.081-1.085-0.105c-0.397-0.023-0.805-0.035-1.225-0.035
		c-2.52,0-4.597,0.572-6.23,1.715c-1.634,1.144-2.45,2.929-2.45,5.355c0,1.307,0.338,2.532,1.015,3.675
		c0.676,1.144,1.54,2.264,2.59,3.36c1.05,1.097,2.17,2.159,3.36,3.185c1.19,1.027,2.31,2.064,3.36,3.115
		c1.05,1.05,1.913,2.135,2.59,3.255c0.676,1.12,1.015,2.286,1.015,3.5c0,2.239-0.759,3.944-2.275,5.11
		c-1.517,1.166-3.605,1.75-6.265,1.75c-1.587,0-3.034-0.117-4.34-0.351c-0.7-0.093-1.377-0.21-2.03-0.351V49.992z"/>
	<path fill="#F7CE87" d="M196.727,9.393h15.82v46.689h-15.82V9.393z M205.547,50.482v-35.49h-1.82v35.49H205.547z"/>
	<path fill="#97C8D6" d="M216.186,41.592c1.026,0.328,2.1,0.585,3.22,0.771c0.933,0.234,1.995,0.421,3.185,0.56
		c1.19,0.141,2.391,0.211,3.605,0.211c2.146,0,3.22-0.793,3.22-2.381c0-0.605-0.327-1.225-0.98-1.854
		c-0.654-0.63-1.482-1.33-2.485-2.101c-1.004-0.77-2.077-1.62-3.22-2.555c-1.144-0.933-2.217-2.005-3.22-3.22
		c-1.004-1.213-1.832-2.578-2.485-4.095c-0.654-1.516-0.98-3.255-0.98-5.215c0-2.193,0.396-4.13,1.19-5.81
		c0.793-1.68,1.89-3.08,3.29-4.2c1.4-1.12,3.045-1.971,4.935-2.555c1.89-0.583,3.908-0.875,6.055-0.875
		c1.12,0,2.24,0.059,3.36,0.175c1.12,0.117,2.123,0.222,3.01,0.315c1.026,0.14,2.03,0.28,3.01,0.42v13.09
		c-0.374-0.046-0.794-0.093-1.26-0.14c-0.374-0.046-0.794-0.093-1.26-0.14c-0.467-0.046-0.957-0.07-1.47-0.07
		c-0.28,0-0.63,0.012-1.05,0.035c-0.42,0.024-0.817,0.082-1.19,0.175c-0.374,0.094-0.7,0.257-0.98,0.49
		c-0.28,0.234-0.42,0.56-0.42,0.98c0,0.374,0.315,0.84,0.945,1.4c0.63,0.56,1.4,1.214,2.31,1.96c0.91,0.747,1.913,1.61,3.01,2.59
		c1.096,0.98,2.1,2.1,3.01,3.36c0.91,1.259,1.68,2.684,2.31,4.27c0.63,1.587,0.945,3.36,0.945,5.319c0,2.055-0.327,3.979-0.98,5.775
		c-0.654,1.797-1.669,3.36-3.045,4.689c-1.377,1.33-3.139,2.381-5.285,3.15c-2.147,0.771-4.69,1.155-7.63,1.155
		c-1.774,0-3.419-0.082-4.935-0.245c-1.517-0.164-2.859-0.361-4.025-0.595c-1.354-0.234-2.59-0.513-3.71-0.841V41.592z
		 M222.066,49.992c0.653,0.141,1.353,0.258,2.1,0.35c0.653,0.095,1.341,0.176,2.065,0.246c0.723,0.07,1.458,0.104,2.205,0.104
		c1.306,0,2.578-0.151,3.815-0.455c1.236-0.303,2.345-0.805,3.325-1.505c0.98-0.699,1.761-1.598,2.345-2.695
		c0.583-1.096,0.875-2.438,0.875-4.024c0-1.353-0.339-2.636-1.015-3.851c-0.677-1.213-1.54-2.379-2.59-3.5
		c-1.05-1.119-2.17-2.192-3.36-3.22c-1.19-1.026-2.31-2.065-3.36-3.115c-1.05-1.05-1.914-2.1-2.59-3.15
		c-0.677-1.05-1.015-2.135-1.015-3.255c0-1.68,0.536-2.975,1.61-3.885c1.073-0.91,2.8-1.365,5.18-1.365
		c0.373,0,0.758,0.012,1.155,0.035c0.396,0.024,0.781,0.059,1.155,0.105c0.373,0.047,0.746,0.07,1.12,0.07v-1.82
		c-0.327,0-0.677-0.023-1.05-0.07c-0.327-0.046-0.689-0.081-1.085-0.105c-0.397-0.023-0.805-0.035-1.225-0.035
		c-2.52,0-4.597,0.572-6.23,1.715c-1.634,1.144-2.45,2.929-2.45,5.355c0,1.307,0.338,2.532,1.015,3.675
		c0.676,1.144,1.54,2.264,2.59,3.36c1.05,1.097,2.17,2.159,3.36,3.185c1.19,1.027,2.31,2.064,3.36,3.115
		c1.05,1.05,1.913,2.135,2.59,3.255c0.676,1.12,1.015,2.286,1.015,3.5c0,2.239-0.759,3.944-2.275,5.11
		c-1.517,1.166-3.605,1.75-6.265,1.75c-1.587,0-3.034-0.117-4.34-0.351c-0.7-0.093-1.377-0.21-2.03-0.351V49.992z"/>
	<path fill="#F5A280" d="M262.946,9.393h12.32l12.18,17.92l12.11-17.92h12.32v46.689h-14.91V39.283l-9.52,14l-9.59-14v16.799h-14.91
		V9.393z M271.766,50.482v-32.13l15.68,22.819l15.61-22.819v32.13h1.82v-35.49h-1.82l-15.61,23.03l-15.68-23.03h-1.82v35.49H271.766
		z"/>
	<path fill="#77A9C1" d="M327.415,35.992l-14.49-26.6h16.59l5.39,9.87l5.32-9.87h16.59l-14.49,26.6v20.09h-14.91V35.992z
		 M335.815,50.482v-16.73l10.22-18.759h-2.17l-8.96,16.59l-9.03-16.59h-2.1l10.15,18.759v16.73H335.815z"/>
	<path fill="#F3CD86" d="M408.194,27.172c0,3.22-0.561,5.962-1.681,8.225c-1.119,2.265-2.648,4.095-4.585,5.495
		s-4.199,2.427-6.79,3.08c-2.59,0.654-5.379,0.98-8.364,0.98v11.129h-14.91V9.393h14.91c2.985,0,5.774,0.327,8.364,0.98
		c2.591,0.654,4.854,1.68,6.79,3.08s3.466,3.232,4.585,5.495C407.634,21.211,408.194,23.953,408.194,27.172z M401.404,27.172
		c0-2.1-0.362-3.92-1.085-5.46c-0.725-1.54-1.739-2.8-3.045-3.78c-1.308-0.98-2.859-1.715-4.655-2.205
		c-1.797-0.49-3.745-0.735-5.845-0.735h-7.91v35.49h1.819v-11.13h6.091c2.1,0,4.048-0.245,5.845-0.735
		c1.796-0.49,3.348-1.225,4.655-2.205c1.306-0.979,2.32-2.24,3.045-3.78C401.042,31.092,401.404,29.272,401.404,27.172z
		 M399.444,27.172c0,2.007-0.351,3.687-1.05,5.04c-0.7,1.354-1.635,2.427-2.801,3.22c-1.167,0.794-2.509,1.364-4.024,1.715
		c-1.518,0.351-3.115,0.524-4.795,0.524h-6.091v-21h6.091c1.68,0,3.277,0.175,4.795,0.525c1.516,0.35,2.857,0.922,4.024,1.715
		c1.166,0.794,2.101,1.867,2.801,3.22C399.094,23.487,399.444,25.167,399.444,27.172z M386.774,32.353h0.63
		c1.96,0,3.371-0.455,4.234-1.365c0.863-0.91,1.295-2.181,1.295-3.815c0-1.633-0.432-2.905-1.295-3.815
		c-0.863-0.91-2.274-1.365-4.234-1.365h-0.63V32.353z"/>
	<path fill="#97C8D6" d="M411.693,9.393h16.1c2.986,0,5.751,0.397,8.295,1.19c2.543,0.794,4.748,1.96,6.615,3.5
		c1.866,1.54,3.325,3.442,4.375,5.705c1.05,2.264,1.575,4.865,1.575,7.805c0,2.334-0.327,4.317-0.98,5.951
		c-0.653,1.634-1.377,2.986-2.17,4.06c-0.934,1.214-1.983,2.239-3.149,3.08l8.75,15.399h-17.5l-7-11.83v11.83h-14.91V9.393z
		 M426.253,39.842c1.82,0,3.593-0.186,5.32-0.559l6.65,11.199h2.17l-7-11.76c2.52-0.887,4.525-2.251,6.02-4.096
		c1.493-1.842,2.24-4.234,2.24-7.174c0-2.053-0.397-3.85-1.19-5.39c-0.794-1.54-1.879-2.835-3.255-3.885
		c-1.377-1.05-2.999-1.843-4.865-2.38c-1.866-0.536-3.896-0.805-6.09-0.805h-7.56v35.49h1.819V39.842H426.253z M420.513,38.162
		v-21.49h5.74c4.246,0,7.571,0.934,9.976,2.8c2.402,1.867,3.604,4.527,3.604,7.98c0,3.454-1.202,6.102-3.604,7.945
		c-2.404,1.845-5.729,2.765-9.976,2.765H420.513z M426.604,32.353h0.77c1.773,0,3.278-0.396,4.515-1.19
		c1.236-0.793,1.855-2.123,1.855-3.99c0-1.866-0.619-3.196-1.855-3.99c-1.236-0.793-2.741-1.19-4.515-1.19h-0.77V32.353z"/>
	<path fill="#F5A280" d="M451.453,32.772c0-3.36,0.641-6.533,1.925-9.52c1.283-2.986,3.033-5.588,5.25-7.805
		c2.216-2.216,4.817-3.966,7.805-5.25c2.986-1.283,6.16-1.925,9.521-1.925c3.359,0,6.532,0.642,9.52,1.925
		c2.986,1.284,5.588,3.034,7.805,5.25c2.217,2.217,3.967,4.819,5.25,7.805c1.283,2.987,1.926,6.16,1.926,9.52
		c0,3.36-0.643,6.534-1.926,9.521s-3.033,5.588-5.25,7.805s-4.818,3.967-7.805,5.25c-2.987,1.283-6.16,1.925-9.52,1.925
		c-3.36,0-6.534-0.642-9.521-1.925c-2.987-1.283-5.589-3.033-7.805-5.25c-2.217-2.217-3.967-4.818-5.25-7.805
		C452.094,39.307,451.453,36.133,451.453,32.772z M458.033,32.772c0,2.474,0.466,4.795,1.399,6.965
		c0.933,2.171,2.216,4.072,3.851,5.705c1.633,1.634,3.534,2.917,5.704,3.851c2.171,0.934,4.491,1.399,6.966,1.399
		c2.473,0,4.795-0.466,6.965-1.399s4.07-2.217,5.705-3.851c1.633-1.633,2.916-3.534,3.85-5.705c0.933-2.17,1.4-4.491,1.4-6.965
		c0-2.473-0.468-4.795-1.4-6.965c-0.934-2.17-2.217-4.071-3.85-5.705c-1.635-1.633-3.535-2.916-5.705-3.85
		c-2.17-0.933-4.492-1.4-6.965-1.4c-2.475,0-4.795,0.467-6.966,1.4c-2.17,0.934-4.071,2.217-5.704,3.85
		c-1.635,1.634-2.918,3.535-3.851,5.705C458.499,27.978,458.033,30.299,458.033,32.772z M475.953,48.873
		c-2.24,0-4.329-0.42-6.266-1.261c-1.937-0.84-3.64-1.995-5.109-3.465c-1.471-1.47-2.625-3.173-3.466-5.11
		c-0.84-1.936-1.26-4.024-1.26-6.265c0-2.24,0.42-4.328,1.26-6.265c0.841-1.936,1.995-3.64,3.466-5.11
		c1.47-1.47,3.173-2.625,5.109-3.465c1.937-0.84,4.025-1.26,6.266-1.26c2.239,0,4.327,0.42,6.265,1.26
		c1.936,0.84,3.64,1.995,5.11,3.465c1.47,1.47,2.625,3.174,3.465,5.11c0.84,1.937,1.26,4.025,1.26,6.265
		c0,2.24-0.42,4.329-1.26,6.265c-0.84,1.938-1.995,3.641-3.465,5.11c-1.471,1.47-3.175,2.625-5.11,3.465
		C480.28,48.453,478.192,48.873,475.953,48.873z M466.152,32.772c0,1.354,0.256,2.625,0.771,3.815
		c0.513,1.189,1.213,2.229,2.1,3.115c0.886,0.887,1.925,1.586,3.115,2.1s2.461,0.77,3.815,0.77c1.353,0,2.625-0.256,3.814-0.77
		c1.19-0.514,2.229-1.213,3.115-2.1c0.886-0.887,1.586-1.926,2.1-3.115c0.514-1.19,0.771-2.461,0.771-3.815
		c0-1.353-0.257-2.625-0.771-3.815s-1.214-2.228-2.1-3.115c-0.887-0.886-1.925-1.586-3.115-2.1c-1.189-0.513-2.462-0.77-3.814-0.77
		c-1.354,0-2.625,0.257-3.815,0.77c-1.19,0.514-2.229,1.214-3.115,2.1c-0.887,0.887-1.587,1.925-2.1,3.115
		C466.408,30.147,466.152,31.419,466.152,32.772z"/>
	<path fill="#77A9C1" d="M501.853,44.883h5.11c1.492,0,2.495-0.28,3.01-0.84c0.513-0.561,0.77-1.354,0.77-2.381V9.393h15.33v34.859
		c0,4.34-0.992,7.397-2.975,9.17c-1.984,1.775-5.146,2.66-9.485,2.66h-11.76V44.883z M513.122,50.482
		c2.286,0,3.886-0.501,4.796-1.505c0.909-1.003,1.364-2.508,1.364-4.515v-29.47h-1.819v29.47c0,1.447-0.258,2.531-0.771,3.254
		c-0.514,0.725-1.704,1.086-3.57,1.086h-5.67v1.68H513.122z"/>
	<path fill="#F7CE87" d="M530.832,9.393h27.51v12.25h-12.6v5.18h12.39v11.62h-12.39v5.39h13.09v12.25h-28V9.393z M553.651,50.482
		v-1.68h-14v-15.33h13.301v-1.68h-13.301v-15.12h14v-1.68h-15.819v35.49H553.651z"/>
	<path fill="#97C8D6" d="M561.981,32.772c0-3.733,0.652-7.105,1.96-10.115c1.306-3.01,3.08-5.588,5.319-7.735
		c2.24-2.146,4.854-3.791,7.84-4.935c2.986-1.143,6.16-1.715,9.521-1.715c2.66,0,5.028,0.257,7.104,0.77
		c2.076,0.514,3.861,1.097,5.355,1.75c1.726,0.747,3.22,1.564,4.48,2.45l-7.351,12.95c-0.747-0.56-1.563-1.096-2.45-1.61
		c-0.794-0.373-1.738-0.735-2.835-1.085s-2.345-0.525-3.745-0.525c-1.446,0-2.776,0.257-3.989,0.77
		c-1.215,0.514-2.275,1.214-3.186,2.1c-0.91,0.887-1.622,1.925-2.135,3.115c-0.514,1.19-0.771,2.462-0.771,3.815
		c0,1.354,0.269,2.625,0.806,3.815c0.536,1.189,1.271,2.229,2.205,3.115c0.933,0.887,2.029,1.586,3.29,2.1
		c1.26,0.514,2.636,0.77,4.13,0.77c1.493,0,2.823-0.186,3.99-0.56c1.165-0.373,2.146-0.793,2.939-1.261
		c0.933-0.512,1.75-1.119,2.45-1.819l7.35,12.95c-1.26,1.027-2.754,1.937-4.479,2.729c-1.494,0.654-3.29,1.261-5.391,1.82
		c-2.1,0.56-4.504,0.84-7.21,0.84c-3.64,0-7-0.595-10.08-1.785c-3.079-1.19-5.739-2.858-7.979-5.005s-3.99-4.725-5.25-7.734
		C562.611,39.737,561.981,36.412,561.981,32.772z M570.801,32.772c0-2.24,0.386-4.34,1.155-6.3s1.855-3.663,3.255-5.11
		c1.4-1.446,3.104-2.59,5.11-3.43c2.006-0.84,4.246-1.26,6.72-1.26c1.213,0,2.298,0.082,3.255,0.245
		c0.956,0.164,1.761,0.362,2.415,0.595c0.793,0.234,1.47,0.514,2.03,0.84l0.979-1.68c-0.747-0.326-1.54-0.63-2.38-0.91
		c-0.794-0.233-1.704-0.443-2.729-0.63c-1.027-0.186-2.218-0.28-3.57-0.28c-2.38,0-4.655,0.42-6.825,1.26
		c-2.17,0.84-4.084,2.042-5.74,3.605c-1.656,1.564-2.986,3.454-3.989,5.67c-1.004,2.217-1.505,4.679-1.505,7.385
		c0,2.754,0.478,5.228,1.435,7.42c0.956,2.194,2.275,4.072,3.955,5.636s3.64,2.764,5.88,3.604c2.24,0.84,4.62,1.26,7.14,1.26
		c1.4,0,2.66-0.116,3.78-0.351c1.12-0.232,2.076-0.489,2.87-0.77c0.886-0.326,1.68-0.699,2.38-1.119l-0.979-1.681
		c-0.607,0.42-1.308,0.771-2.101,1.05c-0.7,0.28-1.54,0.525-2.52,0.735c-0.98,0.21-2.124,0.315-3.431,0.315
		c-2.566,0-4.877-0.42-6.93-1.261c-2.054-0.84-3.792-1.983-5.215-3.43c-1.424-1.446-2.521-3.149-3.29-5.11
		C571.187,37.112,570.801,35.013,570.801,32.772z"/>
	<path fill="#77A9C1" d="M612.172,21.643h-8.61V9.393h32.62v12.25h-8.61v34.439h-15.399V21.643z M620.781,50.482v-33.81h10.011
		v-1.68h-21.841v1.68h10.011v33.81H620.781z"/>
	<path fill="#F7CE87" d="M637.371,41.592c1.025,0.328,2.1,0.585,3.22,0.771c0.933,0.234,1.995,0.421,3.185,0.56
		c1.19,0.141,2.392,0.211,3.605,0.211c2.146,0,3.22-0.793,3.22-2.381c0-0.605-0.327-1.225-0.979-1.854
		c-0.654-0.63-1.482-1.33-2.485-2.101c-1.004-0.77-2.077-1.62-3.22-2.555c-1.145-0.933-2.218-2.005-3.221-3.22
		c-1.004-1.213-1.832-2.578-2.484-4.095c-0.654-1.516-0.98-3.255-0.98-5.215c0-2.193,0.396-4.13,1.19-5.81
		c0.793-1.68,1.89-3.08,3.29-4.2c1.399-1.12,3.045-1.971,4.935-2.555c1.891-0.583,3.908-0.875,6.055-0.875
		c1.12,0,2.24,0.059,3.36,0.175c1.12,0.117,2.123,0.222,3.01,0.315c1.026,0.14,2.03,0.28,3.011,0.42v13.09
		c-0.374-0.046-0.795-0.093-1.261-0.14c-0.374-0.046-0.794-0.093-1.26-0.14c-0.467-0.046-0.957-0.07-1.47-0.07
		c-0.28,0-0.63,0.012-1.05,0.035c-0.42,0.024-0.817,0.082-1.19,0.175c-0.374,0.094-0.7,0.257-0.979,0.49
		c-0.28,0.234-0.421,0.56-0.421,0.98c0,0.374,0.315,0.84,0.945,1.4s1.4,1.214,2.311,1.96c0.909,0.747,1.912,1.61,3.01,2.59
		c1.096,0.98,2.1,2.1,3.01,3.36c0.91,1.259,1.68,2.684,2.311,4.27c0.63,1.587,0.944,3.36,0.944,5.319
		c0,2.055-0.327,3.979-0.979,5.775c-0.654,1.797-1.669,3.36-3.045,4.689c-1.377,1.33-3.14,2.381-5.285,3.15
		c-2.147,0.771-4.69,1.155-7.63,1.155c-1.774,0-3.419-0.082-4.936-0.245c-1.517-0.164-2.858-0.361-4.024-0.595
		c-1.354-0.234-2.591-0.513-3.71-0.841V41.592z M643.251,49.992c0.652,0.141,1.353,0.258,2.1,0.35
		c0.653,0.095,1.341,0.176,2.065,0.246c0.723,0.07,1.458,0.104,2.205,0.104c1.306,0,2.577-0.151,3.814-0.455
		c1.236-0.303,2.345-0.805,3.325-1.505c0.979-0.699,1.761-1.598,2.345-2.695c0.583-1.096,0.875-2.438,0.875-4.024
		c0-1.353-0.339-2.636-1.015-3.851c-0.677-1.213-1.54-2.379-2.59-3.5c-1.051-1.119-2.17-2.192-3.36-3.22
		c-1.19-1.026-2.31-2.065-3.36-3.115c-1.05-1.05-1.914-2.1-2.59-3.15c-0.677-1.05-1.015-2.135-1.015-3.255
		c0-1.68,0.536-2.975,1.61-3.885c1.072-0.91,2.8-1.365,5.18-1.365c0.373,0,0.758,0.012,1.155,0.035
		c0.396,0.024,0.78,0.059,1.154,0.105c0.373,0.047,0.746,0.07,1.12,0.07v-1.82c-0.327,0-0.677-0.023-1.05-0.07
		c-0.327-0.046-0.689-0.081-1.085-0.105c-0.397-0.023-0.805-0.035-1.225-0.035c-2.521,0-4.598,0.572-6.23,1.715
		c-1.634,1.144-2.45,2.929-2.45,5.355c0,1.307,0.338,2.532,1.016,3.675c0.676,1.144,1.54,2.264,2.59,3.36
		c1.05,1.097,2.17,2.159,3.359,3.185c1.19,1.027,2.311,2.064,3.36,3.115c1.05,1.05,1.913,2.135,2.59,3.255
		c0.676,1.12,1.016,2.286,1.016,3.5c0,2.239-0.76,3.944-2.275,5.11c-1.518,1.166-3.605,1.75-6.265,1.75
		c-1.588,0-3.034-0.117-4.341-0.351c-0.699-0.093-1.377-0.21-2.029-0.351V49.992z"/>
</g>
</svg>
