<?xml version="1.0" encoding="utf-8"?>
<!-- Generator: Adobe Illustrator 16.0.0, SVG Export Plug-In . SVG Version: 6.00 Build 0)  -->
<!DOCTYPE svg PUBLIC "-//W3C//DTD SVG 1.1//EN" "http://www.w3.org/Graphics/SVG/1.1/DTD/svg11.dtd">
<svg version="1.1" id="Layer_1" xmlns="http://www.w3.org/2000/svg" xmlns:xlink="http://www.w3.org/1999/xlink" x="0px" y="0px"
	 width="300px" height="135px" viewBox="0 0 300 135" enable-background="new 0 0 300 135" xml:space="preserve">
<g display="none">
	<path display="inline" d="M62.663,21.079h6v57.2h-6V52.68H28.662v25.599h-6v-57.2h6V46.68h34.001V21.079z"/>
	<path display="inline" d="M104.742,21.079l25.121,57.2h-6.48l-7.76-17.679H89.302l-7.76,17.679h-6.48l25.121-57.2H104.742z
		 M112.982,54.68l-10.48-23.92l-10.56,23.92H112.982z"/>
	<path display="inline" d="M208.502,21.079h6.32l-23.041,57.2h-4.48l-23.359-57.2h6.32l19.279,47.041L208.502,21.079z"/>
	<path display="inline" d="M277.941,49.56c0,15.68-12.721,28.401-28.32,28.401c-15.68,0-28.4-12.721-28.4-28.401
		s12.721-28.4,28.4-28.4C265.221,21.159,277.941,33.879,277.941,49.56z M272.102,49.56c0-12.4-10.08-22.48-22.479-22.48
		s-22.479,10.08-22.479,22.48s10.08,22.561,22.479,22.561S272.102,61.96,272.102,49.56z"/>
</g>
<g display="none">
	<path display="inline" d="M56.864,97.41h12.222v1.874H58.738v6.124h7.673v1.874h-7.673v7.997h-1.875V97.41H56.864z"/>
	<path display="inline" d="M82.336,113.432v1.85H70.514V97.41h1.875v16.021H82.336z"/>
	<path display="inline" d="M99.584,106.309c0,4.897-3.974,8.871-8.848,8.871c-4.899,0-8.873-3.974-8.873-8.871
		c0-4.899,3.974-8.873,8.873-8.873C95.61,97.436,99.584,101.408,99.584,106.309z M97.759,106.309c0-3.875-3.149-7.023-7.023-7.023
		c-3.875,0-7.023,3.148-7.023,7.023c0,3.873,3.149,7.047,7.023,7.047S97.759,110.182,97.759,106.309z"/>
	<path display="inline" d="M121.408,97.41l-4.849,17.869h-1.5l-4.149-13.846l-3.999,13.846h-1.5l-5.049-17.869h1.924l3.874,13.771
		l3.974-13.771h1.5l4.124,13.771l3.75-13.771H121.408z"/>
	<path display="inline" d="M123.413,97.41h11.772v1.874h-9.897v6.124h7.223v1.874h-7.223v6.124h9.897v1.873h-11.772V97.41z"/>
	<path display="inline" d="M141.312,107.282l9.023,7.997h-2.774l-8.498-7.572v7.572h-1.875V97.41h7.073
		c2.699,0,4.899,2.225,4.899,4.924c0,2.725-2.2,4.948-4.899,4.948H141.312z M139.062,105.408h5.199c1.675,0,3.049-1.375,3.049-3.074
		c0-1.676-1.375-3.05-3.049-3.05h-5.199V105.408z"/>
	<path display="inline" d="M175.609,106.332c0,4.949-4,8.947-8.924,8.947h-5.697V97.41h5.697
		C171.609,97.41,175.609,101.408,175.609,106.332z M173.76,106.332c0-3.898-3.174-7.072-7.072-7.072h-3.824v14.172h3.824
		C170.586,113.432,173.76,110.256,173.76,106.332z"/>
	<path display="inline" d="M177.613,97.41h11.771v1.874h-9.897v6.124h7.225v1.874h-7.225v6.124h9.897v1.873h-11.771V97.41z"/>
	<path display="inline" d="M204.459,110.355c0,2.726-2.6,4.924-5.773,4.924h-1.523c-3.176,0-5.773-2.198-5.773-4.924
		c0-0.023,0-0.049,0-0.101l0.024-0.698h1.95l-0.024,0.799c-0.051,1.676,1.726,3.051,3.823,3.051h1.523
		c2.101,0,3.824-1.375,3.824-3.051c0-1.699-1.725-3.073-3.824-3.073h-0.049c-0.051,0-0.15,0-0.25,0h-0.4
		c-1.024-0.05-2.399-0.175-3.148-0.625c-1.975-1.149-2.925-2.55-2.925-4.323c0-2.699,2.601-4.924,5.772-4.924h0.451
		c3.074,0,5.623,2.049,5.773,4.674l0.049,0.75h-1.949l-0.05-0.676c-0.125-1.625-1.8-2.874-3.823-2.874h-0.451
		c-2.1,0-3.799,1.374-3.799,3.05c0,1.648,1.6,3.023,3.6,3.074h0.125h0.051h0.75v0.023c0.85,0.024,1.273,0.051,1.3,0.075h0.074
		C202.51,105.832,204.459,107.982,204.459,110.355z"/>
	<path display="inline" d="M210.661,99.284v14.146h3.05v1.85h-7.975v-1.85h3.051V99.284h-3.051V97.41h7.975v1.874H210.661z"/>
	<path display="inline" d="M222.436,107.133h9.123l-0.101,0.975c-0.476,4.248-4.499,7.174-8.772,7.174
		c-4.949,0-8.947-3.975-8.947-8.924c0-4.924,3.998-8.946,8.947-8.946c4.123,0,7.697,2.849,8.672,6.821h-1.924
		c-0.925-2.924-3.648-4.973-6.748-4.973c-3.924,0-7.099,3.199-7.099,7.098c0,3.925,3.175,7.099,7.099,7.099
		c2.924,0,5.498-1.772,6.572-4.448h-6.822V107.133z"/>
	<path display="inline" d="M246.26,97.41h1.874v17.869h-1.499l-11.197-14.32v14.32h-1.875V97.41h1.5l11.197,14.32V97.41z"/>
</g>
<g>
	<path d="M56.362,54.88h29.201L85.242,58c-1.52,13.6-14.4,22.96-28.081,22.96c-15.84,0-28.641-12.721-28.641-28.561
		c0-15.76,12.8-28.641,28.641-28.641c13.2,0,24.641,9.12,27.761,21.84h-6.16c-2.96-9.36-11.68-15.92-21.601-15.92
		c-12.56,0-22.721,10.24-22.721,22.721c0,12.56,10.161,22.721,22.721,22.721c9.36,0,17.601-5.681,21.041-14.241h-21.84V54.88z"/>
	<path d="M91.961,23.76h37.681v6H97.961V49.36h23.121v6H97.961v19.601h31.681v6H91.961V23.76z"/>
	<path d="M176.682,23.76h6v57.201h-4.801l-35.84-45.841v45.841h-6V23.76h4.8l35.841,45.841V23.76z"/>
	<path d="M233.16,80.961h-8.4L197.721,53.92l-2.641,2.72v24.32h-6V23.76h6v24.4l24.4-24.4h8.4l-25.922,26L233.16,80.961z"/>
	<path d="M255.32,29.76v45.281h9.76v5.92h-25.52v-5.92h9.76V29.76h-9.76v-6h25.52v6H255.32z"/>
</g>
<g>
	<path d="M55.45,101.361v14.146H58.5v1.85h-7.973v-1.85h3.049v-14.146h-3.049v-1.875H58.5v1.875H55.45z"/>
	<path d="M73.198,99.486h1.875v17.871h-1.5l-11.197-14.321v14.321h-1.875V99.486H62l11.197,14.322V99.486z"/>
	<path d="M77.076,99.486h12.222v1.875H78.95v6.123h7.673v1.875H78.95v7.998h-1.875V99.486z"/>
	<path d="M102.948,99.486h1.85v10.848c0,3.874-3.149,7.023-7.023,7.023c-3.649,0-6.648-2.774-7.023-6.323h-0.025v-0.7V99.486H92.6
		v10.923c0,2.824,2.35,5.099,5.174,5.099c2.799,0,5.174-2.274,5.174-5.073v-0.101V99.486z"/>
	<path d="M119.872,112.434c0,2.725-2.599,4.924-5.773,4.924h-1.525c-3.174,0-5.773-2.199-5.773-4.924c0-0.025,0-0.05,0-0.1
		l0.025-0.7h1.95l-0.025,0.8c-0.05,1.675,1.725,3.049,3.824,3.049h1.525c2.1,0,3.824-1.374,3.824-3.049
		c0-1.699-1.724-3.074-3.824-3.074h-0.05c-0.05,0-0.15,0-0.25,0h-0.4c-1.024-0.05-2.399-0.175-3.149-0.625
		c-1.975-1.149-2.924-2.549-2.924-4.324c0-2.699,2.599-4.924,5.773-4.924h0.45c3.074,0,5.624,2.05,5.773,4.674l0.05,0.75h-1.949
		l-0.05-0.675c-0.125-1.624-1.799-2.874-3.824-2.874h-0.45c-2.1,0-3.799,1.375-3.799,3.049c0,1.65,1.6,3.024,3.599,3.074h0.125h0.05
		h0.75v0.025c0.85,0.025,1.274,0.05,1.299,0.075h0.075C117.922,107.91,119.872,110.06,119.872,112.434z"/>
	<path d="M121.875,99.486h11.772v1.875h-9.897v6.123h7.223v1.875h-7.223v6.123h9.897v1.875h-11.772V99.486z"/>
	<path d="M139.774,109.359l9.023,7.998h-2.774l-8.498-7.573v7.573h-1.875V99.486h7.073c2.699,0,4.899,2.225,4.899,4.924
		c0,2.725-2.2,4.949-4.899,4.949H139.774z M137.525,107.484h5.199c1.675,0,3.049-1.374,3.049-3.074c0-1.674-1.375-3.049-3.049-3.049
		h-5.199V107.484z"/>
	<path d="M171.922,112.434c0,2.725-2.225,4.924-4.924,4.924h-7.548l0.05-0.725V99.486h6.599c2.725,0,4.924,2.225,4.924,4.924
		c0,1.45-0.625,2.774-1.649,3.699C170.897,108.959,171.922,110.584,171.922,112.434z M169.173,104.41
		c0-1.674-1.375-3.049-3.074-3.049h-4.749v6.123h4.749C167.798,107.484,169.173,106.11,169.173,104.41z M170.048,112.434
		c0-1.699-1.375-3.074-3.05-3.074h-5.648v6.123h5.648C168.673,115.482,170.048,114.108,170.048,112.434z"/>
	<path d="M191.646,108.385c0,4.898-3.974,8.873-8.848,8.873c-4.899,0-8.873-3.975-8.873-8.873c0-4.899,3.974-8.873,8.873-8.873
		C187.672,99.512,191.646,103.485,191.646,108.385z M189.821,108.385c0-3.874-3.149-7.023-7.023-7.023s-7.023,3.149-7.023,7.023
		s3.149,7.048,7.023,7.048S189.821,112.259,189.821,108.385z"/>
	<path d="M191.174,99.486h13.347v1.875h-5.748v15.996h-1.85v-15.996h-5.749V99.486z"/>
	<path d="M206.524,99.486h13.347v1.875h-5.749v15.996h-1.849v-15.996h-5.749V99.486z"/>
	<path d="M233.696,115.508v1.85h-11.822V99.486h1.875v16.021H233.696z"/>
	<path d="M235.699,99.486h11.772v1.875h-9.897v6.123h7.223v1.875h-7.223v6.123h9.897v1.875h-11.772V99.486z"/>
</g>
</svg>
