<?xml version="1.0" encoding="utf-8"?>
<!-- Generator: Adobe Illustrator 16.0.0, SVG Export Plug-In . SVG Version: 6.00 Build 0)  -->
<!DOCTYPE svg PUBLIC "-//W3C//DTD SVG 1.1//EN" "http://www.w3.org/Graphics/SVG/1.1/DTD/svg11.dtd">
<svg version="1.1" id="Layer_1" xmlns="http://www.w3.org/2000/svg" xmlns:xlink="http://www.w3.org/1999/xlink" x="0px" y="0px"
	 width="720px" height="65px" viewBox="0 0 720 65" enable-background="new 0 0 720 65" xml:space="preserve">
<g>
	<path fill="#F7CE87" d="M235.611,9.119h15.82l5.39,16.311l5.391-16.311h10.22l5.39,16.311l5.391-16.311h15.819l-15.399,46.69
		h-11.62l-4.69-14.14l-4.689,14.14h-11.62L235.611,9.119z M258.012,50.21l9.31-29.33l9.311,29.33h1.75l11.689-35.49h-1.89
		l-10.641,32.27l-10.22-32.27l-10.22,32.27l-10.64-32.27h-1.891l11.69,35.49H258.012z"/>
	<path fill="#97CBD6" d="M300.081,9.119h27.51v12.25h-12.6v5.181h12.39v11.62h-12.39v5.39h13.09v12.25h-28V9.119z M322.901,50.21
		v-1.681h-14v-15.33h13.3v-1.68h-13.3v-15.12h14v-1.68h-15.82v35.49H322.901z"/>
	<path fill="#F6A482" d="M332.281,9.119h18.27c2.333,0,4.468,0.27,6.405,0.806c1.936,0.537,3.592,1.33,4.97,2.38
		c1.376,1.05,2.45,2.356,3.22,3.92c0.77,1.564,1.155,3.395,1.155,5.495c0,1.494-0.187,2.765-0.56,3.814
		c-0.375,1.051-0.771,1.926-1.19,2.625c-0.515,0.841-1.097,1.54-1.75,2.101c1.026,0.654,1.96,1.494,2.8,2.52
		c0.7,0.888,1.341,2.007,1.925,3.36c0.583,1.354,0.875,3.01,0.875,4.97c0,2.24-0.397,4.271-1.19,6.09
		c-0.793,1.82-1.924,3.372-3.395,4.655c-1.47,1.284-3.268,2.264-5.39,2.94c-2.124,0.677-4.492,1.015-7.104,1.015h-19.04V9.119z
		 M349.36,50.21c4.106,0,7.141-0.887,9.1-2.66c1.961-1.773,2.94-4.13,2.94-7.07c0-1.913-0.409-3.44-1.225-4.585
		c-0.817-1.143-1.692-2.041-2.625-2.695c-1.167-0.745-2.45-1.26-3.85-1.54c1.12-0.325,2.123-0.84,3.009-1.54
		c0.793-0.605,1.506-1.435,2.136-2.484s0.944-2.392,0.944-4.025c0-2.939-0.934-5.155-2.799-6.649c-1.867-1.493-4.41-2.24-7.631-2.24
		h-10.079v35.49H349.36z M341.101,30.819v-14.42h8.26c3.033,0,5.216,0.665,6.546,1.995c1.329,1.33,1.994,3.069,1.994,5.215
		c0,2.147-0.665,3.885-1.994,5.215c-1.33,1.33-3.513,1.995-6.546,1.995H341.101z M341.101,48.529V32.5h8.19
		c1.445,0,2.788,0.151,4.024,0.454c1.236,0.305,2.321,0.771,3.256,1.4c0.932,0.63,1.668,1.459,2.204,2.485s0.806,2.239,0.806,3.64
		c0,2.847-0.945,4.9-2.836,6.16c-1.89,1.26-4.374,1.89-7.454,1.89H341.101z M351.881,23.329c0-2.146-1.167-3.22-3.5-3.22h-1.68v6.44
		h1.68C350.714,26.55,351.881,25.477,351.881,23.329z M348.381,44.819c3.546,0,5.32-1.353,5.32-4.06c0-2.706-1.774-4.061-5.32-4.061
		h-1.68v8.12H348.381z"/>
	<path fill="#77A9C1" d="M370.29,41.319c1.025,0.327,2.1,0.584,3.22,0.771c0.933,0.233,1.995,0.42,3.185,0.56
		c1.19,0.141,2.391,0.21,3.605,0.21c2.146,0,3.22-0.793,3.22-2.38c0-0.605-0.327-1.225-0.979-1.854
		c-0.654-0.631-1.482-1.33-2.485-2.101c-1.004-0.77-2.077-1.621-3.22-2.555c-1.145-0.934-2.217-2.006-3.221-3.22
		s-1.832-2.578-2.484-4.096c-0.654-1.516-0.98-3.255-0.98-5.215c0-2.192,0.396-4.13,1.19-5.81c0.793-1.681,1.89-3.08,3.29-4.2
		s3.045-1.971,4.935-2.555C381.454,8.292,383.473,8,385.62,8c1.119,0,2.239,0.059,3.359,0.175c1.12,0.117,2.123,0.222,3.01,0.314
		c1.026,0.141,2.03,0.28,3.01,0.42V22c-0.373-0.046-0.793-0.094-1.26-0.141c-0.373-0.046-0.794-0.093-1.26-0.14
		c-0.467-0.046-0.957-0.07-1.47-0.07c-0.28,0-0.63,0.012-1.05,0.035c-0.42,0.024-0.817,0.082-1.19,0.175
		c-0.374,0.095-0.7,0.257-0.979,0.49c-0.28,0.234-0.42,0.56-0.42,0.979c0,0.375,0.314,0.841,0.944,1.4
		c0.63,0.561,1.4,1.214,2.31,1.96c0.91,0.747,1.914,1.61,3.011,2.59c1.096,0.98,2.1,2.101,3.01,3.36s1.681,2.684,2.31,4.27
		c0.631,1.588,0.945,3.36,0.945,5.32c0,2.054-0.328,3.979-0.98,5.775c-0.653,1.797-1.668,3.359-3.045,4.689s-3.139,2.38-5.284,3.15
		c-2.147,0.77-4.69,1.155-7.63,1.155c-1.774,0-3.42-0.082-4.936-0.245c-1.517-0.164-2.859-0.362-4.025-0.596
		c-1.354-0.233-2.59-0.513-3.709-0.84V41.319z M376.169,49.72c0.654,0.14,1.354,0.257,2.101,0.35
		c0.653,0.095,1.341,0.175,2.065,0.245c0.723,0.07,1.457,0.105,2.205,0.105c1.306,0,2.578-0.151,3.814-0.455
		s2.346-0.806,3.325-1.505c0.979-0.7,1.761-1.599,2.345-2.695c0.583-1.096,0.875-2.438,0.875-4.025c0-1.353-0.339-2.636-1.015-3.85
		c-0.677-1.213-1.54-2.38-2.591-3.5c-1.049-1.12-2.17-2.193-3.359-3.22s-2.311-2.065-3.359-3.115
		c-1.051-1.05-1.914-2.101-2.591-3.15s-1.015-2.135-1.015-3.255c0-1.68,0.535-2.975,1.609-3.885c1.073-0.91,2.801-1.365,5.181-1.365
		c0.373,0,0.758,0.012,1.155,0.035c0.396,0.024,0.78,0.059,1.154,0.105c0.373,0.047,0.746,0.069,1.12,0.069V14.79
		c-0.327,0-0.677-0.023-1.05-0.07c-0.327-0.046-0.689-0.081-1.085-0.105c-0.397-0.022-0.806-0.035-1.226-0.035
		c-2.52,0-4.597,0.572-6.229,1.716c-1.634,1.144-2.45,2.929-2.45,5.354c0,1.308,0.338,2.532,1.016,3.675
		c0.676,1.145,1.539,2.265,2.59,3.36c1.05,1.097,2.17,2.159,3.359,3.185c1.19,1.027,2.311,2.065,3.36,3.115s1.913,2.135,2.59,3.255
		s1.015,2.287,1.015,3.5c0,2.24-0.759,3.944-2.274,5.11c-1.517,1.167-3.604,1.75-6.265,1.75c-1.588,0-3.035-0.116-4.34-0.35
		c-0.701-0.094-1.377-0.21-2.031-0.351V49.72z"/>
	<path fill="#F7CE87" d="M403.05,9.119h15.818v46.69H403.05V9.119z M411.868,50.21V14.72h-1.818v35.49H411.868z"/>
	<path fill="#97CBD6" d="M429.929,21.369h-8.609V9.119h32.619v12.25h-8.609v34.44h-15.4V21.369z M438.538,50.21V16.399h10.012v-1.68
		h-21.842v1.68h10.012V50.21H438.538z"/>
	<path fill="#F6A482" d="M456.388,9.119h27.51v12.25h-12.6v5.181h12.391v11.62h-12.391v5.39h13.09v12.25h-28V9.119z M479.208,50.21
		v-1.681h-14v-15.33h13.301v-1.68h-13.301v-15.12h14v-1.68h-15.82v35.49H479.208z"/>
</g>
</svg>
