<?xml version="1.0" encoding="utf-8"?>
<!-- Generator: Adobe Illustrator 16.0.0, SVG Export Plug-In . SVG Version: 6.00 Build 0)  -->
<!DOCTYPE svg PUBLIC "-//W3C//DTD SVG 1.1//EN" "http://www.w3.org/Graphics/SVG/1.1/DTD/svg11.dtd">
<svg version="1.1" id="time" xmlns="http://www.w3.org/2000/svg" xmlns:xlink="http://www.w3.org/1999/xlink" x="0px" y="0px"
	 width="1165px" height="55px" viewBox="0 0 1165 55" enable-background="new 0 0 1165 55" xml:space="preserve">
<path id="green_x5F_line" fill="#F4CD86" d="M1165.5,28c0,6.627-5.378,12-12.01,12H11.51C4.877,40-0.5,34.627-0.5,28l0,0
	c0-6.627,5.377-12,12.01-12h1141.98C1160.122,16,1165.5,21.373,1165.5,28L1165.5,28z"/>
<path fill="#F4A281" d="M82,48.79c0,3.431-3.134,6.21-7,6.21l0,0c-3.866,0-7-2.779-7-6.21V6.21C68,2.78,71.134,0,75,0l0,0
	c3.866,0,7,2.78,7,6.21V48.79z"/>
<path fill="#F4A281" d="M467,48.29c0,3.431-3.134,6.21-7,6.21l0,0c-3.866,0-7-2.779-7-6.21V5.71c0-3.43,3.134-6.21,7-6.21l0,0
	c3.866,0,7,2.78,7,6.21V48.29z"/>
<path fill="#F4A281" d="M855,48.79c0,3.431-3.134,6.21-7,6.21l0,0c-3.866,0-7-2.779-7-6.21V6.21c0-3.43,3.134-6.21,7-6.21l0,0
	c3.866,0,7,2.78,7,6.21V48.79z"/>
<path fill="#F4A281" d="M649.5,48.79c0,3.431-3.134,6.21-7,6.21l0,0c-3.866,0-7-2.779-7-6.21V6.21c0-3.43,3.134-6.21,7-6.21l0,0
	c3.866,0,7,2.78,7,6.21V48.79z"/>
</svg>
